<?xml version="1.0" encoding="utf-8"?>
<!-- Generator: Adobe Illustrator 19.0.0, SVG Export Plug-In . SVG Version: 6.00 Build 0)  -->
<svg version="1.1" id="Layer_1" xmlns="http://www.w3.org/2000/svg" xmlns:xlink="http://www.w3.org/1999/xlink" x="0px" y="0px"
	 viewBox="0 0 570 159" style="enable-background:new 0 0 570 159;" xml:space="preserve">
<style type="text/css">
	.st0{clip-path:url(#XMLID_4_);fill:none;stroke:#010101;stroke-width:2;stroke-miterlimit:10;}
	.st1{fill:none;stroke:#010101;stroke-linecap:square;stroke-miterlimit:10;}
	.st2{fill:#010101;}
	.st3{clip-path:url(#XMLID_5_);fill:none;stroke:#010101;stroke-width:2;stroke-miterlimit:10;}
</style>
<g id="XMLID_77_">
	<defs>
		<rect id="XMLID_37_" x="1" y="22" width="568" height="136"/>
	</defs>
	<clipPath id="XMLID_4_">
		<use xlink:href="#XMLID_37_"  style="overflow:visible;"/>
	</clipPath>
	<rect id="XMLID_38_" x="1" y="22" class="st0" width="568" height="136"/>
</g>
<line id="XMLID_36_" class="st1" x1="1.5" y1="66.1" x2="569" y2="66.1"/>
<line id="XMLID_35_" class="st1" x1="1.5" y1="89" x2="569" y2="89"/>
<line id="XMLID_34_" class="st1" x1="1.5" y1="111.9" x2="569" y2="111.9"/>
<line id="XMLID_33_" class="st1" x1="1.5" y1="134.8" x2="569" y2="134.8"/>
<line id="XMLID_32_" class="st1" x1="1.5" y1="43.2" x2="569" y2="43.2"/>
<line id="XMLID_31_" class="st1" x1="285" y1="22.7" x2="285" y2="157.8"/>
<g id="XMLID_527_">
	<path id="XMLID_528_" class="st2" d="M98,148.3c0,0.3-0.1,0.5-0.3,0.7c-0.2,0.2-0.4,0.3-0.7,0.3c-0.3,0-0.5-0.1-0.7-0.3
		s-0.3-0.4-0.3-0.7v-0.4h0.3v0.4c0,0.4,0.3,0.7,0.7,0.7c0.4,0,0.7-0.3,0.7-0.7v-1.8c0-0.4-0.3-0.7-0.7-0.7c-0.4,0-0.7,0.3-0.7,0.7
		v0.1h-0.3v-2.7h2v0.3h-1.7v1.6c0.2-0.2,0.4-0.3,0.7-0.3c0.3,0,0.5,0.1,0.7,0.3c0.2,0.2,0.3,0.4,0.3,0.7V148.3z"/>
</g>
<g id="XMLID_501_">
	<path id="XMLID_502_" class="st2" d="M110.4,148.7l-1.1-1.6l-0.2,0.2v1.4h-0.9v-3.9h0.9v1.4l1.3-1.4h1.1l-1.5,1.7l1.6,2.3H110.4z"
		/>
	<path id="XMLID_504_" class="st2" d="M114.3,147.1v1.6h-0.9v-1.6l-1.3-2.3h1l0.7,1.4c0,0.1,0.1,0.2,0.1,0.2s0-0.1,0.1-0.2l0.7-1.4
		h1L114.3,147.1z"/>
	<path id="XMLID_506_" class="st2" d="M118.3,148.8c-0.9,0-1.7-0.6-1.7-1.7v-2.3h0.9v2.3c0,0.5,0.3,0.9,0.8,0.9
		c0.5,0,0.9-0.4,0.9-0.9v-2.3h0.9v2.3C120,148.2,119.2,148.8,118.3,148.8z"/>
	<path id="XMLID_508_" class="st2" d="M122.4,148.8c-0.5,0-0.9-0.2-1.3-0.5l0.4-0.6c0.2,0.2,0.6,0.3,0.9,0.3c0.4,0,0.5-0.1,0.5-0.4
		c0-0.4-0.7-0.5-1-0.7c-0.4-0.2-0.7-0.5-0.7-1.1c0-0.8,0.7-1.1,1.4-1.1c0.4,0,0.8,0.1,1.1,0.3l-0.4,0.6c-0.2-0.1-0.5-0.2-0.7-0.2
		c-0.4,0-0.5,0.2-0.5,0.4c0,0.4,0.5,0.5,1,0.7c0.4,0.2,0.8,0.4,0.8,1.1C123.8,148.4,123.3,148.8,122.4,148.8z"/>
	<path id="XMLID_510_" class="st2" d="M127.2,148.7v-1.6h-1.4v1.6H125v-3.9h0.9v1.6h1.4v-1.6h0.9v3.9H127.2z"/>
	<path id="XMLID_512_" class="st2" d="M131,148.8c-0.9,0-1.7-0.6-1.7-1.7v-2.3h0.9v2.3c0,0.5,0.3,0.9,0.8,0.9c0.5,0,0.9-0.4,0.9-0.9
		v-2.3h0.9v2.3C132.7,148.2,131.9,148.8,131,148.8z"/>
	<path id="XMLID_514_" class="st2" d="M134.2,149.6l-0.5-0.3c0.1-0.2,0.2-0.4,0.2-0.6v-0.7h0.8v0.6
		C134.6,148.9,134.4,149.3,134.2,149.6z"/>
	<path id="XMLID_516_" class="st2" d="M137.7,148.7h-0.4V148h0.3c0.4,0,0.6-0.2,0.6-0.7v-2.5h0.9v2.7
		C139,148.2,138.4,148.7,137.7,148.7z"/>
	<path id="XMLID_518_" class="st2" d="M142.6,148.7l-0.3-1h-1.2l-0.3,1h-0.9l1.4-3.9h0.8l1.4,3.9H142.6z M141.8,146.1
		c0-0.1-0.1-0.3-0.1-0.3s0,0.2-0.1,0.3l-0.3,1h0.8L141.8,146.1z"/>
	<path id="XMLID_521_" class="st2" d="M145.8,147.2h-0.4v1.6h-0.9v-3.9h1.3c0.9,0,1.4,0.4,1.4,1.2
		C147.3,146.7,146.7,147.2,145.8,147.2z M145.8,145.5h-0.4v0.9h0.4c0.4,0,0.6-0.2,0.6-0.5C146.4,145.7,146.2,145.5,145.8,145.5z"/>
	<path id="XMLID_524_" class="st2" d="M150.7,148.7l-0.3-1h-1.2l-0.3,1H148l1.4-3.9h0.8l1.4,3.9H150.7z M149.9,146.1
		c0-0.1-0.1-0.3-0.1-0.3s0,0.2-0.1,0.3l-0.3,1h0.8L149.9,146.1z"/>
</g>
<g id="XMLID_498_">
	<path id="XMLID_499_" class="st2" d="M155.3,148.7l-1.7-2.3c-0.1-0.1-0.1-0.2-0.1-0.2s0,0.1,0,0.2v2.2h-0.9v-3.9h0.7l1.7,2.3
		c0.1,0.1,0.1,0.2,0.1,0.2s0-0.1,0-0.2v-2.2h0.9v3.9H155.3z"/>
</g>
<g id="XMLID_494_">
	<path id="XMLID_495_" class="st2" d="M97.8,124.1h-0.3v1.7h-0.3v-1.7h-1.4v-1l1.4-2.7h0.3v3.4h0.3V124.1z M97.1,123.8v-2.7l-1,2
		v0.6H97.1z"/>
</g>
<g id="XMLID_464_">
	<path id="XMLID_465_" class="st2" d="M109.6,122.6v3.2h-0.9v-3.2H108v-0.7h2.4v0.7H109.6z"/>
	<path id="XMLID_467_" class="st2" d="M113.8,125.8l-0.3-1h-1.2l-0.3,1h-0.9l1.4-3.9h0.8l1.4,3.9H113.8z M113,123.2
		c0-0.1-0.1-0.3-0.1-0.3s0,0.2-0.1,0.3l-0.3,1h0.8L113,123.2z"/>
	<path id="XMLID_470_" class="st2" d="M117.9,125.8v-1.6h-1.4v1.6h-0.9v-3.9h0.9v1.6h1.4v-1.6h0.9v3.9H117.9z"/>
	<path id="XMLID_472_" class="st2" d="M122.5,125.8l-0.3-1H121l-0.3,1h-0.9l1.4-3.9h0.8l1.4,3.9H122.5z M121.7,123.2
		c0-0.1-0.1-0.3-0.1-0.3s0,0.2-0.1,0.3l-0.3,1h0.8L121.7,123.2z"/>
	<path id="XMLID_475_" class="st2" d="M126.3,125.8l-1.1-1.9v1.9h-0.9v-3.9h1.4c0.8,0,1.3,0.5,1.3,1.2c0,0.6-0.4,1-0.9,1.1l1,1.6
		H126.3z M125.8,122.6h-0.5v0.9h0.5c0.3,0,0.5-0.2,0.5-0.5C126.3,122.8,126.1,122.6,125.8,122.6z"/>
	<path id="XMLID_478_" class="st2" d="M130.7,125.8l-0.3-1h-1.2l-0.3,1H128l1.4-3.9h0.8l1.4,3.9H130.7z M129.9,123.2
		c0-0.1-0.1-0.3-0.1-0.3s0,0.2-0.1,0.3l-0.3,1h0.8L129.9,123.2z"/>
	<path id="XMLID_481_" class="st2" d="M132.8,126.7l-0.5-0.3c0.1-0.2,0.2-0.4,0.2-0.6V125h0.8v0.6
		C133.3,126,133.1,126.4,132.8,126.7z"/>
	<path id="XMLID_483_" class="st2" d="M136.4,125.8h-0.4v-0.7h0.3c0.4,0,0.6-0.2,0.6-0.7v-2.5h0.9v2.7
		C137.7,125.3,137.1,125.8,136.4,125.8z"/>
	<path id="XMLID_485_" class="st2" d="M141.3,125.8l-0.3-1h-1.2l-0.3,1h-0.9l1.4-3.9h0.8l1.4,3.9H141.3z M140.5,123.2
		c0-0.1-0.1-0.3-0.1-0.3s0,0.2-0.1,0.3l-0.3,1h0.8L140.5,123.2z"/>
	<path id="XMLID_488_" class="st2" d="M144.5,124.3h-0.4v1.6h-0.9v-3.9h1.3c0.9,0,1.4,0.4,1.4,1.2
		C146,123.8,145.4,124.3,144.5,124.3z M144.5,122.6h-0.4v0.9h0.4c0.4,0,0.6-0.2,0.6-0.5C145.1,122.7,144.9,122.6,144.5,122.6z"/>
	<path id="XMLID_491_" class="st2" d="M149.4,125.8l-0.3-1h-1.2l-0.3,1h-0.9l1.4-3.9h0.8l1.4,3.9H149.4z M148.6,123.2
		c0-0.1-0.1-0.3-0.1-0.3s0,0.2-0.1,0.3l-0.3,1h0.8L148.6,123.2z"/>
</g>
<g id="XMLID_461_">
	<path id="XMLID_462_" class="st2" d="M154,125.8l-1.7-2.3c-0.1-0.1-0.1-0.2-0.1-0.2s0,0.1,0,0.2v2.2h-0.9v-3.9h0.7l1.7,2.3
		c0.1,0.1,0.1,0.2,0.1,0.2s0-0.1,0-0.2v-2.2h0.9v3.9H154z"/>
</g>
<g id="XMLID_458_">
	<path id="XMLID_459_" class="st2" d="M97.5,102.9c0,0.3-0.1,0.5-0.3,0.7c-0.2,0.2-0.4,0.3-0.7,0.3c-0.3,0-0.5-0.1-0.7-0.3
		s-0.3-0.4-0.3-0.7v-0.4h0.3v0.4c0,0.4,0.3,0.7,0.7,0.7c0.4,0,0.7-0.3,0.7-0.7v-1.1c0-0.4-0.3-0.7-0.7-0.7h-0.4v-0.3l1-2h-1.7v-0.3
		h2v0.3l-1,2c0.3,0,0.5,0.1,0.7,0.3c0.2,0.2,0.3,0.4,0.3,0.7V102.9z"/>
</g>
<g id="XMLID_423_">
	<path id="XMLID_424_" class="st2" d="M111.2,103.4v-2.3c0-0.1,0-0.3,0-0.3s0,0.1-0.1,0.2l-0.9,1.6H110l-0.9-1.6
		c0-0.1-0.1-0.2-0.1-0.2s0,0.1,0,0.3v2.3h-0.9v-3.9h0.8l1.1,1.9c0,0.1,0.1,0.2,0.1,0.2s0-0.1,0.1-0.2l1-1.9h0.9v3.9H111.2z"/>
	<path id="XMLID_426_" class="st2" d="M115.2,103.5c-1.2,0-2-0.9-2-2c0-1.1,0.8-2,2-2c1.2,0,2,0.8,2,2
		C117.2,102.5,116.4,103.5,115.2,103.5z M115.2,100.2c-0.7,0-1.1,0.6-1.1,1.3c0,0.7,0.5,1.3,1.1,1.3c0.7,0,1.1-0.6,1.1-1.3
		C116.3,100.7,115.9,100.2,115.2,100.2z"/>
	<path id="XMLID_429_" class="st2" d="M119.8,100.2v3.2h-0.9v-3.2h-0.8v-0.7h2.4v0.7H119.8z"/>
	<path id="XMLID_431_" class="st2" d="M123.4,103.5c-1.2,0-2-0.9-2-2c0-1.1,0.8-2,2-2c1.2,0,2,0.8,2,2
		C125.4,102.5,124.6,103.5,123.4,103.5z M123.4,100.2c-0.7,0-1.1,0.6-1.1,1.3c0,0.7,0.5,1.3,1.1,1.3c0.7,0,1.1-0.6,1.1-1.3
		C124.5,100.7,124.1,100.2,123.4,100.2z"/>
	<path id="XMLID_434_" class="st2" d="M129.6,103.4v-2.3c0-0.1,0-0.3,0-0.3s0,0.1-0.1,0.2l-0.9,1.6h-0.3l-0.9-1.6
		c0-0.1-0.1-0.2-0.1-0.2s0,0.1,0,0.3v2.3h-0.9v-3.9h0.8l1.1,1.9c0,0.1,0.1,0.2,0.1,0.2s0-0.1,0.1-0.2l1-1.9h0.9v3.9H129.6z"/>
	<path id="XMLID_436_" class="st2" d="M134.1,103.4l-0.3-1h-1.2l-0.3,1h-0.9l1.4-3.9h0.8l1.4,3.9H134.1z M133.3,100.7
		c0-0.1-0.1-0.3-0.1-0.3s0,0.2-0.1,0.3l-0.3,1h0.8L133.3,100.7z"/>
	<path id="XMLID_439_" class="st2" d="M137.8,103.5c-1.2,0-2-0.8-2-2c0-1.2,0.9-2,2-2c0.6,0,1,0.2,1.4,0.6l-0.5,0.6
		c-0.3-0.3-0.6-0.4-0.9-0.4c-0.7,0-1.1,0.5-1.1,1.3c0,0.8,0.4,1.3,1.1,1.3c0.5,0,0.7-0.2,1-0.4l0.5,0.6
		C139,103.2,138.5,103.5,137.8,103.5z"/>
	<path id="XMLID_441_" class="st2" d="M142.6,103.4v-1.6h-1.4v1.6h-0.9v-3.9h0.9v1.6h1.4v-1.6h0.9v3.9H142.6z"/>
	<path id="XMLID_443_" class="st2" d="M144.7,103.4v-3.9h0.9v3.9H144.7z"/>
	<path id="XMLID_445_" class="st2" d="M147.1,104.3l-0.5-0.3c0.1-0.2,0.2-0.4,0.2-0.6v-0.7h0.8v0.6
		C147.5,103.6,147.3,103.9,147.1,104.3z"/>
	<path id="XMLID_447_" class="st2" d="M150.6,103.4h-0.4v-0.7h0.3c0.4,0,0.6-0.2,0.6-0.7v-2.5h0.9v2.7
		C151.9,102.9,151.3,103.4,150.6,103.4z"/>
	<path id="XMLID_449_" class="st2" d="M155.6,103.4l-0.3-1h-1.2l-0.3,1h-0.9l1.4-3.9h0.8l1.4,3.9H155.6z M154.8,100.7
		c0-0.1-0.1-0.3-0.1-0.3s0,0.2-0.1,0.3l-0.3,1h0.8L154.8,100.7z"/>
	<path id="XMLID_452_" class="st2" d="M158.8,101.8h-0.4v1.6h-0.9v-3.9h1.3c0.9,0,1.4,0.4,1.4,1.2
		C160.2,101.4,159.7,101.8,158.8,101.8z M158.8,100.2h-0.4v0.9h0.4c0.4,0,0.6-0.2,0.6-0.5C159.3,100.3,159.2,100.2,158.8,100.2z"/>
	<path id="XMLID_455_" class="st2" d="M163.6,103.4l-0.3-1h-1.2l-0.3,1h-0.9l1.4-3.9h0.8l1.4,3.9H163.6z M162.8,100.7
		c0-0.1-0.1-0.3-0.1-0.3s0,0.2-0.1,0.3l-0.3,1h0.8L162.8,100.7z"/>
</g>
<g id="XMLID_420_">
	<path id="XMLID_421_" class="st2" d="M168.3,103.4l-1.7-2.3c-0.1-0.1-0.1-0.2-0.1-0.2s0,0.1,0,0.2v2.2h-0.9v-3.9h0.7l1.7,2.3
		c0.1,0.1,0.1,0.2,0.1,0.2s0-0.1,0-0.2v-2.2h0.9v3.9H168.3z"/>
</g>
<g id="XMLID_417_">
	<path id="XMLID_418_" class="st2" d="M97.5,80h-2v-1.4c0-0.4,0.2-0.7,0.4-1.1l0.8-0.8c0.3-0.3,0.4-0.6,0.4-0.9v-0.4
		c0-0.4-0.3-0.7-0.7-0.7c-0.4,0-0.7,0.3-0.7,0.7v0.4h-0.3v-0.4c0-0.3,0.1-0.5,0.3-0.7s0.4-0.3,0.7-0.3c0.3,0,0.5,0.1,0.7,0.3
		c0.2,0.2,0.3,0.4,0.3,0.7v0.4c0,0.4-0.1,0.7-0.4,1.1l-0.8,0.8c-0.3,0.3-0.4,0.6-0.4,0.9v1h1.7V80z"/>
</g>
<g id="XMLID_376_">
	<path id="XMLID_377_" class="st2" d="M110,80.1c-1.2,0-2-0.8-2-2c0-1.2,0.9-2,2-2c0.6,0,1,0.2,1.4,0.6l-0.5,0.6
		c-0.3-0.3-0.6-0.4-0.9-0.4c-0.7,0-1.1,0.5-1.1,1.3c0,0.8,0.4,1.3,1.1,1.3c0.5,0,0.7-0.2,1-0.4l0.5,0.6
		C111.1,79.8,110.7,80.1,110,80.1z"/>
	<path id="XMLID_379_" class="st2" d="M114.9,80l-0.3-1h-1.2l-0.3,1h-0.9l1.4-3.9h0.8l1.4,3.9H114.9z M114.1,77.3
		c0-0.1-0.1-0.3-0.1-0.3s0,0.2-0.1,0.3l-0.3,1h0.8L114.1,77.3z"/>
	<path id="XMLID_382_" class="st2" d="M119.9,80v-2.3c0-0.1,0-0.3,0-0.3s0,0.1-0.1,0.2l-0.9,1.6h-0.3l-0.9-1.6
		c0-0.1-0.1-0.2-0.1-0.2s0,0.1,0,0.3V80h-0.9v-3.9h0.8l1.1,1.9c0,0.1,0.1,0.2,0.1,0.2s0-0.1,0.1-0.2l1-1.9h0.9V80H119.9z"/>
	<path id="XMLID_384_" class="st2" d="M123.5,80H122v-3.9h1.4c0.8,0,1.4,0.4,1.4,1.1c0,0.4-0.3,0.7-0.6,0.8c0.5,0.1,0.8,0.5,0.8,0.9
		C124.9,79.6,124.4,80,123.5,80z M123.3,76.8h-0.4v0.9h0.4c0.4,0,0.6-0.2,0.6-0.5C123.9,76.9,123.7,76.8,123.3,76.8z M123.5,78.4
		h-0.6v0.8h0.6c0.4,0,0.6-0.2,0.6-0.4S123.9,78.4,123.5,78.4z"/>
	<path id="XMLID_388_" class="st2" d="M128,80l-1.1-1.9V80H126v-3.9h1.4c0.8,0,1.3,0.5,1.3,1.2c0,0.6-0.4,1-0.9,1.1l1,1.6H128z
		 M127.4,76.8h-0.5v0.9h0.5c0.3,0,0.5-0.2,0.5-0.5C127.9,77,127.7,76.8,127.4,76.8z"/>
	<path id="XMLID_391_" class="st2" d="M130,80v-3.9h0.9V80H130z"/>
	<path id="XMLID_393_" class="st2" d="M133.3,80h-1.2v-3.9h1.2c1.1,0,2,0.7,2,2C135.4,79.3,134.4,80,133.3,80z M133.3,76.8H133v2.5
		h0.3c0.7,0,1.2-0.6,1.2-1.2C134.5,77.3,134,76.8,133.3,76.8z"/>
	<path id="XMLID_396_" class="st2" d="M138.3,80.1c-1.2,0-2-0.8-2-2c0-1.2,0.9-2,2-2c0.7,0,1.2,0.3,1.5,0.6l-0.5,0.5
		c-0.2-0.3-0.6-0.4-1-0.4c-0.7,0-1.1,0.6-1.1,1.3c0,0.7,0.5,1.3,1.2,1.3c0.5,0,0.8-0.2,1-0.6h-1V78h1.9
		C140.2,79.3,139.4,80.1,138.3,80.1z"/>
	<path id="XMLID_398_" class="st2" d="M141.3,80v-3.9h2.3v0.7h-1.4v0.9h1.3v0.7h-1.3v0.8h1.5V80H141.3z"/>
	<path id="XMLID_400_" class="st2" d="M145,80.8l-0.5-0.3c0.1-0.2,0.2-0.4,0.2-0.6v-0.7h0.8v0.6C145.5,80.2,145.3,80.5,145,80.8z"/>
	<path id="XMLID_402_" class="st2" d="M150.2,80.1c-1.2,0-2-0.9-2-2c0-1.1,0.8-2,2-2c1.2,0,2,0.8,2,2
		C152.2,79.1,151.4,80.1,150.2,80.1z M150.2,76.8c-0.7,0-1.1,0.6-1.1,1.3c0,0.7,0.5,1.3,1.1,1.3c0.7,0,1.1-0.6,1.1-1.3
		C151.3,77.3,150.9,76.8,150.2,76.8z"/>
	<path id="XMLID_405_" class="st2" d="M156,80l-1.7-2.3c-0.1-0.1-0.1-0.2-0.1-0.2s0,0.1,0,0.2V80h-0.9v-3.9h0.7l1.7,2.3
		c0.1,0.1,0.1,0.2,0.1,0.2s0-0.1,0-0.2v-2.2h0.9V80H156z"/>
	<path id="XMLID_407_" class="st2" d="M159.4,76.8V80h-0.9v-3.2h-0.8v-0.7h2.4v0.7H159.4z"/>
	<path id="XMLID_409_" class="st2" d="M163.6,80l-0.3-1h-1.2l-0.3,1h-0.9l1.4-3.9h0.8l1.4,3.9H163.6z M162.8,77.3
		c0-0.1-0.1-0.3-0.1-0.3s0,0.2-0.1,0.3l-0.3,1h0.8L162.8,77.3z"/>
	<path id="XMLID_412_" class="st2" d="M167.5,80l-1.1-1.9V80h-0.9v-3.9h1.4c0.8,0,1.3,0.5,1.3,1.2c0,0.6-0.4,1-0.9,1.1l1,1.6H167.5z
		 M166.9,76.8h-0.5v0.9h0.5c0.3,0,0.5-0.2,0.5-0.5C167.4,77,167.2,76.8,166.9,76.8z"/>
	<path id="XMLID_415_" class="st2" d="M169.5,80v-3.9h0.9V80H169.5z"/>
</g>
<g id="XMLID_372_">
	<path id="XMLID_373_" class="st2" d="M173.5,80.1c-1.2,0-2-0.9-2-2c0-1.1,0.8-2,2-2c1.2,0,2,0.8,2,2
		C175.6,79.1,174.7,80.1,173.5,80.1z M173.5,76.8c-0.7,0-1.1,0.6-1.1,1.3c0,0.7,0.5,1.3,1.1,1.3c0.7,0,1.1-0.6,1.1-1.3
		C174.7,77.3,174.2,76.8,173.5,76.8z"/>
</g>
<g id="XMLID_369_">
	<path id="XMLID_370_" class="st2" d="M97.5,57.1h-1.6v-0.3h0.6v-4.4h-0.6V52h1v4.7h0.6V57.1z"/>
</g>
<g id="XMLID_333_">
	<path id="XMLID_334_" class="st2" d="M108.2,57.1v-3.9h0.9v3.2h1.4v0.7H108.2z"/>
	<path id="XMLID_336_" class="st2" d="M111.5,57.1v-3.9h2.3v0.7h-1.4v0.9h1.3v0.7h-1.3v0.8h1.5v0.7H111.5z"/>
	<path id="XMLID_338_" class="st2" d="M117.3,57.1l-0.8-1.4l-0.8,1.4h-1l1.3-2.1l-1.1-1.8h1l0.6,1l0.6-1h1l-1.1,1.8l1.3,2.1H117.3z"
		/>
	<path id="XMLID_340_" class="st2" d="M119.3,57.1v-3.9h0.9v3.9H119.3z"/>
	<path id="XMLID_342_" class="st2" d="M124.1,57.1l-1.7-2.3c-0.1-0.1-0.1-0.2-0.1-0.2s0,0.1,0,0.2v2.2h-0.9v-3.9h0.7l1.7,2.3
		c0.1,0.1,0.1,0.2,0.1,0.2s0-0.1,0-0.2v-2.2h0.9v3.9H124.1z"/>
	<path id="XMLID_344_" class="st2" d="M128,57.1c-1.2,0-2-0.8-2-2c0-1.2,0.9-2,2-2c0.7,0,1.2,0.3,1.5,0.6l-0.5,0.5
		c-0.2-0.3-0.6-0.4-1-0.4c-0.7,0-1.1,0.6-1.1,1.3c0,0.7,0.5,1.3,1.2,1.3c0.5,0,0.8-0.2,1-0.6h-1v-0.7h1.9
		C129.9,56.4,129,57.1,128,57.1z"/>
	<path id="XMLID_346_" class="st2" d="M132.4,53.9v3.2h-0.9v-3.2h-0.8v-0.7h2.4v0.7H132.4z"/>
	<path id="XMLID_348_" class="st2" d="M136,57.1c-1.2,0-2-0.9-2-2c0-1.1,0.8-2,2-2c1.2,0,2,0.8,2,2C138,56.2,137.2,57.1,136,57.1z
		 M136,53.8c-0.7,0-1.1,0.6-1.1,1.3c0,0.7,0.5,1.3,1.1,1.3c0.7,0,1.1-0.6,1.1-1.3C137.1,54.4,136.7,53.8,136,53.8z"/>
	<path id="XMLID_351_" class="st2" d="M141.8,57.1l-1.7-2.3c-0.1-0.1-0.1-0.2-0.1-0.2s0,0.1,0,0.2v2.2h-0.9v-3.9h0.7l1.7,2.3
		c0.1,0.1,0.1,0.2,0.1,0.2s0-0.1,0-0.2v-2.2h0.9v3.9H141.8z"/>
	<path id="XMLID_353_" class="st2" d="M144,57.9l-0.5-0.3c0.1-0.2,0.2-0.4,0.2-0.6v-0.7h0.8v0.6C144.5,57.3,144.3,57.6,144,57.9z"/>
	<path id="XMLID_355_" class="st2" d="M149.6,57.1l-1.1-1.6l-0.2,0.2v1.4h-0.9v-3.9h0.9v1.4l1.3-1.4h1.1l-1.5,1.7l1.6,2.3H149.6z"/>
	<path id="XMLID_357_" class="st2" d="M151.6,57.1v-3.9h2.3v0.7h-1.4v0.9h1.3v0.7h-1.3v0.8h1.5v0.7H151.6z"/>
	<path id="XMLID_359_" class="st2" d="M157.9,57.1l-1.7-2.3c-0.1-0.1-0.1-0.2-0.1-0.2s0,0.1,0,0.2v2.2h-0.9v-3.9h0.7l1.7,2.3
		c0.1,0.1,0.1,0.2,0.1,0.2s0-0.1,0-0.2v-2.2h0.9v3.9H157.9z"/>
	<path id="XMLID_361_" class="st2" d="M161.3,53.9v3.2h-0.9v-3.2h-0.8v-0.7h2.4v0.7H161.3z"/>
	<path id="XMLID_363_" class="st2" d="M164.8,57.1c-0.9,0-1.7-0.6-1.7-1.7v-2.3h0.9v2.3c0,0.5,0.3,0.9,0.8,0.9
		c0.5,0,0.9-0.4,0.9-0.9v-2.3h0.9v2.3C166.5,56.6,165.7,57.1,164.8,57.1z"/>
	<path id="XMLID_365_" class="st2" d="M169.6,57.1c-1.2,0-2-0.8-2-2c0-1.2,0.9-2,2-2c0.6,0,1,0.2,1.4,0.6l-0.5,0.6
		c-0.3-0.3-0.6-0.4-0.9-0.4c-0.7,0-1.1,0.5-1.1,1.3c0,0.8,0.4,1.3,1.1,1.3c0.5,0,0.7-0.2,1-0.4l0.5,0.6
		C170.7,56.9,170.3,57.1,169.6,57.1z"/>
	<path id="XMLID_367_" class="st2" d="M174.3,57.1l-1.1-1.6l-0.2,0.2v1.4h-0.9v-3.9h0.9v1.4l1.3-1.4h1.1l-1.5,1.7l1.6,2.3H174.3z"/>
</g>
<g id="XMLID_330_">
	<path id="XMLID_331_" class="st2" d="M178.4,55.5v1.6h-0.9v-1.6l-1.3-2.3h1l0.7,1.4c0,0.1,0.1,0.2,0.1,0.2s0-0.1,0.1-0.2l0.7-1.4h1
		L178.4,55.5z"/>
</g>
<g id="XMLID_305_">
	<path id="XMLID_306_" class="st2" d="M107.6,36.1v-5.5h0.5v5h2.3v0.5H107.6z"/>
	<path id="XMLID_308_" class="st2" d="M112.5,36.1v-5.5h2.9v0.5H113v2h2.2v0.5H113v2.1h2.5v0.5H112.5z"/>
	<path id="XMLID_310_" class="st2" d="M121.5,36.1l-1.7-2.5l-1.7,2.5h-0.6l2-3l-1.7-2.6h0.6l1.4,2.1l1.4-2.1h0.6l-1.7,2.5l2,3H121.5
		z"/>
	<path id="XMLID_312_" class="st2" d="M126.2,36.2c-1.2,0-2-0.8-2-2.1v-3.5h0.5v3.5c0,1,0.7,1.6,1.5,1.6c0.8,0,1.5-0.6,1.5-1.6v-3.5
		h0.5v3.5C128.3,35.4,127.4,36.2,126.2,36.2z"/>
	<path id="XMLID_314_" class="st2" d="M131.9,36.2c-0.5,0-1.1-0.2-1.5-0.6l0.3-0.4c0.3,0.3,0.8,0.5,1.2,0.5c0.6,0,1.1-0.3,1.1-0.9
		c0-0.6-0.5-0.9-1.1-1.2c-0.7-0.4-1.4-0.7-1.4-1.7c0-0.8,0.6-1.4,1.5-1.4c0.6,0,1,0.2,1.4,0.5l-0.3,0.4c-0.3-0.3-0.6-0.4-1.1-0.4
		c-0.5,0-0.9,0.3-0.9,0.8c0,0.7,0.5,0.9,1.2,1.2c0.7,0.3,1.3,0.7,1.3,1.6C133.5,35.6,132.8,36.2,131.9,36.2z"/>
	<path id="XMLID_316_" class="st2" d="M139.8,33.8h-1v2.3h-0.5v-5.5h1.4c1.2,0,1.8,0.7,1.8,1.6C141.5,33.1,140.8,33.8,139.8,33.8z
		 M139.6,31.1h-0.8v2.3h0.9c0.8,0,1.3-0.5,1.3-1.1C141,31.5,140.5,31.1,139.6,31.1z"/>
	<path id="XMLID_319_" class="st2" d="M143.6,36.1v-5.5h0.5v5h2.3v0.5H143.6z"/>
	<path id="XMLID_321_" class="st2" d="M152.1,36.1l-0.7-2h-1.9l-0.7,2h-0.6l2.1-5.6h0.3l2.1,5.6H152.1z M150.4,31.5l-0.8,2.2h1.6
		L150.4,31.5z"/>
	<path id="XMLID_324_" class="st2" d="M158.7,36.1l-3.3-4.6v4.6h-0.5v-5.5h0.5l3.3,4.6v-4.6h0.5v5.5H158.7z"/>
	<path id="XMLID_326_" class="st2" d="M163.1,31.1v5h-0.5v-5h-1.3v-0.5h3.1v0.5H163.1z"/>
	<path id="XMLID_328_" class="st2" d="M167.7,36.2c-0.5,0-1.1-0.2-1.5-0.6l0.3-0.4c0.3,0.3,0.8,0.5,1.2,0.5c0.6,0,1.1-0.3,1.1-0.9
		c0-0.6-0.5-0.9-1.1-1.2c-0.7-0.4-1.4-0.7-1.4-1.7c0-0.8,0.6-1.4,1.5-1.4c0.6,0,1,0.2,1.4,0.5l-0.3,0.4c-0.3-0.3-0.6-0.4-1.1-0.4
		c-0.5,0-0.9,0.3-0.9,0.8c0,0.7,0.5,0.9,1.2,1.2c0.7,0.3,1.3,0.7,1.3,1.6C169.3,35.6,168.6,36.2,167.7,36.2z"/>
</g>
<g id="XMLID_236_">
	<path id="XMLID_237_" class="st2" d="M368,148.7v-3.9h2.3v0.7h-1.4v0.9h1.3v0.7h-1.3v0.8h1.5v0.7H368z"/>
	<path id="XMLID_239_" class="st2" d="M372.7,148.8c-0.5,0-0.9-0.2-1.3-0.5l0.4-0.6c0.2,0.2,0.6,0.3,0.9,0.3c0.4,0,0.5-0.1,0.5-0.4
		c0-0.4-0.7-0.5-1-0.7c-0.4-0.2-0.7-0.5-0.7-1.1c0-0.8,0.7-1.1,1.4-1.1c0.4,0,0.8,0.1,1.1,0.3l-0.4,0.6c-0.2-0.1-0.5-0.2-0.7-0.2
		c-0.4,0-0.5,0.2-0.5,0.4c0,0.4,0.5,0.5,1,0.7c0.4,0.2,0.8,0.4,0.8,1.1C374.1,148.4,373.6,148.8,372.7,148.8z"/>
	<path id="XMLID_241_" class="st2" d="M375.5,149.6l-0.5-0.3c0.1-0.2,0.2-0.4,0.2-0.6v-0.7h0.8v0.6
		C375.9,148.9,375.7,149.3,375.5,149.6z"/>
	<path id="XMLID_243_" class="st2" d="M378.8,148.7v-3.9h0.9v3.9H378.8z"/>
	<path id="XMLID_245_" class="st2" d="M382,148.8c-0.5,0-0.9-0.2-1.3-0.5l0.4-0.6c0.2,0.2,0.6,0.3,0.9,0.3c0.4,0,0.5-0.1,0.5-0.4
		c0-0.4-0.7-0.5-1-0.7c-0.4-0.2-0.7-0.5-0.7-1.1c0-0.8,0.7-1.1,1.4-1.1c0.4,0,0.8,0.1,1.1,0.3l-0.4,0.6c-0.2-0.1-0.5-0.2-0.7-0.2
		c-0.4,0-0.5,0.2-0.5,0.4c0,0.4,0.5,0.5,1,0.7c0.4,0.2,0.8,0.4,0.8,1.1C383.4,148.4,382.9,148.8,382,148.8z"/>
	<path id="XMLID_247_" class="st2" d="M384.8,149.6l-0.5-0.3c0.1-0.2,0.2-0.4,0.2-0.6v-0.7h0.8v0.6
		C385.2,148.9,385,149.3,384.8,149.6z"/>
	<path id="XMLID_249_" class="st2" d="M388.1,148.7v-3.9h0.9v3.9H388.1z"/>
	<path id="XMLID_251_" class="st2" d="M391.4,148.8c-0.5,0-0.9-0.2-1.3-0.5l0.4-0.6c0.2,0.2,0.6,0.3,0.9,0.3c0.4,0,0.5-0.1,0.5-0.4
		c0-0.4-0.7-0.5-1-0.7c-0.4-0.2-0.7-0.5-0.7-1.1c0-0.8,0.7-1.1,1.4-1.1c0.4,0,0.8,0.1,1.1,0.3l-0.4,0.6c-0.2-0.1-0.5-0.2-0.7-0.2
		c-0.4,0-0.5,0.2-0.5,0.4c0,0.4,0.5,0.5,1,0.7c0.4,0.2,0.8,0.4,0.8,1.1C392.7,148.4,392.2,148.8,391.4,148.8z"/>
	<path id="XMLID_253_" class="st2" d="M396.5,145.5v0.9h1.2v0.7h-1.2v1.5h-0.9v-3.9h2.1v0.7H396.5z"/>
	<path id="XMLID_255_" class="st2" d="M399.1,149.6l-0.5-0.3c0.1-0.2,0.2-0.4,0.2-0.6v-0.7h0.8v0.6
		C399.5,148.9,399.3,149.3,399.1,149.6z"/>
	<path id="XMLID_257_" class="st2" d="M402.4,148.7v-3.9h0.9v3.9H402.4z"/>
	<path id="XMLID_259_" class="st2" d="M405.7,148.8c-0.5,0-0.9-0.2-1.3-0.5l0.4-0.6c0.2,0.2,0.6,0.3,0.9,0.3c0.4,0,0.5-0.1,0.5-0.4
		c0-0.4-0.7-0.5-1-0.7c-0.4-0.2-0.7-0.5-0.7-1.1c0-0.8,0.7-1.1,1.4-1.1c0.4,0,0.8,0.1,1.1,0.3l-0.4,0.6c-0.2-0.1-0.5-0.2-0.7-0.2
		c-0.4,0-0.5,0.2-0.5,0.4c0,0.4,0.5,0.5,1,0.7c0.4,0.2,0.8,0.4,0.8,1.1C407,148.4,406.5,148.8,405.7,148.8z"/>
	<path id="XMLID_261_" class="st2" d="M411.7,148.8c-1.2,0-2-0.8-2-2c0-1.2,0.9-2,2-2c0.6,0,1,0.2,1.4,0.6l-0.5,0.6
		c-0.3-0.3-0.6-0.4-0.9-0.4c-0.7,0-1.1,0.5-1.1,1.3c0,0.8,0.4,1.3,1.1,1.3c0.5,0,0.7-0.2,1-0.4l0.5,0.6
		C412.8,148.6,412.4,148.8,411.7,148.8z"/>
	<path id="XMLID_263_" class="st2" d="M414.4,149.6l-0.5-0.3c0.1-0.2,0.2-0.4,0.2-0.6v-0.7h0.8v0.6
		C414.9,148.9,414.7,149.3,414.4,149.6z"/>
	<path id="XMLID_265_" class="st2" d="M419.7,148.7l-1.1-1.9v1.9h-0.9v-3.9h1.4c0.8,0,1.3,0.5,1.3,1.2c0,0.6-0.4,1-0.9,1.1l1,1.6
		H419.7z M419.2,145.5h-0.5v0.9h0.5c0.3,0,0.5-0.2,0.5-0.5C419.6,145.7,419.4,145.5,419.2,145.5z"/>
	<path id="XMLID_268_" class="st2" d="M424,148.7l-0.8-1.4l-0.8,1.4h-1l1.3-2.1l-1.1-1.8h1l0.6,1l0.6-1h1l-1.1,1.8l1.3,2.1H424z"/>
	<path id="XMLID_270_" class="st2" d="M429.9,148.7v-1.6h-1.4v1.6h-0.9v-3.9h0.9v1.6h1.4v-1.6h0.9v3.9H429.9z"/>
	<path id="XMLID_272_" class="st2" d="M433.9,147.1v1.6H433v-1.6l-1.3-2.3h1l0.7,1.4c0,0.1,0.1,0.2,0.1,0.2s0-0.1,0.1-0.2l0.7-1.4h1
		L433.9,147.1z"/>
	<path id="XMLID_274_" class="st2" d="M437.7,148.7h-1.5v-3.9h1.4c0.8,0,1.4,0.4,1.4,1.1c0,0.4-0.3,0.7-0.6,0.8
		c0.5,0.1,0.8,0.5,0.8,0.9C439.1,148.3,438.5,148.7,437.7,148.7z M437.5,145.5H437v0.9h0.4c0.4,0,0.6-0.2,0.6-0.5
		C438.1,145.6,437.8,145.5,437.5,145.5z M437.7,147.2H437v0.8h0.6c0.4,0,0.6-0.2,0.6-0.4S438,147.2,437.7,147.2z"/>
	<path id="XMLID_278_" class="st2" d="M442.2,148.7l-1.1-1.9v1.9h-0.9v-3.9h1.4c0.8,0,1.3,0.5,1.3,1.2c0,0.6-0.4,1-0.9,1.1l1,1.6
		H442.2z M441.6,145.5h-0.5v0.9h0.5c0.3,0,0.5-0.2,0.5-0.5C442.1,145.7,441.9,145.5,441.6,145.5z"/>
	<path id="XMLID_281_" class="st2" d="M444.2,148.7v-3.9h0.9v3.9H444.2z"/>
	<path id="XMLID_283_" class="st2" d="M447.5,148.7h-1.2v-3.9h1.2c1.1,0,2,0.7,2,2C449.5,148.1,448.5,148.7,447.5,148.7z
		 M447.5,145.5h-0.3v2.5h0.3c0.7,0,1.2-0.6,1.2-1.2C448.7,146.1,448.2,145.5,447.5,145.5z"/>
	<path id="XMLID_286_" class="st2" d="M450.8,149.6l-0.5-0.3c0.1-0.2,0.2-0.4,0.2-0.6v-0.7h0.8v0.6
		C451.3,148.9,451.1,149.3,450.8,149.6z"/>
	<path id="XMLID_288_" class="st2" d="M456,148.8c-1.2,0-2-0.8-2-2c0-1.2,0.9-2,2-2c0.6,0,1,0.2,1.4,0.6l-0.5,0.6
		c-0.3-0.3-0.6-0.4-0.9-0.4c-0.7,0-1.1,0.5-1.1,1.3c0,0.8,0.4,1.3,1.1,1.3c0.5,0,0.7-0.2,1-0.4l0.5,0.6
		C457.1,148.6,456.6,148.8,456,148.8z"/>
	<path id="XMLID_290_" class="st2" d="M459.9,145.5v3.2h-0.9v-3.2h-0.8v-0.7h2.4v0.7H459.9z"/>
	<path id="XMLID_292_" class="st2" d="M465.7,148.7v-1.6h-1.4v1.6h-0.9v-3.9h0.9v1.6h1.4v-1.6h0.9v3.9H465.7z"/>
	<path id="XMLID_294_" class="st2" d="M469.7,147.1v1.6h-0.9v-1.6l-1.3-2.3h1l0.7,1.4c0,0.1,0.1,0.2,0.1,0.2s0-0.1,0.1-0.2l0.7-1.4
		h1L469.7,147.1z"/>
	<path id="XMLID_296_" class="st2" d="M473.5,148.7H472v-3.9h1.4c0.8,0,1.4,0.4,1.4,1.1c0,0.4-0.3,0.7-0.6,0.8
		c0.5,0.1,0.8,0.5,0.8,0.9C474.9,148.3,474.4,148.7,473.5,148.7z M473.3,145.5h-0.4v0.9h0.4c0.4,0,0.6-0.2,0.6-0.5
		C473.9,145.6,473.6,145.5,473.3,145.5z M473.5,147.2h-0.6v0.8h0.6c0.4,0,0.6-0.2,0.6-0.4S473.8,147.2,473.5,147.2z"/>
	<path id="XMLID_300_" class="st2" d="M478,148.7l-1.1-1.9v1.9H476v-3.9h1.4c0.8,0,1.3,0.5,1.3,1.2c0,0.6-0.4,1-0.9,1.1l1,1.6H478z
		 M477.4,145.5h-0.5v0.9h0.5c0.3,0,0.5-0.2,0.5-0.5C477.9,145.7,477.7,145.5,477.4,145.5z"/>
	<path id="XMLID_303_" class="st2" d="M480,148.7v-3.9h0.9v3.9H480z"/>
</g>
<g id="XMLID_232_">
	<path id="XMLID_233_" class="st2" d="M483.5,148.7h-1.2v-3.9h1.2c1.1,0,2,0.7,2,2C485.5,148.1,484.5,148.7,483.5,148.7z
		 M483.5,145.5h-0.3v2.5h0.3c0.7,0,1.2-0.6,1.2-1.2C484.6,146.1,484.2,145.5,483.5,145.5z"/>
</g>
<g id="XMLID_159_">
	<path id="XMLID_160_" class="st2" d="M368,125.8v-3.9h0.9v3.2h1.4v0.7H368z"/>
	<path id="XMLID_162_" class="st2" d="M372.5,125.9c-0.5,0-0.9-0.2-1.3-0.5l0.4-0.6c0.2,0.2,0.6,0.3,0.9,0.3c0.4,0,0.5-0.1,0.5-0.4
		c0-0.4-0.7-0.5-1-0.7c-0.4-0.2-0.7-0.5-0.7-1.1c0-0.8,0.7-1.1,1.4-1.1c0.4,0,0.8,0.1,1.1,0.3l-0.4,0.6c-0.2-0.1-0.5-0.2-0.7-0.2
		c-0.4,0-0.5,0.2-0.5,0.4c0,0.4,0.5,0.5,1,0.7c0.4,0.2,0.8,0.4,0.8,1.1C373.9,125.5,373.3,125.9,372.5,125.9z"/>
	<path id="XMLID_164_" class="st2" d="M375.2,126.7l-0.5-0.3c0.1-0.2,0.2-0.4,0.2-0.6V125h0.8v0.6
		C375.7,126,375.5,126.4,375.2,126.7z"/>
	<path id="XMLID_166_" class="st2" d="M378.5,125.8v-3.9h0.9v3.2h1.4v0.7H378.5z"/>
	<path id="XMLID_168_" class="st2" d="M383,125.9c-0.5,0-0.9-0.2-1.3-0.5l0.4-0.6c0.2,0.2,0.6,0.3,0.9,0.3c0.4,0,0.5-0.1,0.5-0.4
		c0-0.4-0.7-0.5-1-0.7c-0.4-0.2-0.7-0.5-0.7-1.1c0-0.8,0.7-1.1,1.4-1.1c0.4,0,0.8,0.1,1.1,0.3l-0.4,0.6c-0.2-0.1-0.5-0.2-0.7-0.2
		c-0.4,0-0.5,0.2-0.5,0.4c0,0.4,0.5,0.5,1,0.7c0.4,0.2,0.8,0.4,0.8,1.1C384.4,125.5,383.8,125.9,383,125.9z"/>
	<path id="XMLID_170_" class="st2" d="M389.5,125.8v-1.6h-1.4v1.6h-0.9v-3.9h0.9v1.6h1.4v-1.6h0.9v3.9H389.5z"/>
	<path id="XMLID_172_" class="st2" d="M393.5,124.2v1.6h-0.9v-1.6l-1.3-2.3h1l0.7,1.4c0,0.1,0.1,0.2,0.1,0.2s0-0.1,0.1-0.2l0.7-1.4
		h1L393.5,124.2z"/>
	<path id="XMLID_174_" class="st2" d="M397.3,125.8h-1.5v-3.9h1.4c0.8,0,1.4,0.4,1.4,1.1c0,0.4-0.3,0.7-0.6,0.8
		c0.5,0.1,0.8,0.5,0.8,0.9C398.7,125.4,398.1,125.8,397.3,125.8z M397.1,122.6h-0.4v0.9h0.4c0.4,0,0.6-0.2,0.6-0.5
		C397.7,122.7,397.4,122.6,397.1,122.6z M397.3,124.3h-0.6v0.8h0.6c0.4,0,0.6-0.2,0.6-0.4S397.6,124.3,397.3,124.3z"/>
	<path id="XMLID_178_" class="st2" d="M401.8,125.8l-1.1-1.9v1.9h-0.9v-3.9h1.4c0.8,0,1.3,0.5,1.3,1.2c0,0.6-0.4,1-0.9,1.1l1,1.6
		H401.8z M401.2,122.6h-0.5v0.9h0.5c0.3,0,0.5-0.2,0.5-0.5C401.7,122.8,401.5,122.6,401.2,122.6z"/>
	<path id="XMLID_181_" class="st2" d="M403.8,125.8v-3.9h0.9v3.9H403.8z"/>
	<path id="XMLID_183_" class="st2" d="M407.1,125.8h-1.2v-3.9h1.2c1.1,0,2,0.7,2,2C409.1,125.1,408.1,125.8,407.1,125.8z
		 M407.1,122.6h-0.3v2.5h0.3c0.7,0,1.2-0.6,1.2-1.2C408.3,123.2,407.8,122.6,407.1,122.6z"/>
	<path id="XMLID_186_" class="st2" d="M410.4,126.7l-0.5-0.3c0.1-0.2,0.2-0.4,0.2-0.6V125h0.8v0.6
		C410.9,126,410.7,126.4,410.4,126.7z"/>
	<path id="XMLID_188_" class="st2" d="M413.7,125.8v-3.9h0.9v3.9H413.7z"/>
	<path id="XMLID_190_" class="st2" d="M417,125.9c-0.5,0-0.9-0.2-1.3-0.5l0.4-0.6c0.2,0.2,0.6,0.3,0.9,0.3c0.4,0,0.5-0.1,0.5-0.4
		c0-0.4-0.7-0.5-1-0.7c-0.4-0.2-0.7-0.5-0.7-1.1c0-0.8,0.7-1.1,1.4-1.1c0.4,0,0.8,0.1,1.1,0.3l-0.4,0.6c-0.2-0.1-0.5-0.2-0.7-0.2
		c-0.4,0-0.5,0.2-0.5,0.4c0,0.4,0.5,0.5,1,0.7c0.4,0.2,0.8,0.4,0.8,1.1C418.4,125.5,417.9,125.9,417,125.9z"/>
	<path id="XMLID_192_" class="st2" d="M421.2,125.8v-3.9h0.9v3.9H421.2z"/>
	<path id="XMLID_194_" class="st2" d="M424.5,125.9c-0.5,0-0.9-0.2-1.3-0.5l0.4-0.6c0.2,0.2,0.6,0.3,0.9,0.3c0.4,0,0.5-0.1,0.5-0.4
		c0-0.4-0.7-0.5-1-0.7c-0.4-0.2-0.7-0.5-0.7-1.1c0-0.8,0.7-1.1,1.4-1.1c0.4,0,0.8,0.1,1.1,0.3l-0.4,0.6c-0.2-0.1-0.5-0.2-0.7-0.2
		c-0.4,0-0.5,0.2-0.5,0.4c0,0.4,0.5,0.5,1,0.7c0.4,0.2,0.8,0.4,0.8,1.1C425.9,125.5,425.4,125.9,424.5,125.9z"/>
	<path id="XMLID_196_" class="st2" d="M429.6,122.6v0.9h1.2v0.7h-1.2v1.5h-0.9v-3.9h2.1v0.7H429.6z"/>
	<path id="XMLID_198_" class="st2" d="M432.2,126.7l-0.5-0.3c0.1-0.2,0.2-0.4,0.2-0.6V125h0.8v0.6
		C432.7,126,432.5,126.4,432.2,126.7z"/>
	<path id="XMLID_200_" class="st2" d="M437.4,125.9c-1.2,0-2-0.8-2-2c0-1.2,0.9-2,2-2c0.7,0,1.2,0.3,1.5,0.6l-0.5,0.5
		c-0.2-0.3-0.6-0.4-1-0.4c-0.7,0-1.1,0.6-1.1,1.3c0,0.7,0.5,1.3,1.2,1.3c0.5,0,0.8-0.2,1-0.6h-1v-0.7h2
		C439.3,125.1,438.4,125.9,437.4,125.9z"/>
	<path id="XMLID_202_" class="st2" d="M442.6,125.8l-0.8-1.4l-0.8,1.4h-1l1.3-2.1l-1.1-1.8h1l0.6,1l0.6-1h1l-1.1,1.8l1.3,2.1H442.6z
		"/>
	<path id="XMLID_204_" class="st2" d="M444.8,126.7l-0.5-0.3c0.1-0.2,0.2-0.4,0.2-0.6V125h0.8v0.6C445.2,126,445,126.4,444.8,126.7z
		"/>
	<path id="XMLID_206_" class="st2" d="M449.9,125.9c-1.2,0-2-0.8-2-2c0-1.2,0.9-2,2-2c0.7,0,1.2,0.3,1.5,0.6l-0.5,0.5
		c-0.2-0.3-0.6-0.4-1-0.4c-0.7,0-1.1,0.6-1.1,1.3c0,0.7,0.5,1.3,1.2,1.3c0.5,0,0.8-0.2,1-0.6h-1v-0.7h1.9
		C451.8,125.1,451,125.9,449.9,125.9z"/>
	<path id="XMLID_208_" class="st2" d="M454,125.9c-0.5,0-0.9-0.2-1.3-0.5l0.4-0.6c0.2,0.2,0.6,0.3,0.9,0.3c0.4,0,0.5-0.1,0.5-0.4
		c0-0.4-0.7-0.5-1-0.7c-0.4-0.2-0.7-0.5-0.7-1.1c0-0.8,0.7-1.1,1.4-1.1c0.4,0,0.8,0.1,1.1,0.3l-0.4,0.6c-0.2-0.1-0.5-0.2-0.7-0.2
		c-0.4,0-0.5,0.2-0.5,0.4c0,0.4,0.5,0.5,1,0.7c0.4,0.2,0.8,0.4,0.8,1.1C455.4,125.5,454.9,125.9,454,125.9z"/>
	<path id="XMLID_210_" class="st2" d="M456.8,126.7l-0.5-0.3c0.1-0.2,0.2-0.4,0.2-0.6V125h0.8v0.6C457.2,126,457,126.4,456.8,126.7z
		"/>
	<path id="XMLID_212_" class="st2" d="M461.9,125.9c-1.2,0-2-0.8-2-2c0-1.2,0.9-2,2-2c0.7,0,1.2,0.3,1.5,0.6l-0.5,0.5
		c-0.2-0.3-0.6-0.4-1-0.4c-0.7,0-1.1,0.6-1.1,1.3c0,0.7,0.5,1.3,1.2,1.3c0.5,0,0.8-0.2,1-0.6h-1v-0.7h1.9
		C463.8,125.1,463,125.9,461.9,125.9z"/>
	<path id="XMLID_214_" class="st2" d="M466,125.9c-0.5,0-0.9-0.2-1.3-0.5l0.4-0.6c0.2,0.2,0.6,0.3,0.9,0.3c0.4,0,0.5-0.1,0.5-0.4
		c0-0.4-0.7-0.5-1-0.7c-0.4-0.2-0.7-0.5-0.7-1.1c0-0.8,0.7-1.1,1.4-1.1c0.4,0,0.8,0.1,1.1,0.3l-0.4,0.6c-0.2-0.1-0.5-0.2-0.7-0.2
		c-0.4,0-0.5,0.2-0.5,0.4c0,0.4,0.5,0.5,1,0.7c0.4,0.2,0.8,0.4,0.8,1.1C467.4,125.5,466.8,125.9,466,125.9z"/>
	<path id="XMLID_216_" class="st2" d="M472.4,125.8v-1.6h-1.4v1.6h-0.9v-3.9h0.9v1.6h1.4v-1.6h0.9v3.9H472.4z"/>
	<path id="XMLID_218_" class="st2" d="M476.5,124.2v1.6h-0.9v-1.6l-1.3-2.3h1l0.7,1.4c0,0.1,0.1,0.2,0.1,0.2s0-0.1,0.1-0.2l0.7-1.4
		h1L476.5,124.2z"/>
	<path id="XMLID_220_" class="st2" d="M480.3,125.8h-1.5v-3.9h1.4c0.8,0,1.4,0.4,1.4,1.1c0,0.4-0.3,0.7-0.6,0.8
		c0.5,0.1,0.8,0.5,0.8,0.9C481.7,125.4,481.1,125.8,480.3,125.8z M480,122.6h-0.4v0.9h0.4c0.4,0,0.6-0.2,0.6-0.5
		C480.6,122.7,480.4,122.6,480,122.6z M480.3,124.3h-0.6v0.8h0.6c0.4,0,0.6-0.2,0.6-0.4S480.6,124.3,480.3,124.3z"/>
	<path id="XMLID_224_" class="st2" d="M484.7,125.8l-1.1-1.9v1.9h-0.9v-3.9h1.4c0.8,0,1.3,0.5,1.3,1.2c0,0.6-0.4,1-0.9,1.1l1,1.6
		H484.7z M484.2,122.6h-0.5v0.9h0.5c0.3,0,0.5-0.2,0.5-0.5C484.7,122.8,484.5,122.6,484.2,122.6z"/>
	<path id="XMLID_227_" class="st2" d="M486.8,125.8v-3.9h0.9v3.9H486.8z"/>
	<path id="XMLID_229_" class="st2" d="M490.1,125.8h-1.2v-3.9h1.2c1.1,0,2,0.7,2,2C492.1,125.1,491.1,125.8,490.1,125.8z
		 M490.1,122.6h-0.3v2.5h0.3c0.7,0,1.2-0.6,1.2-1.2C491.2,123.2,490.8,122.6,490.1,122.6z"/>
</g>
<g id="XMLID_154_">
	<path id="XMLID_155_" class="st2" d="M368,102.9V99h0.9v3.2h1.4v0.7H368z"/>
	<path id="XMLID_157_" class="st2" d="M372.2,99.7v0.9h1.2v0.7h-1.2v1.5h-0.9V99h2.1v0.7H372.2z"/>
</g>
<g id="XMLID_150_">
	<path id="XMLID_151_" class="st2" d="M377,102.9l-0.3-1h-1.2l-0.3,1h-0.9l1.4-3.9h0.8l1.4,3.9H377z M376.2,100.2
		c0-0.1-0.1-0.3-0.1-0.3s0,0.2-0.1,0.3l-0.3,1h0.8L376.2,100.2z"/>
</g>
<g id="XMLID_146_">
	<path id="XMLID_147_" class="st2" d="M370,80l-1.1-1.9V80H368v-3.9h1.4c0.8,0,1.3,0.5,1.3,1.2c0,0.6-0.4,1-0.9,1.1l1,1.6H370z
		 M369.5,76.8h-0.5v0.9h0.5c0.3,0,0.5-0.2,0.5-0.5C369.9,77,369.7,76.8,369.5,76.8z"/>
</g>
<g id="XMLID_143_">
	<path id="XMLID_144_" class="st2" d="M374.3,80l-0.8-1.4l-0.8,1.4h-1l1.3-2.1l-1.1-1.8h1l0.6,1l0.6-1h1l-1.1,1.8l1.3,2.1H374.3z"/>
</g>
<g id="XMLID_140_">
	<path id="XMLID_141_" class="st2" d="M368,57.1v-3.9h2.3v0.7h-1.4v0.9h1.3v0.7h-1.3v0.8h1.5v0.7H368z"/>
</g>
<g id="XMLID_137_">
	<path id="XMLID_138_" class="st2" d="M372.7,57.1c-0.5,0-0.9-0.2-1.3-0.5l0.4-0.6c0.2,0.2,0.6,0.3,0.9,0.3c0.4,0,0.5-0.1,0.5-0.4
		c0-0.4-0.7-0.5-1-0.7c-0.4-0.2-0.7-0.5-0.7-1.1c0-0.8,0.7-1.1,1.4-1.1c0.4,0,0.8,0.1,1.1,0.3l-0.4,0.6c-0.2-0.1-0.5-0.2-0.7-0.2
		c-0.4,0-0.5,0.2-0.5,0.4c0,0.4,0.5,0.5,1,0.7c0.4,0.2,0.8,0.4,0.8,1.1C374.1,56.7,373.6,57.1,372.7,57.1z"/>
</g>
<g id="XMLID_94_">
	<path id="XMLID_95_" class="st2" d="M380.9,36.1v-4.6l-1.9,2.7h-0.3l-1.9-2.7v4.6h-0.5v-5.5h0.5l2,2.9l2-2.9h0.5v5.5H380.9z"/>
	<path id="XMLID_97_" class="st2" d="M386.3,36.2c-1.5,0-2.8-1.2-2.8-2.9c0-1.6,1.2-2.8,2.8-2.8c1.6,0,2.8,1.2,2.8,2.8
		C389.1,35,387.9,36.2,386.3,36.2z M386.3,31c-1.3,0-2.2,1-2.2,2.3c0,1.3,1,2.3,2.2,2.3s2.2-1,2.2-2.4C388.6,32,387.6,31,386.3,31z"
		/>
	<path id="XMLID_100_" class="st2" d="M392.5,36.1h-1.2v-5.5h1.3c1.7,0,2.9,1.1,2.9,2.7C395.4,35,394.2,36.1,392.5,36.1z
		 M392.6,31.1h-0.8v4.6h0.7c1.5,0,2.4-1,2.4-2.3C394.9,32,393.9,31.1,392.6,31.1z"/>
	<path id="XMLID_103_" class="st2" d="M397.6,36.1v-5.5h2.9v0.5h-2.4v2h2.2v0.5h-2.2v2.1h2.5v0.5H397.6z"/>
	<path id="XMLID_105_" class="st2" d="M402.9,36.1v-5.5h0.5v5h2.3v0.5H402.9z"/>
	<path id="XMLID_107_" class="st2" d="M409.1,36.2c-0.5,0-1.1-0.2-1.5-0.6l0.3-0.4c0.3,0.3,0.8,0.5,1.2,0.5c0.6,0,1.1-0.3,1.1-0.9
		c0-0.6-0.5-0.9-1.1-1.2c-0.7-0.4-1.4-0.7-1.4-1.7c0-0.8,0.6-1.4,1.5-1.4c0.6,0,1,0.2,1.4,0.5l-0.3,0.4c-0.3-0.3-0.6-0.4-1.1-0.4
		c-0.5,0-0.9,0.3-0.9,0.8c0,0.7,0.5,0.9,1.2,1.2c0.7,0.3,1.3,0.7,1.3,1.6C410.7,35.6,410,36.2,409.1,36.2z"/>
	<path id="XMLID_109_" class="st2" d="M419.9,36.1v-4.6l-1.9,2.7h-0.3l-1.9-2.7v4.6h-0.5v-5.5h0.5l2,2.9l2-2.9h0.5v5.5H419.9z"/>
	<path id="XMLID_111_" class="st2" d="M426.4,36.1l-0.7-2h-1.9l-0.7,2h-0.6l2.1-5.6h0.3l2.1,5.6H426.4z M424.8,31.5l-0.8,2.2h1.6
		L424.8,31.5z"/>
	<path id="XMLID_114_" class="st2" d="M433,36.1l-3.3-4.6v4.6h-0.5v-5.5h0.5l3.3,4.6v-4.6h0.5v5.5H433z"/>
	<path id="XMLID_116_" class="st2" d="M438,36.2c-1.2,0-2-0.8-2-2.1v-3.5h0.5v3.5c0,1,0.7,1.6,1.5,1.6c0.8,0,1.5-0.6,1.5-1.6v-3.5
		h0.5v3.5C440,35.4,439.1,36.2,438,36.2z"/>
	<path id="XMLID_118_" class="st2" d="M442.9,31.1v2h1.9v0.5h-1.9v2.6h-0.5v-5.5h2.6v0.5H442.9z"/>
	<path id="XMLID_120_" class="st2" d="M450.7,36.1l-0.7-2h-1.9l-0.7,2h-0.6l2.1-5.6h0.3l2.1,5.6H450.7z M449,31.5l-0.8,2.2h1.6
		L449,31.5z"/>
	<path id="XMLID_123_" class="st2" d="M455.9,36.2c-1.4,0-2.7-1.2-2.7-2.8c0-1.5,1.2-2.8,2.7-2.8c0.9,0,1.6,0.3,2,0.9l-0.4,0.3
		c-0.4-0.4-0.9-0.7-1.6-0.7c-1.2,0-2.1,1-2.1,2.3c0,1.4,1,2.4,2.1,2.4c0.7,0,1.3-0.3,1.7-0.8l0.4,0.3
		C457.6,35.7,456.9,36.2,455.9,36.2z"/>
	<path id="XMLID_125_" class="st2" d="M461.7,31.1v5h-0.5v-5h-1.3v-0.5h3.1v0.5H461.7z"/>
	<path id="XMLID_127_" class="st2" d="M467.1,36.2c-1.2,0-2-0.8-2-2.1v-3.5h0.5v3.5c0,1,0.7,1.6,1.5,1.6c0.8,0,1.5-0.6,1.5-1.6v-3.5
		h0.5v3.5C469.1,35.4,468.2,36.2,467.1,36.2z"/>
	<path id="XMLID_129_" class="st2" d="M474.3,36.1l-2.3-2.6v2.6h-0.5v-5.5h1.5c1,0,1.7,0.6,1.7,1.6c0,1-0.8,1.6-1.7,1.6h-0.1
		l2.1,2.4H474.3z M473,31.1h-1v2.2h0.9c0.7,0,1.3-0.4,1.3-1.2C474.2,31.5,473.7,31.1,473,31.1z"/>
	<path id="XMLID_132_" class="st2" d="M477.1,36.1v-5.5h2.9v0.5h-2.4v2h2.2v0.5h-2.2v2.1h2.5v0.5H477.1z"/>
	<path id="XMLID_134_" class="st2" d="M483.6,36.1h-1.2v-5.5h1.3c1.7,0,2.9,1.1,2.9,2.7C486.5,35,485.3,36.1,483.6,36.1z
		 M483.7,31.1h-0.8v4.6h0.7c1.5,0,2.4-1,2.4-2.3C486,32,485,31.1,483.7,31.1z"/>
</g>
<g id="XMLID_41_">
	<defs>
		<rect id="XMLID_2_" x="1" y="1" width="568" height="21.5"/>
	</defs>
	<clipPath id="XMLID_5_">
		<use xlink:href="#XMLID_2_"  style="overflow:visible;"/>
	</clipPath>
	<rect id="XMLID_3_" x="1" y="1" class="st3" width="568" height="21.5"/>
</g>
<g id="XMLID_53_">
	<path id="XMLID_54_" class="st2" d="M227.3,15.1V9.6h1.2v4.5h2v1H227.3z"/>
	<path id="XMLID_56_" class="st2" d="M232.5,15.1V9.6h3.2v1h-2v1.3h1.9v1h-1.9v1.2h2.1v1H232.5z"/>
	<path id="XMLID_58_" class="st2" d="M241.3,15.1l-1.1-1.9l-1.1,1.9h-1.3l1.8-3L238,9.6h1.3l0.8,1.4l0.8-1.4h1.4l-1.5,2.5l1.8,3
		H241.3z"/>
	<path id="XMLID_60_" class="st2" d="M247,15.2c-1.3,0-2.4-0.8-2.4-2.3V9.6h1.2v3.3c0,0.7,0.5,1.3,1.1,1.3c0.7,0,1.2-0.5,1.2-1.3
		V9.6h1.2v3.3C249.4,14.4,248.2,15.2,247,15.2z"/>
	<path id="XMLID_62_" class="st2" d="M253.3,15.2c-0.8,0-1.3-0.3-1.9-0.7l0.6-0.8c0.3,0.3,0.8,0.5,1.2,0.5c0.6,0,0.7-0.2,0.7-0.5
		c0-0.6-1-0.7-1.5-1c-0.6-0.3-1-0.6-1-1.5c0-1.1,1-1.6,2-1.6c0.5,0,1.1,0.1,1.6,0.5l-0.5,0.9c-0.2-0.2-0.6-0.3-1-0.3
		c-0.6,0-0.8,0.3-0.8,0.5c0,0.5,0.7,0.6,1.3,0.9c0.5,0.2,1.1,0.6,1.1,1.5C255.2,14.6,254.5,15.2,253.3,15.2z"/>
	<path id="XMLID_64_" class="st2" d="M264.7,15.1V12c0-0.2,0-0.4,0-0.4s0,0.1-0.1,0.2l-1.2,2.3H263l-1.3-2.3
		c-0.1-0.1-0.1-0.2-0.1-0.2s0,0.2,0,0.4v3.2h-1.2V9.6h1.2l1.5,2.7c0.1,0.1,0.1,0.2,0.1,0.2s0-0.1,0.1-0.2l1.4-2.7h1.2v5.5H264.7z"/>
	<path id="XMLID_66_" class="st2" d="M271.7,15.1l-0.4-1.4h-1.7l-0.4,1.4h-1.3l2-5.5h1.2l2,5.5H271.7z M270.5,11.4
		c-0.1-0.2-0.1-0.4-0.1-0.4s-0.1,0.2-0.1,0.4l-0.4,1.3h1.1L270.5,11.4z"/>
	<path id="XMLID_69_" class="st2" d="M278.7,15.1l-2.4-3.2c-0.1-0.1-0.1-0.2-0.1-0.2s0,0.1,0,0.3v3.2h-1.2V9.6h1l2.4,3.2
		c0.1,0.1,0.1,0.2,0.1,0.2s0-0.1,0-0.3V9.6h1.2v5.5H278.7z"/>
	<path id="XMLID_71_" class="st2" d="M284.5,15.2c-1.3,0-2.4-0.8-2.4-2.3V9.6h1.2v3.3c0,0.7,0.5,1.3,1.1,1.3c0.7,0,1.2-0.5,1.2-1.3
		V9.6h1.2v3.3C286.9,14.4,285.7,15.2,284.5,15.2z"/>
	<path id="XMLID_73_" class="st2" d="M290.4,10.6V12h1.6v1h-1.6v2.2h-1.2V9.6h3v1H290.4z"/>
	<path id="XMLID_75_" class="st2" d="M297.8,15.1l-0.4-1.4h-1.7l-0.4,1.4H294l2-5.5h1.2l2,5.5H297.8z M296.6,11.4
		c-0.1-0.2-0.1-0.4-0.1-0.4s-0.1,0.2-0.1,0.4l-0.4,1.3h1.1L296.6,11.4z"/>
	<path id="XMLID_79_" class="st2" d="M303.6,15.2c-1.7,0-2.8-1.1-2.8-2.9c0-1.7,1.2-2.8,2.8-2.8c0.8,0,1.4,0.2,2,0.8l-0.7,0.8
		c-0.4-0.4-0.8-0.6-1.3-0.6c-0.9,0-1.5,0.7-1.5,1.8c0,1.1,0.6,1.8,1.6,1.8c0.7,0,1-0.3,1.4-0.6l0.7,0.8
		C305.2,14.9,304.6,15.2,303.6,15.2z"/>
	<path id="XMLID_81_" class="st2" d="M309.7,10.6v4.5h-1.2v-4.5h-1.1v-1h3.4v1H309.7z"/>
	<path id="XMLID_83_" class="st2" d="M315.2,15.2c-1.3,0-2.4-0.8-2.4-2.3V9.6h1.2v3.3c0,0.7,0.5,1.3,1.1,1.3c0.7,0,1.2-0.5,1.2-1.3
		V9.6h1.2v3.3C317.6,14.4,316.5,15.2,315.2,15.2z"/>
	<path id="XMLID_85_" class="st2" d="M322.7,15.1l-1.5-2.6v2.6H320V9.6h2c1.2,0,1.9,0.7,1.9,1.6c0,0.8-0.5,1.4-1.2,1.6l1.5,2.3
		H322.7z M322,10.6h-0.8V12h0.8c0.4,0,0.7-0.3,0.7-0.7C322.7,10.9,322.4,10.6,322,10.6z"/>
	<path id="XMLID_88_" class="st2" d="M326.2,15.1V9.6h1.2v5.5H326.2z"/>
	<path id="XMLID_90_" class="st2" d="M333.5,15.1l-2.4-3.2c-0.1-0.1-0.1-0.2-0.1-0.2s0,0.1,0,0.3v3.2h-1.2V9.6h1l2.4,3.2
		c0.1,0.1,0.1,0.2,0.1,0.2s0-0.1,0-0.3V9.6h1.2v5.5H333.5z"/>
	<path id="XMLID_92_" class="st2" d="M339.5,15.2c-1.6,0-2.8-1.2-2.8-2.9c0-1.7,1.3-2.8,2.8-2.8c1,0,1.6,0.4,2.1,0.9l-0.7,0.7
		c-0.3-0.4-0.8-0.6-1.4-0.6c-0.9,0-1.6,0.8-1.6,1.8c0,1,0.7,1.8,1.6,1.8c0.7,0,1.1-0.3,1.4-0.8h-1.4v-1h2.7
		C342.2,14.2,341,15.2,339.5,15.2z"/>
</g>
</svg>
