<?xml version="1.0" encoding="utf-8"?>
<!-- Generator: Adobe Illustrator 19.0.0, SVG Export Plug-In . SVG Version: 6.00 Build 0)  -->
<svg version="1.1" id="Layer_1" xmlns="http://www.w3.org/2000/svg" xmlns:xlink="http://www.w3.org/1999/xlink" x="0px" y="0px"
	 viewBox="0 0 282 384" style="enable-background:new 0 0 282 384;" xml:space="preserve">
<style type="text/css">
	.st0{clip-path:url(#SVGID_2_);fill:none;stroke:#010101;stroke-width:2;stroke-miterlimit:10;}
	.st1{fill:none;stroke:#010101;stroke-linecap:square;stroke-miterlimit:10;}
	.st2{fill:#010101;}
	.st3{clip-path:url(#SVGID_4_);fill:none;stroke:#010101;stroke-width:2;stroke-miterlimit:10;}
</style>
<g>
	<defs>
		<rect id="SVGID_1_" x="1" y="44" width="280" height="339"/>
	</defs>
	<clipPath id="SVGID_2_">
		<use xlink:href="#SVGID_1_"  style="overflow:visible;"/>
	</clipPath>
	<rect x="1" y="44" class="st0" width="280" height="339"/>
</g>
<line class="st1" x1="2" y1="134.5" x2="280" y2="134.5"/>
<line class="st1" x1="2" y1="181.5" x2="280" y2="181.5"/>
<line class="st1" x1="2" y1="228.5" x2="280" y2="228.5"/>
<line class="st1" x1="2" y1="305.5" x2="280" y2="305.5"/>
<line class="st1" x1="2" y1="87.5" x2="280" y2="87.5"/>
<line class="st1" x1="140.5" y1="44.5" x2="140.5" y2="382.5"/>
<g id="XMLID_413_">
	<path id="XMLID_414_" class="st2" d="M15.9,333c0,0.6-0.2,1.1-0.6,1.5s-0.9,0.6-1.5,0.6c-0.6,0-1.1-0.2-1.5-0.6s-0.6-0.9-0.6-1.5
		v-0.8h0.7v0.8c0,0.8,0.6,1.4,1.4,1.4c0.8,0,1.4-0.6,1.4-1.4v-3.8c0-0.8-0.6-1.4-1.4-1.4c-0.8,0-1.4,0.6-1.4,1.4v0.1h-0.7v-5.6h4.2
		v0.7h-3.5v3.2c0.4-0.4,0.9-0.5,1.4-0.5c0.6,0,1.1,0.2,1.5,0.6s0.6,0.9,0.6,1.5V333z"/>
</g>
<g id="XMLID_393_">
	<path id="XMLID_394_" class="st2" d="M28.4,334l-2.3-3.3l-0.5,0.5v2.8h-1.8v-8h1.8v2.9l2.6-2.9h2.2l-3.1,3.4l3.3,4.6H28.4z"/>
	<path id="XMLID_396_" class="st2" d="M36.5,330.7v3.3h-1.8v-3.3L32,326h2l1.5,2.8c0.1,0.2,0.2,0.4,0.2,0.4s0.1-0.3,0.2-0.4l1.5-2.8
		h2L36.5,330.7z"/>
	<path id="XMLID_398_" class="st2" d="M44.6,334.1c-1.8,0-3.4-1.2-3.4-3.4V326h1.8v4.8c0,1.1,0.7,1.9,1.7,1.9c1,0,1.8-0.8,1.8-1.9
		V326h1.7v4.8C48.1,332.9,46.5,334.1,44.6,334.1z"/>
	<path id="XMLID_400_" class="st2" d="M53,334.1c-1.1,0-1.9-0.4-2.7-1l0.9-1.2c0.5,0.4,1.2,0.7,1.8,0.7c0.8,0,1-0.3,1-0.8
		c0-0.8-1.5-1.1-2.1-1.5c-0.8-0.4-1.4-0.9-1.4-2.2c0-1.7,1.4-2.3,2.9-2.3c0.8,0,1.7,0.2,2.3,0.7l-0.8,1.3c-0.4-0.3-0.9-0.5-1.5-0.5
		c-0.8,0-1.1,0.5-1.1,0.8c0,0.7,1,0.9,2,1.4c0.8,0.3,1.6,0.9,1.6,2.2C55.8,333.2,54.7,334.1,53,334.1z"/>
	<path id="XMLID_402_" class="st2" d="M62.8,334v-3.2H60v3.2h-1.8v-8H60v3.3h2.8V326h1.8v8H62.8z"/>
	<path id="XMLID_404_" class="st2" d="M70.6,334.1c-1.8,0-3.4-1.2-3.4-3.4V326h1.8v4.8c0,1.1,0.7,1.9,1.7,1.9c1,0,1.8-0.8,1.8-1.9
		V326h1.7v4.8C74.1,332.9,72.4,334.1,70.6,334.1z"/>
	<path id="XMLID_406_" class="st2" d="M77.1,335.8l-1-0.6c0.2-0.3,0.3-0.8,0.3-1.3v-1.5H78v1.3C78,334.4,77.6,335.1,77.1,335.8z"/>
	<path id="XMLID_408_" class="st2" d="M84.3,334h-0.9v-1.5H84c0.8,0,1.3-0.4,1.3-1.4V326H87v5.5C87,333,85.8,334,84.3,334z"/>
	<path id="XMLID_410_" class="st2" d="M92.3,330.8h-0.9v3.2h-1.8v-8h2.7c1.8,0,2.9,0.9,2.9,2.4C95.2,329.9,94.1,330.8,92.3,330.8z
		 M92.3,327.5h-0.9v1.9h0.9c0.8,0,1.2-0.3,1.2-1C93.4,327.7,93,327.5,92.3,327.5z"/>
</g>
<g id="XMLID_390_">
	<path id="XMLID_391_" class="st2" d="M102.9,334l-3.5-4.7c-0.1-0.2-0.2-0.3-0.2-0.3s0,0.2,0,0.4v4.6h-1.8v-8h1.5l3.5,4.6
		c0.1,0.2,0.2,0.3,0.2,0.3s0-0.2,0-0.4V326h1.8v8H102.9z"/>
</g>
<g id="XMLID_386_">
	<path id="XMLID_387_" class="st2" d="M15.6,253.5h-0.7v3.5h-0.7v-3.5h-2.8v-2.1l2.8-5.6h0.7v7h0.7V253.5z M14.2,252.8v-5.5
		l-2.1,4.2v1.3H14.2z"/>
</g>
<g id="XMLID_362_">
	<path id="XMLID_363_" class="st2" d="M26.7,250.5v6.5H25v-6.5h-1.6V249h4.9v1.5H26.7z"/>
	<path id="XMLID_365_" class="st2" d="M35.4,257l-0.6-2h-2.4l-0.6,2h-1.9l2.9-8h1.7l2.9,8H35.4z M33.7,251.5
		c-0.1-0.3-0.2-0.6-0.2-0.6s-0.1,0.4-0.2,0.6l-0.6,2h1.5L33.7,251.5z"/>
	<path id="XMLID_368_" class="st2" d="M43.8,257v-3.2h-2.8v3.2h-1.8v-8h1.8v3.3h2.8V249h1.8v8H43.8z"/>
	<path id="XMLID_370_" class="st2" d="M53.1,257l-0.6-2h-2.4l-0.6,2h-1.9l2.9-8h1.7l2.9,8H53.1z M51.5,251.5
		c-0.1-0.3-0.2-0.6-0.2-0.6s-0.1,0.4-0.2,0.6l-0.6,2h1.5L51.5,251.5z"/>
	<path id="XMLID_373_" class="st2" d="M61,257l-2.2-3.8v3.8H57v-8h2.9c1.7,0,2.8,1,2.8,2.4c0,1.2-0.7,2-1.8,2.3L63,257H61z
		 M59.9,250.5h-1.1v1.9h1.1c0.6,0,1-0.4,1-1C60.9,250.8,60.5,250.5,59.9,250.5z"/>
	<path id="XMLID_376_" class="st2" d="M70.1,257l-0.6-2H67l-0.6,2h-1.9l2.9-8h1.7l2.9,8H70.1z M68.4,251.5c-0.1-0.3-0.2-0.6-0.2-0.6
		s-0.1,0.4-0.2,0.6l-0.6,2H69L68.4,251.5z"/>
	<path id="XMLID_379_" class="st2" d="M74.4,258.8l-1-0.6c0.2-0.3,0.3-0.8,0.3-1.3v-1.5h1.6v1.3C75.3,257.4,74.9,258.1,74.4,258.8z"
		/>
	<path id="XMLID_381_" class="st2" d="M81.7,257h-0.9v-1.5h0.6c0.8,0,1.3-0.4,1.3-1.4V249h1.8v5.5C84.3,256,83.1,257,81.7,257z"/>
	<path id="XMLID_383_" class="st2" d="M89.6,253.8h-0.9v3.2h-1.8v-8h2.7c1.8,0,2.9,0.9,2.9,2.4C92.5,252.9,91.4,253.8,89.6,253.8z
		 M89.6,250.5h-0.9v1.9h0.9c0.8,0,1.2-0.3,1.2-1C90.7,250.7,90.4,250.5,89.6,250.5z"/>
</g>
<g id="XMLID_359_">
	<path id="XMLID_360_" class="st2" d="M100.2,257l-3.5-4.7c-0.1-0.2-0.2-0.3-0.2-0.3s0,0.2,0,0.4v4.6h-1.8v-8h1.5l3.5,4.6
		c0.1,0.2,0.2,0.3,0.2,0.3s0-0.2,0-0.4V249h1.8v8H100.2z"/>
</g>
<g id="XMLID_356_">
	<path id="XMLID_357_" class="st2" d="M14.9,210c0,0.6-0.2,1.1-0.6,1.5s-0.9,0.6-1.5,0.6c-0.6,0-1.1-0.2-1.5-0.6s-0.6-0.9-0.6-1.5
		v-0.8h0.7v0.8c0,0.8,0.6,1.4,1.4,1.4c0.8,0,1.4-0.6,1.4-1.4v-2.2c0-0.8-0.6-1.4-1.4-1.4H12v-0.7l2.1-4.2h-3.4v-0.7h4.2v0.7
		l-2.1,4.2c0.6,0,1.1,0.2,1.5,0.6s0.6,0.9,0.6,1.5V210z"/>
</g>
<g id="XMLID_327_">
	<path id="XMLID_328_" class="st2" d="M30.1,211v-4.6c0-0.3,0-0.6,0-0.6s-0.1,0.2-0.1,0.3l-1.8,3.3h-0.7l-1.8-3.3
		c-0.1-0.1-0.1-0.3-0.1-0.3s0,0.3,0,0.6v4.6h-1.8v-8h1.7l2.2,3.9c0.1,0.2,0.2,0.4,0.2,0.4s0.1-0.2,0.1-0.4l2-3.9h1.8v8H30.1z"/>
	<path id="XMLID_330_" class="st2" d="M38.2,211.1c-2.5,0-4.1-1.9-4.1-4.2c0-2.3,1.7-4.1,4.1-4.1c2.5,0,4.1,1.7,4.1,4.1
		C42.4,209.3,40.7,211.1,38.2,211.1z M38.3,204.4c-1.4,0-2.3,1.2-2.3,2.6c0,1.5,1.1,2.6,2.3,2.6c1.5,0,2.3-1.3,2.3-2.6
		C40.6,205.5,39.7,204.4,38.3,204.4z"/>
	<path id="XMLID_333_" class="st2" d="M47.6,204.5v6.5h-1.8v-6.5h-1.6V203h4.9v1.5H47.6z"/>
	<path id="XMLID_335_" class="st2" d="M55,211.1c-2.5,0-4.1-1.9-4.1-4.2c0-2.3,1.7-4.1,4.1-4.1c2.5,0,4.1,1.7,4.1,4.1
		C59.2,209.3,57.5,211.1,55,211.1z M55.1,204.4c-1.4,0-2.3,1.2-2.3,2.6c0,1.5,1.1,2.6,2.3,2.6c1.5,0,2.3-1.3,2.3-2.6
		C57.4,205.5,56.5,204.4,55.1,204.4z"/>
	<path id="XMLID_338_" class="st2" d="M67.7,211v-4.6c0-0.3,0-0.6,0-0.6s-0.1,0.2-0.1,0.3l-1.8,3.3h-0.7l-1.8-3.3
		c-0.1-0.1-0.1-0.3-0.1-0.3s0,0.3,0,0.6v4.6h-1.8v-8h1.7l2.2,3.9c0.1,0.2,0.2,0.4,0.2,0.4s0.1-0.2,0.1-0.4l2-3.9h1.8v8H67.7z"/>
	<path id="XMLID_340_" class="st2" d="M77,211l-0.6-2h-2.4l-0.6,2h-1.9l2.9-8H76l2.9,8H77z M75.3,205.5c-0.1-0.3-0.2-0.6-0.2-0.6
		s-0.1,0.4-0.2,0.6l-0.6,2h1.5L75.3,205.5z"/>
	<path id="XMLID_343_" class="st2" d="M84.6,211.1c-2.4,0-4.1-1.6-4.1-4.2c0-2.4,1.8-4.1,4.1-4.1c1.2,0,2.1,0.3,2.9,1.2l-1,1.2
		c-0.5-0.5-1.2-0.8-1.9-0.8c-1.4,0-2.3,1.1-2.3,2.6c0,1.7,0.8,2.7,2.3,2.7c1,0,1.5-0.4,2-0.9l1,1.2C86.9,210.6,86,211.1,84.6,211.1z
		"/>
	<path id="XMLID_345_" class="st2" d="M94.4,211v-3.2h-2.8v3.2h-1.8v-8h1.8v3.3h2.8V203h1.8v8H94.4z"/>
	<path id="XMLID_347_" class="st2" d="M98.8,211v-8h1.8v8H98.8z"/>
	<path id="XMLID_349_" class="st2" d="M103.6,212.8l-1-0.6c0.2-0.3,0.3-0.8,0.3-1.3v-1.5h1.6v1.3
		C104.5,211.4,104.1,212.1,103.6,212.8z"/>
	<path id="XMLID_351_" class="st2" d="M110.9,211h-0.9v-1.5h0.6c0.8,0,1.3-0.4,1.3-1.4V203h1.8v5.5C113.5,210,112.3,211,110.9,211z"
		/>
	<path id="XMLID_353_" class="st2" d="M118.8,207.8h-0.9v3.2h-1.8v-8h2.7c1.8,0,2.9,0.9,2.9,2.4
		C121.7,206.9,120.6,207.8,118.8,207.8z M118.8,204.5h-0.9v1.9h0.9c0.8,0,1.2-0.3,1.2-1C120,204.7,119.6,204.5,118.8,204.5z"/>
</g>
<g id="XMLID_324_">
	<path id="XMLID_325_" class="st2" d="M129.4,211l-3.5-4.7c-0.1-0.2-0.2-0.3-0.2-0.3s0,0.2,0,0.4v4.6h-1.8v-8h1.5l3.5,4.6
		c0.1,0.2,0.2,0.3,0.2,0.3s0-0.2,0-0.4V203h1.8v8H129.4z"/>
</g>
<g id="XMLID_321_">
	<path id="XMLID_322_" class="st2" d="M14.9,163h-4.2v-2.8c0-0.8,0.3-1.5,0.9-2.2l1.7-1.6c0.6-0.6,0.9-1.2,0.9-1.9v-0.8
		c0-0.8-0.6-1.4-1.4-1.4c-0.8,0-1.4,0.6-1.4,1.4v0.8h-0.7v-0.8c0-0.6,0.2-1.1,0.6-1.5s0.9-0.6,1.5-0.6c0.6,0,1.1,0.2,1.5,0.6
		s0.6,0.9,0.6,1.5v0.8c0,0.8-0.3,1.5-0.9,2.2l-1.7,1.6c-0.6,0.6-0.9,1.2-0.9,1.9v2.1h3.5V163z"/>
</g>
<g id="XMLID_288_">
	<path id="XMLID_289_" class="st2" d="M27.5,163.1c-2.4,0-4.1-1.6-4.1-4.2c0-2.4,1.8-4.1,4.1-4.1c1.2,0,2.1,0.3,2.9,1.2l-1,1.2
		c-0.5-0.5-1.2-0.8-1.9-0.8c-1.4,0-2.3,1.1-2.3,2.6c0,1.7,0.8,2.7,2.3,2.7c1,0,1.5-0.4,2-0.9l1,1.2
		C29.8,162.6,28.9,163.1,27.5,163.1z"/>
	<path id="XMLID_291_" class="st2" d="M37.6,163l-0.6-2h-2.4l-0.6,2h-1.9l2.9-8h1.7l2.9,8H37.6z M36,157.5c-0.1-0.3-0.2-0.6-0.2-0.6
		s-0.1,0.4-0.2,0.6l-0.6,2h1.5L36,157.5z"/>
	<path id="XMLID_294_" class="st2" d="M47.8,163v-4.6c0-0.3,0-0.6,0-0.6s-0.1,0.2-0.1,0.3l-1.8,3.3h-0.7l-1.8-3.3
		c-0.1-0.1-0.1-0.3-0.1-0.3s0,0.3,0,0.6v4.6h-1.8v-8h1.7l2.2,3.9c0.1,0.2,0.2,0.4,0.2,0.4s0.1-0.2,0.1-0.4l2-3.9h1.8v8H47.8z"/>
	<path id="XMLID_296_" class="st2" d="M55.3,163h-3v-8H55c1.7,0,2.8,0.8,2.8,2.2c0,0.8-0.5,1.5-1.2,1.7c0.9,0.1,1.6,1,1.6,1.9
		C58.2,162.2,57.1,163,55.3,163z M54.8,156.5H54v1.9h0.9c0.8,0,1.2-0.3,1.2-1C56.1,156.7,55.6,156.5,54.8,156.5z M55.3,159.8H54v1.7
		h1.3c0.8,0,1.1-0.3,1.1-0.9C56.4,160.1,56,159.8,55.3,159.8z"/>
	<path id="XMLID_300_" class="st2" d="M64.4,163l-2.2-3.8v3.8h-1.8v-8h2.9c1.7,0,2.8,1,2.8,2.4c0,1.2-0.7,2-1.8,2.3l2.1,3.4H64.4z
		 M63.3,156.5h-1.1v1.9h1.1c0.6,0,1-0.4,1-1C64.3,156.8,63.9,156.5,63.3,156.5z"/>
	<path id="XMLID_303_" class="st2" d="M68.6,163v-8h1.8v8H68.6z"/>
	<path id="XMLID_305_" class="st2" d="M75.4,163H73v-8h2.4c2.3,0,4.2,1.4,4.2,4C79.6,161.6,77.5,163,75.4,163z M75.4,156.5h-0.7v5.1
		h0.7c1.5,0,2.4-1.2,2.4-2.5C77.8,157.6,76.8,156.5,75.4,156.5z"/>
	<path id="XMLID_308_" class="st2" d="M85.6,163.1c-2.4,0-4.1-1.7-4.1-4.2c0-2.5,1.8-4.1,4.1-4.1c1.4,0,2.4,0.5,3.1,1.3l-1.1,1.1
		c-0.5-0.5-1.2-0.8-2-0.8c-1.3,0-2.3,1.2-2.3,2.6c0,1.4,1,2.6,2.4,2.6c1,0,1.7-0.4,2-1.2h-2V159h4C89.5,161.6,87.8,163.1,85.6,163.1
		z"/>
	<path id="XMLID_310_" class="st2" d="M91.7,163v-8h4.7v1.5h-2.9v1.9h2.7v1.5h-2.7v1.7h3.1v1.5H91.7z"/>
	<path id="XMLID_312_" class="st2" d="M99.4,164.8l-1-0.6c0.2-0.3,0.3-0.8,0.3-1.3v-1.5h1.6v1.3C100.3,163.4,99.9,164.1,99.4,164.8z
		"/>
	<path id="XMLID_314_" class="st2" d="M109.9,163.1c-2.5,0-4.1-1.9-4.1-4.2c0-2.3,1.7-4.1,4.1-4.1c2.5,0,4.1,1.7,4.1,4.1
		C114.1,161.3,112.4,163.1,109.9,163.1z M109.9,156.4c-1.4,0-2.3,1.2-2.3,2.6c0,1.5,1.1,2.6,2.3,2.6c1.5,0,2.3-1.3,2.3-2.6
		C112.3,157.5,111.3,156.4,109.9,156.4z"/>
	<path id="XMLID_317_" class="st2" d="M121.8,163l-3.5-4.7c-0.1-0.2-0.2-0.3-0.2-0.3s0,0.2,0,0.4v4.6h-1.8v-8h1.5l3.5,4.6
		c0.1,0.2,0.2,0.3,0.2,0.3s0-0.2,0-0.4V155h1.8v8H121.8z"/>
	<path id="XMLID_319_" class="st2" d="M128.9,156.5v6.5h-1.8v-6.5h-1.6V155h4.9v1.5H128.9z"/>
</g>
<g id="XMLID_285_">
	<path id="XMLID_286_" class="st2" d="M14.9,116h-3.3v-0.7H13v-9.1h-1.3v-0.7h2v9.8h1.3V116z"/>
</g>
<g id="XMLID_261_">
	<path id="XMLID_262_" class="st2" d="M23.8,116v-8h1.8v6.5h2.9v1.5H23.8z"/>
	<path id="XMLID_264_" class="st2" d="M30.6,116v-8h4.7v1.5h-2.9v1.9h2.7v1.5h-2.7v1.7h3.1v1.5H30.6z"/>
	<path id="XMLID_266_" class="st2" d="M42.6,116l-1.6-2.8l-1.6,2.8h-2l2.6-4.4l-2.2-3.7h1.9l1.2,2.1l1.2-2.1h2l-2.2,3.7l2.6,4.4
		H42.6z"/>
	<path id="XMLID_268_" class="st2" d="M46.6,116v-8h1.8v8H46.6z"/>
	<path id="XMLID_270_" class="st2" d="M56.5,116l-3.5-4.7c-0.1-0.2-0.2-0.3-0.2-0.3s0,0.2,0,0.4v4.6H51v-8h1.5l3.5,4.6
		c0.1,0.2,0.2,0.3,0.2,0.3s0-0.2,0-0.4V108H58v8H56.5z"/>
	<path id="XMLID_272_" class="st2" d="M64.4,116.1c-2.4,0-4.1-1.7-4.1-4.2c0-2.5,1.8-4.1,4.1-4.1c1.4,0,2.4,0.5,3.1,1.3l-1.1,1.1
		c-0.5-0.5-1.2-0.8-2-0.8c-1.3,0-2.3,1.2-2.3,2.6c0,1.4,1,2.6,2.4,2.6c1,0,1.7-0.4,2-1.2h-2V112h4C68.3,114.6,66.6,116.1,64.4,116.1
		z"/>
	<path id="XMLID_274_" class="st2" d="M73.4,109.5v6.5h-1.8v-6.5H70V108H75v1.5H73.4z"/>
	<path id="XMLID_276_" class="st2" d="M80.9,116.1c-2.5,0-4.1-1.9-4.1-4.2c0-2.3,1.7-4.1,4.1-4.1c2.5,0,4.1,1.7,4.1,4.1
		C85,114.3,83.4,116.1,80.9,116.1z M80.9,109.4c-1.4,0-2.3,1.2-2.3,2.6c0,1.5,1.1,2.6,2.3,2.6c1.5,0,2.3-1.3,2.3-2.6
		C83.2,110.5,82.3,109.4,80.9,109.4z"/>
	<path id="XMLID_279_" class="st2" d="M92.8,116l-3.5-4.7c-0.1-0.2-0.2-0.3-0.2-0.3s0,0.2,0,0.4v4.6h-1.8v-8h1.5l3.5,4.6
		c0.1,0.2,0.2,0.3,0.2,0.3s0-0.2,0-0.4V108h1.8v8H92.8z"/>
	<path id="XMLID_281_" class="st2" d="M97.4,117.8l-1-0.6c0.2-0.3,0.3-0.8,0.3-1.3v-1.5h1.6v1.3C98.2,116.4,97.8,117.1,97.4,117.8z"
		/>
	<path id="XMLID_283_" class="st2" d="M108.7,116l-2.3-3.3l-0.5,0.5v2.8h-1.8v-8h1.8v2.9l2.6-2.9h2.2l-3.1,3.4l3.3,4.6H108.7z"/>
</g>
<g id="XMLID_258_">
	<path id="XMLID_259_" class="st2" d="M116.9,112.7v3.3h-1.8v-3.3l-2.7-4.8h2l1.5,2.8c0.1,0.2,0.2,0.4,0.2,0.4s0.1-0.3,0.2-0.4
		l1.5-2.8h2L116.9,112.7z"/>
</g>
<g id="XMLID_243_">
	<path id="XMLID_244_" class="st2" d="M44.2,68.3h-2V73h-1.1V61.7H44c2.4,0,3.7,1.4,3.7,3.3C47.8,66.8,46.3,68.3,44.2,68.3z
		 M43.9,62.7h-1.6v4.6h1.8c1.7,0,2.6-1,2.6-2.4C46.7,63.5,45.7,62.7,43.9,62.7z"/>
	<path id="XMLID_247_" class="st2" d="M52.1,73V61.7h1.1V72h4.8v1H52.1z"/>
	<path id="XMLID_249_" class="st2" d="M69.4,73l-1.5-4H64l-1.5,4h-1.1l4.3-11.4h0.7L70.6,73H69.4z M65.9,63.5L64.3,68h3.2L65.9,63.5
		z"/>
	<path id="XMLID_252_" class="st2" d="M82.9,73l-6.8-9.5V73h-1.1V61.7h1.1l6.7,9.4v-9.4h1.1V73H82.9z"/>
	<path id="XMLID_254_" class="st2" d="M91.9,62.7V73h-1.1V62.7h-2.6v-1h6.4v1H91.9z"/>
	<path id="XMLID_256_" class="st2" d="M101.5,73.2c-1.1,0-2.2-0.4-3.1-1.2l0.7-0.8c0.7,0.6,1.6,0.9,2.4,0.9c1.2,0,2.2-0.7,2.2-1.9
		c0-1.3-1.1-1.9-2.3-2.5c-1.5-0.7-2.9-1.5-2.9-3.4c0-1.7,1.3-2.8,3-2.8c1.2,0,2.1,0.3,3,1.1l-0.7,0.8c-0.7-0.7-1.3-0.9-2.3-0.9
		c-1,0-1.9,0.6-1.9,1.7c0,1.3,1,1.8,2.5,2.5c1.4,0.7,2.7,1.4,2.7,3.4C104.8,72,103.3,73.2,101.5,73.2z"/>
</g>
<g id="XMLID_214_">
	<path id="XMLID_215_" class="st2" d="M150.8,334v-8h4.7v1.5h-2.9v1.9h2.7v1.5h-2.7v1.7h3.1v1.5H150.8z"/>
	<path id="XMLID_217_" class="st2" d="M160.4,334.1c-1.1,0-1.9-0.4-2.7-1l0.9-1.2c0.5,0.4,1.2,0.7,1.8,0.7c0.8,0,1-0.3,1-0.8
		c0-0.8-1.5-1.1-2.1-1.5c-0.8-0.4-1.4-0.9-1.4-2.2c0-1.7,1.4-2.3,2.9-2.3c0.8,0,1.7,0.2,2.3,0.7l-0.8,1.3c-0.4-0.3-0.9-0.5-1.5-0.5
		c-0.8,0-1.1,0.5-1.1,0.8c0,0.7,1,0.9,2,1.4c0.8,0.3,1.6,0.9,1.6,2.2C163.2,333.2,162.1,334.1,160.4,334.1z"/>
	<path id="XMLID_219_" class="st2" d="M166,335.8l-1-0.6c0.2-0.3,0.3-0.8,0.3-1.3v-1.5h1.6v1.3C166.9,334.4,166.5,335.1,166,335.8z"
		/>
	<path id="XMLID_221_" class="st2" d="M172.8,334v-8h1.8v8H172.8z"/>
	<path id="XMLID_223_" class="st2" d="M179.5,334.1c-1.1,0-1.9-0.4-2.7-1l0.9-1.2c0.5,0.4,1.2,0.7,1.8,0.7c0.8,0,1-0.3,1-0.8
		c0-0.8-1.5-1.1-2.1-1.5c-0.8-0.4-1.4-0.9-1.4-2.2c0-1.7,1.4-2.3,2.9-2.3c0.8,0,1.7,0.2,2.3,0.7l-0.8,1.3c-0.4-0.3-0.9-0.5-1.5-0.5
		c-0.8,0-1.1,0.5-1.1,0.8c0,0.7,1,0.9,2,1.4c0.8,0.3,1.6,0.9,1.6,2.2C182.3,333.2,181.3,334.1,179.5,334.1z"/>
	<path id="XMLID_225_" class="st2" d="M185.2,335.8l-1-0.6c0.2-0.3,0.3-0.8,0.3-1.3v-1.5h1.6v1.3C186,334.4,185.7,335.1,185.2,335.8
		z"/>
	<path id="XMLID_227_" class="st2" d="M191.9,334v-8h1.8v8H191.9z"/>
	<path id="XMLID_229_" class="st2" d="M198.6,334.1c-1.1,0-1.9-0.4-2.7-1l0.9-1.2c0.5,0.4,1.2,0.7,1.8,0.7c0.8,0,1-0.3,1-0.8
		c0-0.8-1.5-1.1-2.1-1.5c-0.8-0.4-1.4-0.9-1.4-2.2c0-1.7,1.4-2.3,2.9-2.3c0.8,0,1.7,0.2,2.3,0.7l-0.8,1.3c-0.4-0.3-0.9-0.5-1.5-0.5
		c-0.8,0-1.1,0.5-1.1,0.8c0,0.7,1,0.9,2,1.4c0.8,0.3,1.6,0.9,1.6,2.2C201.5,333.2,200.4,334.1,198.6,334.1z"/>
	<path id="XMLID_231_" class="st2" d="M209.1,327.5v1.9h2.4v1.5h-2.4v3.1h-1.8v-8h4.3v1.5H209.1z"/>
	<path id="XMLID_233_" class="st2" d="M214.5,335.8l-1-0.6c0.2-0.3,0.3-0.8,0.3-1.3v-1.5h1.6v1.3C215.4,334.4,215,335.1,214.5,335.8
		z"/>
	<path id="XMLID_235_" class="st2" d="M221.2,334v-8h1.8v8H221.2z"/>
	<path id="XMLID_237_" class="st2" d="M227.9,334.1c-1.1,0-1.9-0.4-2.7-1l0.9-1.2c0.5,0.4,1.2,0.7,1.8,0.7c0.8,0,1-0.3,1-0.8
		c0-0.8-1.5-1.1-2.1-1.5c-0.8-0.4-1.4-0.9-1.4-2.2c0-1.7,1.4-2.3,2.9-2.3c0.8,0,1.7,0.2,2.3,0.7l-0.8,1.3c-0.4-0.3-0.9-0.5-1.5-0.5
		c-0.8,0-1.1,0.5-1.1,0.8c0,0.7,1,0.9,2,1.4c0.8,0.3,1.6,0.9,1.6,2.2C230.8,333.2,229.7,334.1,227.9,334.1z"/>
	<path id="XMLID_239_" class="st2" d="M240.3,334.1c-2.4,0-4.1-1.6-4.1-4.2c0-2.4,1.8-4.1,4.1-4.1c1.2,0,2.1,0.3,2.9,1.2l-1,1.2
		c-0.5-0.5-1.2-0.8-1.9-0.8c-1.4,0-2.3,1.1-2.3,2.6c0,1.7,0.8,2.7,2.3,2.7c1,0,1.5-0.4,2-0.9l1,1.2
		C242.6,333.6,241.7,334.1,240.3,334.1z"/>
	<path id="XMLID_241_" class="st2" d="M246,335.8l-1-0.6c0.2-0.3,0.3-0.8,0.3-1.3v-1.5h1.6v1.3C246.8,334.4,246.4,335.1,246,335.8z"
		/>
</g>
<g id="XMLID_190_">
	<path id="XMLID_191_" class="st2" d="M154.8,349l-2.2-3.8v3.8h-1.8v-8h2.9c1.7,0,2.8,1,2.8,2.4c0,1.2-0.7,2-1.8,2.3l2.1,3.4H154.8z
		 M153.7,342.5h-1.1v1.9h1.1c0.6,0,1-0.4,1-1C154.7,342.8,154.3,342.5,153.7,342.5z"/>
	<path id="XMLID_194_" class="st2" d="M163.6,349l-1.6-2.8l-1.6,2.8h-2l2.6-4.4l-2.2-3.7h1.9l1.2,2.1l1.2-2.1h2l-2.2,3.7l2.6,4.4
		H163.6z"/>
	<path id="XMLID_196_" class="st2" d="M175.7,349v-3.2h-2.8v3.2h-1.8v-8h1.8v3.3h2.8V341h1.8v8H175.7z"/>
	<path id="XMLID_198_" class="st2" d="M183.9,345.7v3.3h-1.8v-3.3l-2.7-4.8h2l1.5,2.8c0.1,0.2,0.2,0.4,0.2,0.4s0.1-0.3,0.2-0.4
		l1.5-2.8h2L183.9,345.7z"/>
	<path id="XMLID_200_" class="st2" d="M191.7,349h-3v-8h2.8c1.7,0,2.8,0.8,2.8,2.2c0,0.8-0.5,1.5-1.2,1.7c0.9,0.1,1.6,1,1.6,1.9
		C194.6,348.2,193.5,349,191.7,349z M191.2,342.5h-0.9v1.9h0.9c0.8,0,1.2-0.3,1.2-1C192.5,342.7,192,342.5,191.2,342.5z
		 M191.7,345.8h-1.3v1.7h1.3c0.8,0,1.1-0.3,1.1-0.9C192.8,346.1,192.4,345.8,191.7,345.8z"/>
	<path id="XMLID_204_" class="st2" d="M200.9,349l-2.2-3.8v3.8h-1.8v-8h2.9c1.7,0,2.8,1,2.8,2.4c0,1.2-0.7,2-1.8,2.3l2.1,3.4H200.9z
		 M199.8,342.5h-1.1v1.9h1.1c0.6,0,1-0.4,1-1C200.8,342.8,200.3,342.5,199.8,342.5z"/>
	<path id="XMLID_207_" class="st2" d="M205,349v-8h1.8v8H205z"/>
	<path id="XMLID_209_" class="st2" d="M211.8,349h-2.4v-8h2.4c2.3,0,4.2,1.4,4.2,4C216,347.6,214,349,211.8,349z M211.8,342.5h-0.7
		v5.1h0.7c1.5,0,2.4-1.2,2.4-2.5C214.2,343.6,213.2,342.5,211.8,342.5z"/>
	<path id="XMLID_212_" class="st2" d="M218.7,350.8l-1-0.6c0.2-0.3,0.3-0.8,0.3-1.3v-1.5h1.6v1.3
		C219.6,349.4,219.2,350.1,218.7,350.8z"/>
</g>
<g id="XMLID_172_">
	<path id="XMLID_173_" class="st2" d="M154.5,364.1c-2.4,0-4.1-1.6-4.1-4.2c0-2.4,1.8-4.1,4.1-4.1c1.2,0,2.1,0.3,2.9,1.2l-1,1.2
		c-0.5-0.5-1.2-0.8-1.9-0.8c-1.4,0-2.3,1.1-2.3,2.6c0,1.7,0.8,2.7,2.3,2.7c1,0,1.5-0.4,2-0.9l1,1.2
		C156.8,363.6,155.9,364.1,154.5,364.1z"/>
	<path id="XMLID_175_" class="st2" d="M162.7,357.5v6.5h-1.8v-6.5h-1.6V356h4.9v1.5H162.7z"/>
	<path id="XMLID_177_" class="st2" d="M174.4,364v-3.2h-2.8v3.2h-1.8v-8h1.8v3.3h2.8V356h1.8v8H174.4z"/>
	<path id="XMLID_179_" class="st2" d="M182.6,360.7v3.3h-1.8v-3.3l-2.7-4.8h2l1.5,2.8c0.1,0.2,0.2,0.4,0.2,0.4s0.1-0.3,0.2-0.4
		l1.5-2.8h2L182.6,360.7z"/>
	<path id="XMLID_181_" class="st2" d="M190.4,364h-3v-8h2.8c1.7,0,2.8,0.8,2.8,2.2c0,0.8-0.5,1.5-1.2,1.7c0.9,0.1,1.6,1,1.6,1.9
		C193.4,363.2,192.3,364,190.4,364z M190,357.5h-0.9v1.9h0.9c0.8,0,1.2-0.3,1.2-1C191.2,357.7,190.8,357.5,190,357.5z M190.4,360.8
		h-1.3v1.7h1.3c0.8,0,1.1-0.3,1.1-0.9C191.6,361.1,191.2,360.8,190.4,360.8z"/>
	<path id="XMLID_185_" class="st2" d="M199.6,364l-2.2-3.8v3.8h-1.8v-8h2.9c1.7,0,2.8,1,2.8,2.4c0,1.2-0.7,2-1.8,2.3l2.1,3.4H199.6z
		 M198.5,357.5h-1.1v1.9h1.1c0.6,0,1-0.4,1-1C199.5,357.8,199.1,357.5,198.5,357.5z"/>
	<path id="XMLID_188_" class="st2" d="M203.8,364v-8h1.8v8H203.8z"/>
</g>
<g id="XMLID_168_">
	<path id="XMLID_169_" class="st2" d="M210.7,364h-2.4v-8h2.4c2.3,0,4.2,1.4,4.2,4C214.9,362.6,212.8,364,210.7,364z M210.7,357.5
		H210v5.1h0.7c1.5,0,2.4-1.2,2.4-2.5C213.1,358.6,212.1,357.5,210.7,357.5z"/>
</g>
<g id="XMLID_139_">
	<path id="XMLID_140_" class="st2" d="M150.8,257v-8h1.8v6.5h2.9v1.5H150.8z"/>
	<path id="XMLID_142_" class="st2" d="M159.9,257.1c-1.1,0-1.9-0.4-2.7-1l0.9-1.2c0.5,0.4,1.2,0.7,1.8,0.7c0.8,0,1-0.3,1-0.8
		c0-0.8-1.5-1.1-2.1-1.5c-0.8-0.4-1.4-0.9-1.4-2.2c0-1.7,1.4-2.3,2.9-2.3c0.8,0,1.7,0.2,2.3,0.7l-0.8,1.3c-0.4-0.3-0.9-0.5-1.5-0.5
		c-0.8,0-1.1,0.5-1.1,0.8c0,0.7,1,0.9,2,1.4c0.8,0.3,1.6,0.9,1.6,2.2C162.8,256.2,161.7,257.1,159.9,257.1z"/>
	<path id="XMLID_144_" class="st2" d="M165.6,258.8l-1-0.6c0.2-0.3,0.3-0.8,0.3-1.3v-1.5h1.6v1.3
		C166.5,257.4,166.1,258.1,165.6,258.8z"/>
	<path id="XMLID_146_" class="st2" d="M172.4,257v-8h1.8v6.5h2.9v1.5H172.4z"/>
	<path id="XMLID_148_" class="st2" d="M181.5,257.1c-1.1,0-1.9-0.4-2.7-1l0.9-1.2c0.5,0.4,1.2,0.7,1.8,0.7c0.8,0,1-0.3,1-0.8
		c0-0.8-1.5-1.1-2.1-1.5c-0.8-0.4-1.4-0.9-1.4-2.2c0-1.7,1.4-2.3,2.9-2.3c0.8,0,1.7,0.2,2.3,0.7l-0.8,1.3c-0.4-0.3-0.9-0.5-1.5-0.5
		c-0.8,0-1.1,0.5-1.1,0.8c0,0.7,1,0.9,2,1.4c0.8,0.3,1.6,0.9,1.6,2.2C184.3,256.2,183.2,257.1,181.5,257.1z"/>
	<path id="XMLID_150_" class="st2" d="M194.7,257v-3.2h-2.8v3.2h-1.8v-8h1.8v3.3h2.8V249h1.8v8H194.7z"/>
	<path id="XMLID_152_" class="st2" d="M202.9,253.7v3.3h-1.8v-3.3l-2.7-4.8h2l1.5,2.8c0.1,0.2,0.2,0.4,0.2,0.4s0.1-0.3,0.2-0.4
		l1.5-2.8h2L202.9,253.7z"/>
	<path id="XMLID_154_" class="st2" d="M210.7,257h-3v-8h2.8c1.7,0,2.8,0.8,2.8,2.2c0,0.8-0.5,1.5-1.2,1.7c0.9,0.1,1.6,1,1.6,1.9
		C213.7,256.2,212.5,257,210.7,257z M210.3,250.5h-0.9v1.9h0.9c0.8,0,1.2-0.3,1.2-1C211.5,250.7,211.1,250.5,210.3,250.5z
		 M210.7,253.8h-1.3v1.7h1.3c0.8,0,1.1-0.3,1.1-0.9C211.9,254.1,211.5,253.8,210.7,253.8z"/>
	<path id="XMLID_158_" class="st2" d="M219.9,257l-2.2-3.8v3.8h-1.8v-8h2.9c1.7,0,2.8,1,2.8,2.4c0,1.2-0.7,2-1.8,2.3l2.1,3.4H219.9z
		 M218.8,250.5h-1.1v1.9h1.1c0.6,0,1-0.4,1-1C219.8,250.8,219.4,250.5,218.8,250.5z"/>
	<path id="XMLID_161_" class="st2" d="M224.1,257v-8h1.8v8H224.1z"/>
	<path id="XMLID_163_" class="st2" d="M230.9,257h-2.4v-8h2.4c2.3,0,4.2,1.4,4.2,4C235.1,255.6,233,257,230.9,257z M230.9,250.5
		h-0.7v5.1h0.7c1.5,0,2.4-1.2,2.4-2.5C233.3,251.6,232.3,250.5,230.9,250.5z"/>
	<path id="XMLID_166_" class="st2" d="M237.8,258.8l-1-0.6c0.2-0.3,0.3-0.8,0.3-1.3v-1.5h1.6v1.3
		C238.6,257.4,238.3,258.1,237.8,258.8z"/>
</g>
<g id="XMLID_112_">
	<path id="XMLID_113_" class="st2" d="M150.8,272v-8h1.8v8H150.8z"/>
	<path id="XMLID_115_" class="st2" d="M157.5,272.1c-1.1,0-1.9-0.4-2.7-1l0.9-1.2c0.5,0.4,1.2,0.7,1.8,0.7c0.8,0,1-0.3,1-0.8
		c0-0.8-1.5-1.1-2.1-1.5c-0.8-0.4-1.4-0.9-1.4-2.2c0-1.7,1.4-2.3,2.9-2.3c0.8,0,1.7,0.2,2.3,0.7l-0.8,1.3c-0.4-0.3-0.9-0.5-1.5-0.5
		c-0.8,0-1.1,0.5-1.1,0.8c0,0.7,1,0.9,2,1.4c0.8,0.3,1.6,0.9,1.6,2.2C160.3,271.2,159.3,272.1,157.5,272.1z"/>
	<path id="XMLID_117_" class="st2" d="M163.2,273.8l-1-0.6c0.2-0.3,0.3-0.8,0.3-1.3v-1.5h1.6v1.3C164,272.4,163.7,273.1,163.2,273.8
		z"/>
	<path id="XMLID_119_" class="st2" d="M169.9,272v-8h1.8v8H169.9z"/>
	<path id="XMLID_121_" class="st2" d="M176.6,272.1c-1.1,0-1.9-0.4-2.7-1l0.9-1.2c0.5,0.4,1.2,0.7,1.8,0.7c0.8,0,1-0.3,1-0.8
		c0-0.8-1.5-1.1-2.1-1.5c-0.8-0.4-1.4-0.9-1.4-2.2c0-1.7,1.4-2.3,2.9-2.3c0.8,0,1.7,0.2,2.3,0.7l-0.8,1.3c-0.4-0.3-0.9-0.5-1.5-0.5
		c-0.8,0-1.1,0.5-1.1,0.8c0,0.7,1,0.9,2,1.4c0.8,0.3,1.6,0.9,1.6,2.2C179.5,271.2,178.4,272.1,176.6,272.1z"/>
	<path id="XMLID_123_" class="st2" d="M187.1,265.5v1.9h2.4v1.5h-2.4v3.1h-1.8v-8h4.3v1.5H187.1z"/>
	<path id="XMLID_125_" class="st2" d="M192.5,273.8l-1-0.6c0.2-0.3,0.3-0.8,0.3-1.3v-1.5h1.6v1.3C193.4,272.4,193,273.1,192.5,273.8
		z"/>
	<path id="XMLID_127_" class="st2" d="M203,272.1c-2.4,0-4.1-1.7-4.1-4.2c0-2.5,1.8-4.1,4.1-4.1c1.4,0,2.4,0.5,3.1,1.3l-1.1,1.1
		c-0.5-0.5-1.2-0.8-2-0.8c-1.3,0-2.3,1.2-2.3,2.6c0,1.4,1,2.6,2.4,2.6c1,0,1.7-0.4,2-1.2h-2V268h4
		C206.9,270.6,205.2,272.1,203,272.1z"/>
	<path id="XMLID_129_" class="st2" d="M213.7,272l-1.6-2.8l-1.6,2.8h-2l2.6-4.4l-2.2-3.7h1.9l1.2,2.1l1.2-2.1h2l-2.2,3.7l2.6,4.4
		H213.7z"/>
	<path id="XMLID_131_" class="st2" d="M218.2,273.8l-1-0.6c0.2-0.3,0.3-0.8,0.3-1.3v-1.5h1.6v1.3
		C219.1,272.4,218.7,273.1,218.2,273.8z"/>
	<path id="XMLID_133_" class="st2" d="M228.7,272.1c-2.4,0-4.1-1.7-4.1-4.2c0-2.5,1.8-4.1,4.1-4.1c1.4,0,2.4,0.5,3.1,1.3l-1.1,1.1
		c-0.5-0.5-1.2-0.8-2-0.8c-1.3,0-2.3,1.2-2.3,2.6c0,1.4,1,2.6,2.4,2.6c1,0,1.7-0.4,2-1.2h-2V268h4
		C232.6,270.6,230.9,272.1,228.7,272.1z"/>
	<path id="XMLID_135_" class="st2" d="M237.1,272.1c-1.1,0-1.9-0.4-2.7-1l0.9-1.2c0.5,0.4,1.2,0.7,1.8,0.7c0.8,0,1-0.3,1-0.8
		c0-0.8-1.5-1.1-2.1-1.5c-0.8-0.4-1.4-0.9-1.4-2.2c0-1.7,1.4-2.3,2.9-2.3c0.8,0,1.7,0.2,2.3,0.7l-0.8,1.3c-0.4-0.3-0.9-0.5-1.5-0.5
		c-0.8,0-1.1,0.5-1.1,0.8c0,0.7,1,0.9,2,1.4c0.8,0.3,1.6,0.9,1.6,2.2C239.9,271.2,238.9,272.1,237.1,272.1z"/>
	<path id="XMLID_137_" class="st2" d="M242.8,273.8l-1-0.6c0.2-0.3,0.3-0.8,0.3-1.3v-1.5h1.6v1.3
		C243.6,272.4,243.2,273.1,242.8,273.8z"/>
</g>
<g id="XMLID_91_">
	<path id="XMLID_92_" class="st2" d="M154.6,287.1c-2.4,0-4.1-1.7-4.1-4.2c0-2.5,1.8-4.1,4.1-4.1c1.4,0,2.4,0.5,3.1,1.3l-1.1,1.1
		c-0.5-0.5-1.2-0.8-2-0.8c-1.3,0-2.3,1.2-2.3,2.6c0,1.4,1,2.6,2.4,2.6c1,0,1.7-0.4,2-1.2h-2V283h4
		C158.5,285.6,156.7,287.1,154.6,287.1z"/>
	<path id="XMLID_94_" class="st2" d="M163,287.1c-1.1,0-1.9-0.4-2.7-1l0.9-1.2c0.5,0.4,1.2,0.7,1.8,0.7c0.8,0,1-0.3,1-0.8
		c0-0.8-1.5-1.1-2.1-1.5c-0.8-0.4-1.4-0.9-1.4-2.2c0-1.7,1.4-2.3,2.9-2.3c0.8,0,1.7,0.2,2.3,0.7l-0.8,1.3c-0.4-0.3-0.9-0.5-1.5-0.5
		c-0.8,0-1.1,0.5-1.1,0.8c0,0.7,1,0.9,2,1.4c0.8,0.3,1.6,0.9,1.6,2.2C165.8,286.2,164.7,287.1,163,287.1z"/>
	<path id="XMLID_96_" class="st2" d="M176.2,287v-3.2h-2.8v3.2h-1.8v-8h1.8v3.3h2.8V279h1.8v8H176.2z"/>
	<path id="XMLID_98_" class="st2" d="M184.4,283.7v3.3h-1.8v-3.3l-2.7-4.8h2l1.5,2.8c0.1,0.2,0.2,0.4,0.2,0.4s0.1-0.3,0.2-0.4
		l1.5-2.8h2L184.4,283.7z"/>
	<path id="XMLID_100_" class="st2" d="M192.2,287h-3v-8h2.8c1.7,0,2.8,0.8,2.8,2.2c0,0.8-0.5,1.5-1.2,1.7c0.9,0.1,1.6,1,1.6,1.9
		C195.2,286.2,194,287,192.2,287z M191.8,280.5h-0.9v1.9h0.9c0.8,0,1.2-0.3,1.2-1C193,280.7,192.6,280.5,191.8,280.5z M192.2,283.8
		h-1.3v1.7h1.3c0.8,0,1.1-0.3,1.1-0.9C193.4,284.1,193,283.8,192.2,283.8z"/>
	<path id="XMLID_104_" class="st2" d="M201.4,287l-2.2-3.8v3.8h-1.8v-8h2.9c1.7,0,2.8,1,2.8,2.4c0,1.2-0.7,2-1.8,2.3l2.1,3.4H201.4z
		 M200.3,280.5h-1.1v1.9h1.1c0.6,0,1-0.4,1-1C201.3,280.8,200.9,280.5,200.3,280.5z"/>
	<path id="XMLID_107_" class="st2" d="M205.6,287v-8h1.8v8H205.6z"/>
	<path id="XMLID_109_" class="st2" d="M212.4,287H210v-8h2.4c2.3,0,4.2,1.4,4.2,4C216.6,285.6,214.5,287,212.4,287z M212.4,280.5
		h-0.7v5.1h0.7c1.5,0,2.4-1.2,2.4-2.5C214.8,281.6,213.8,280.5,212.4,280.5z"/>
</g>
<g id="XMLID_86_">
	<path id="XMLID_87_" class="st2" d="M150.8,210v-8h1.8v6.5h2.9v1.5H150.8z"/>
	<path id="XMLID_89_" class="st2" d="M159.4,203.5v1.9h2.4v1.5h-2.4v3.1h-1.8v-8h4.3v1.5H159.4z"/>
</g>
<g id="XMLID_82_">
	<path id="XMLID_83_" class="st2" d="M169.3,210l-0.6-2h-2.4l-0.6,2h-1.9l2.9-8h1.7l2.9,8H169.3z M167.6,204.5
		c-0.1-0.3-0.2-0.6-0.2-0.6s-0.1,0.4-0.2,0.6l-0.6,2h1.5L167.6,204.5z"/>
</g>
<g id="XMLID_78_">
	<path id="XMLID_79_" class="st2" d="M154.8,163l-2.2-3.8v3.8h-1.8v-8h2.9c1.7,0,2.8,1,2.8,2.4c0,1.2-0.7,2-1.8,2.3l2.1,3.4H154.8z
		 M153.7,156.5h-1.1v1.9h1.1c0.6,0,1-0.4,1-1C154.7,156.8,154.3,156.5,153.7,156.5z"/>
</g>
<g id="XMLID_75_">
	<path id="XMLID_76_" class="st2" d="M163.6,163l-1.6-2.8l-1.6,2.8h-2l2.6-4.4l-2.2-3.7h1.9l1.2,2.1l1.2-2.1h2l-2.2,3.7l2.6,4.4
		H163.6z"/>
</g>
<g id="XMLID_72_">
	<path id="XMLID_73_" class="st2" d="M150.8,116v-8h4.7v1.5h-2.9v1.9h2.7v1.5h-2.7v1.7h3.1v1.5H150.8z"/>
</g>
<g id="XMLID_69_">
	<path id="XMLID_70_" class="st2" d="M160.4,116.1c-1.1,0-1.9-0.4-2.7-1l0.9-1.2c0.5,0.4,1.2,0.7,1.8,0.7c0.8,0,1-0.3,1-0.8
		c0-0.8-1.5-1.1-2.1-1.5c-0.8-0.4-1.4-0.9-1.4-2.2c0-1.7,1.4-2.3,2.9-2.3c0.8,0,1.7,0.2,2.3,0.7l-0.8,1.3c-0.4-0.3-0.9-0.5-1.5-0.5
		c-0.8,0-1.1,0.5-1.1,0.8c0,0.7,1,0.9,2,1.4c0.8,0.3,1.6,0.9,1.6,2.2C163.2,115.2,162.2,116.1,160.4,116.1z"/>
</g>
<g id="XMLID_54_">
	<path id="XMLID_55_" class="st2" d="M184,73v-9.5l-3.8,5.5h-0.5l-3.8-5.5V73h-1.1V61.7h1.1l4.1,5.9l4-5.9h1.1V73H184z"/>
	<path id="XMLID_57_" class="st2" d="M195.2,73.2c-3.2,0-5.7-2.5-5.7-5.9c0-3.3,2.5-5.8,5.7-5.8c3.3,0,5.7,2.5,5.7,5.8
		C200.9,70.6,198.4,73.2,195.2,73.2z M195.2,62.5c-2.6,0-4.5,2.1-4.5,4.8c0,2.8,2,4.8,4.6,4.8c2.5,0,4.5-2,4.5-4.8
		C199.8,64.6,197.8,62.5,195.2,62.5z"/>
	<path id="XMLID_60_" class="st2" d="M207.9,73h-2.5V61.7h2.6c3.5,0,6,2.2,6,5.6C213.9,70.7,211.4,73,207.9,73z M208,62.6h-1.6V72
		h1.5c3.1,0,4.9-2.1,4.9-4.8C212.8,64.5,210.8,62.6,208,62.6z"/>
	<path id="XMLID_63_" class="st2" d="M218.4,73V61.7h6v1h-4.9v4.1h4.6v1h-4.6V72h5.2v1H218.4z"/>
	<path id="XMLID_65_" class="st2" d="M229.2,73V61.7h1.1V72h4.8v1H229.2z"/>
	<path id="XMLID_67_" class="st2" d="M241.9,73.2c-1.1,0-2.2-0.4-3.1-1.2l0.7-0.8c0.7,0.6,1.5,0.9,2.5,0.9c1.2,0,2.2-0.7,2.2-1.9
		c0-1.3-1.1-1.9-2.3-2.5c-1.5-0.7-2.9-1.5-2.9-3.4c0-1.7,1.3-2.8,3-2.8c1.2,0,2.1,0.3,3,1.1l-0.7,0.8c-0.7-0.7-1.3-0.9-2.3-0.9
		c-1,0-1.9,0.6-1.9,1.7c0,1.3,1,1.8,2.5,2.5c1.4,0.7,2.7,1.4,2.7,3.4C245.2,72,243.6,73.2,241.9,73.2z"/>
</g>
<g>
	<defs>
		<rect id="SVGID_3_" x="1" y="1" width="280" height="44"/>
	</defs>
	<clipPath id="SVGID_4_">
		<use xlink:href="#SVGID_3_"  style="overflow:visible;"/>
	</clipPath>
	<rect x="1" y="1" class="st3" width="280" height="44"/>
</g>
<g id="XMLID_14_">
	<path id="XMLID_15_" class="st2" d="M22.6,30V18.7h2.5v9.2h4V30H22.6z"/>
	<path id="XMLID_17_" class="st2" d="M33.4,30V18.7H40v2.1h-4.1v2.7h3.8v2.1h-3.8v2.4h4.3V30H33.4z"/>
	<path id="XMLID_19_" class="st2" d="M51.3,30L49,26l-2.3,4H44l3.6-6.2l-3.1-5.1h2.7l1.7,3l1.6-3h2.8l-3,5.1l3.7,6.2H51.3z"/>
	<path id="XMLID_21_" class="st2" d="M63,30.2c-2.6,0-4.8-1.7-4.8-4.8v-6.7h2.5v6.7c0,1.5,1,2.6,2.3,2.6c1.4,0,2.5-1.1,2.5-2.6v-6.7
		h2.5v6.7C67.9,28.5,65.6,30.2,63,30.2z"/>
	<path id="XMLID_23_" class="st2" d="M76,30.2c-1.6,0-2.7-0.6-3.8-1.4l1.3-1.7c0.7,0.5,1.6,1,2.6,1c1.1,0,1.4-0.4,1.4-1.1
		c0-1.1-2.1-1.5-3-2c-1.1-0.6-2-1.3-2-3.1c0-2.3,2-3.3,4-3.3c1.1,0,2.4,0.3,3.3,1l-1.1,1.8c-0.5-0.4-1.3-0.7-2.2-0.7
		c-1.1,0-1.6,0.7-1.6,1.1c0,1,1.4,1.3,2.8,1.9c1.1,0.5,2.3,1.3,2.3,3.1C80,28.9,78.4,30.2,76,30.2z"/>
	<path id="XMLID_25_" class="st2" d="M99.4,30v-6.5c0-0.4,0-0.8,0-0.8s-0.1,0.3-0.2,0.4l-2.5,4.6h-0.9l-2.6-4.6
		c-0.1-0.2-0.2-0.4-0.2-0.4s0,0.4,0,0.8V30h-2.5V18.7H93l3.1,5.5c0.1,0.2,0.2,0.5,0.2,0.5s0.1-0.3,0.2-0.5l2.9-5.5h2.5V30H99.4z"/>
	<path id="XMLID_27_" class="st2" d="M113.7,30l-0.9-2.9h-3.4l-0.9,2.9h-2.6l4-11.3h2.4l4.1,11.3H113.7z M111.3,22.3
		c-0.1-0.4-0.2-0.9-0.2-0.9s-0.1,0.5-0.2,0.9l-0.9,2.8h2.2L111.3,22.3z"/>
	<path id="XMLID_30_" class="st2" d="M128.1,30l-5-6.6c-0.2-0.2-0.3-0.5-0.3-0.5s0,0.3,0,0.6V30h-2.5V18.7h2.1l5,6.5
		c0.2,0.2,0.3,0.5,0.3,0.5s0-0.3,0-0.6v-6.4h2.5V30H128.1z"/>
	<path id="XMLID_32_" class="st2" d="M139.9,30.2c-2.6,0-4.8-1.7-4.8-4.8v-6.7h2.5v6.7c0,1.5,1,2.6,2.3,2.6c1.4,0,2.5-1.1,2.5-2.6
		v-6.7h2.5v6.7C144.8,28.5,142.5,30.2,139.9,30.2z"/>
	<path id="XMLID_34_" class="st2" d="M152.1,20.8v2.7h3.3v2.1h-3.3V30h-2.5V18.7h6.1v2.1H152.1z"/>
	<path id="XMLID_36_" class="st2" d="M167.2,30l-0.9-2.9h-3.4L162,30h-2.6l4-11.3h2.4l4.1,11.3H167.2z M164.9,22.3
		c-0.1-0.4-0.2-0.9-0.2-0.9s-0.1,0.5-0.2,0.9l-0.9,2.8h2.2L164.9,22.3z"/>
	<path id="XMLID_39_" class="st2" d="M179.1,30.2c-3.4,0-5.8-2.3-5.8-5.9c0-3.4,2.6-5.8,5.7-5.8c1.7,0,2.9,0.5,4.1,1.7l-1.4,1.6
		c-0.8-0.8-1.6-1.1-2.7-1.1c-1.9,0-3.2,1.5-3.2,3.6c0,2.3,1.1,3.7,3.2,3.7c1.4,0,2.1-0.6,2.9-1.3l1.4,1.6
		C182.4,29.5,181.1,30.2,179.1,30.2z"/>
	<path id="XMLID_41_" class="st2" d="M191.7,20.8V30h-2.5v-9.2H187v-2.1h6.9v2.1H191.7z"/>
	<path id="XMLID_43_" class="st2" d="M203,30.2c-2.6,0-4.8-1.7-4.8-4.8v-6.7h2.5v6.7c0,1.5,1,2.6,2.3,2.6c1.4,0,2.5-1.1,2.5-2.6
		v-6.7h2.5v6.7C207.9,28.5,205.6,30.2,203,30.2z"/>
	<path id="XMLID_45_" class="st2" d="M218.4,30l-3.1-5.3V30h-2.5V18.7h4.1c2.4,0,3.9,1.4,3.9,3.4c0,1.7-1,2.8-2.5,3.2l3,4.7H218.4z
		 M216.8,20.8h-1.6v2.7h1.6c0.9,0,1.4-0.6,1.4-1.4C218.2,21.3,217.6,20.8,216.8,20.8z"/>
	<path id="XMLID_48_" class="st2" d="M225.4,30V18.7h2.5V30H225.4z"/>
	<path id="XMLID_50_" class="st2" d="M240.5,30l-5-6.6c-0.2-0.2-0.3-0.5-0.3-0.5s0,0.3,0,0.6V30h-2.5V18.7h2.1l5,6.5
		c0.2,0.2,0.3,0.5,0.3,0.5s0-0.3,0-0.6v-6.4h2.5V30H240.5z"/>
	<path id="XMLID_52_" class="st2" d="M252.8,30.2c-3.4,0-5.8-2.4-5.8-5.9c0-3.5,2.6-5.8,5.8-5.8c2,0,3.4,0.8,4.4,1.8l-1.5,1.5
		c-0.7-0.8-1.7-1.2-2.8-1.2c-1.9,0-3.3,1.7-3.3,3.6c0,2,1.4,3.7,3.3,3.7c1.4,0,2.4-0.5,2.8-1.6h-2.9v-2.1h5.6
		C258.3,28,255.8,30.2,252.8,30.2z"/>
</g>
</svg>
