<?xml version="1.0" encoding="utf-8"?>
<!-- Generator: Adobe Illustrator 19.0.0, SVG Export Plug-In . SVG Version: 6.00 Build 0)  -->
<svg version="1.1" id="Layer_1" xmlns="http://www.w3.org/2000/svg" xmlns:xlink="http://www.w3.org/1999/xlink" x="0px" y="0px"
	 viewBox="0 0 582 324" style="enable-background:new 0 0 582 324;" xml:space="preserve">
<style type="text/css">
	.st0{clip-path:url(#XMLID_4_);fill:none;stroke:#010101;stroke-width:2;stroke-miterlimit:10;}
	.st1{fill:none;stroke:#010101;stroke-linecap:square;stroke-miterlimit:10;}
	.st2{fill:#010101;}
	.st3{opacity:0.4;}
	.st4{clip-path:url(#XMLID_5_);fill:none;stroke:#010101;stroke-width:2;stroke-miterlimit:10;}
</style>
<g>
	<defs>
		<rect id="XMLID_37_" x="1" y="44" width="580" height="279"/>
	</defs>
	<clipPath id="XMLID_4_">
		<use xlink:href="#XMLID_37_"  style="overflow:visible;"/>
	</clipPath>
	<rect id="XMLID_38_" x="1" y="44" class="st0" width="580" height="279"/>
</g>
<line id="XMLID_36_" class="st1" x1="1.5" y1="134.5" x2="580.5" y2="134.5"/>
<line id="XMLID_35_" class="st1" x1="1.5" y1="181.5" x2="580.5" y2="181.5"/>
<line id="XMLID_34_" class="st1" x1="1.5" y1="228.5" x2="580.5" y2="228.5"/>
<line id="XMLID_33_" class="st1" x1="1.5" y1="275.5" x2="580.5" y2="275.5"/>
<line id="XMLID_32_" class="st1" x1="1.5" y1="87.5" x2="580.5" y2="87.5"/>
<line id="XMLID_31_" class="st1" x1="290.5" y1="44.5" x2="290.5" y2="322.5"/>
<g id="XMLID_525_">
	<path id="XMLID_526_" class="st2" d="M69.4,303c0,0.6-0.2,1.1-0.6,1.5s-0.9,0.6-1.5,0.6c-0.6,0-1.1-0.2-1.5-0.6s-0.6-0.9-0.6-1.5
		v-0.8h0.7v0.8c0,0.8,0.6,1.4,1.4,1.4c0.8,0,1.4-0.6,1.4-1.4v-3.8c0-0.8-0.6-1.4-1.4-1.4c-0.8,0-1.4,0.6-1.4,1.4v0.1h-0.7v-5.6h4.2
		v0.7h-3.5v3.2c0.4-0.4,0.9-0.5,1.4-0.5c0.6,0,1.1,0.2,1.5,0.6s0.6,0.9,0.6,1.5V303z"/>
</g>
<g id="XMLID_499_">
	<path id="XMLID_500_" class="st2" d="M94.9,304l-2.3-3.3l-0.5,0.5v2.8h-1.8v-8h1.8v2.9l2.6-2.9h2.2l-3.1,3.4L97,304H94.9z"/>
	<path id="XMLID_502_" class="st2" d="M103,300.7v3.3h-1.8v-3.3l-2.7-4.8h2l1.5,2.8c0.1,0.2,0.2,0.4,0.2,0.4s0.1-0.3,0.2-0.4
		l1.5-2.8h2L103,300.7z"/>
	<path id="XMLID_504_" class="st2" d="M111.1,304.1c-1.8,0-3.4-1.2-3.4-3.4V296h1.8v4.8c0,1.1,0.7,1.9,1.7,1.9c1,0,1.8-0.8,1.8-1.9
		V296h1.7v4.8C114.6,302.9,113,304.1,111.1,304.1z"/>
	<path id="XMLID_506_" class="st2" d="M119.5,304.1c-1.1,0-1.9-0.4-2.7-1l0.9-1.2c0.5,0.4,1.2,0.7,1.8,0.7c0.8,0,1-0.3,1-0.8
		c0-0.8-1.5-1.1-2.1-1.5c-0.8-0.4-1.4-0.9-1.4-2.2c0-1.7,1.4-2.3,2.9-2.3c0.8,0,1.7,0.2,2.3,0.7l-0.8,1.3c-0.4-0.3-0.9-0.5-1.5-0.5
		c-0.8,0-1.1,0.5-1.1,0.8c0,0.7,1,0.9,2,1.4c0.8,0.3,1.6,0.9,1.6,2.2C122.3,303.2,121.2,304.1,119.5,304.1z"/>
	<path id="XMLID_508_" class="st2" d="M129.3,304v-3.2h-2.8v3.2h-1.8v-8h1.8v3.3h2.8V296h1.8v8H129.3z"/>
	<path id="XMLID_510_" class="st2" d="M137.1,304.1c-1.8,0-3.4-1.2-3.4-3.4V296h1.8v4.8c0,1.1,0.7,1.9,1.7,1.9c1,0,1.8-0.8,1.8-1.9
		V296h1.7v4.8C140.6,302.9,138.9,304.1,137.1,304.1z"/>
	<path id="XMLID_512_" class="st2" d="M143.6,305.8l-1-0.6c0.2-0.3,0.3-0.8,0.3-1.3v-1.5h1.6v1.3
		C144.5,304.4,144.1,305.1,143.6,305.8z"/>
	<path id="XMLID_514_" class="st2" d="M150.8,304h-0.9v-1.5h0.6c0.8,0,1.3-0.4,1.3-1.4V296h1.8v5.5C153.5,303,152.3,304,150.8,304z"
		/>
	<path id="XMLID_516_" class="st2" d="M161,304l-0.6-2h-2.4l-0.6,2h-1.9l2.9-8h1.7l2.9,8H161z M159.3,298.5
		c-0.1-0.3-0.2-0.6-0.2-0.6s-0.1,0.4-0.2,0.6l-0.6,2h1.5L159.3,298.5z"/>
	<path id="XMLID_519_" class="st2" d="M167.6,300.8h-0.9v3.2h-1.8v-8h2.7c1.8,0,2.9,0.9,2.9,2.4
		C170.5,299.9,169.4,300.8,167.6,300.8z M167.6,297.5h-0.9v1.9h0.9c0.8,0,1.2-0.3,1.2-1C168.7,297.7,168.3,297.5,167.6,297.5z"/>
	<path id="XMLID_522_" class="st2" d="M177.5,304l-0.6-2h-2.4l-0.6,2h-1.9l2.9-8h1.7l2.9,8H177.5z M175.8,298.5
		c-0.1-0.3-0.2-0.6-0.2-0.6s-0.1,0.4-0.2,0.6l-0.6,2h1.5L175.8,298.5z"/>
</g>
<g id="XMLID_496_">
	<path id="XMLID_497_" class="st2" d="M187,304l-3.5-4.7c-0.1-0.2-0.2-0.3-0.2-0.3s0,0.2,0,0.4v4.6h-1.8v-8h1.5l3.5,4.6
		c0.1,0.2,0.2,0.3,0.2,0.3s0-0.2,0-0.4V296h1.8v8H187z"/>
</g>
<g id="XMLID_492_">
	<path id="XMLID_493_" class="st2" d="M69.1,253.5h-0.7v3.5h-0.7v-3.5h-2.8v-2.1l2.8-5.6h0.7v7h0.7V253.5z M67.7,252.8v-5.5
		l-2.1,4.2v1.3H67.7z"/>
</g>
<g id="XMLID_462_">
	<path id="XMLID_463_" class="st2" d="M93.2,250.5v6.5h-1.8v-6.5h-1.6V249h4.9v1.5H93.2z"/>
	<path id="XMLID_465_" class="st2" d="M101.9,257l-0.6-2h-2.4l-0.6,2h-1.9l2.9-8h1.7l2.9,8H101.9z M100.2,251.5
		c-0.1-0.3-0.2-0.6-0.2-0.6s-0.1,0.4-0.2,0.6l-0.6,2h1.5L100.2,251.5z"/>
	<path id="XMLID_468_" class="st2" d="M110.3,257v-3.2h-2.8v3.2h-1.8v-8h1.8v3.3h2.8V249h1.8v8H110.3z"/>
	<path id="XMLID_470_" class="st2" d="M119.6,257l-0.6-2h-2.4l-0.6,2h-1.9l2.9-8h1.7l2.9,8H119.6z M118,251.5
		c-0.1-0.3-0.2-0.6-0.2-0.6s-0.1,0.4-0.2,0.6l-0.6,2h1.5L118,251.5z"/>
	<path id="XMLID_473_" class="st2" d="M127.5,257l-2.2-3.8v3.8h-1.8v-8h2.9c1.7,0,2.8,1,2.8,2.4c0,1.2-0.7,2-1.8,2.3l2.1,3.4H127.5z
		 M126.4,250.5h-1.1v1.9h1.1c0.6,0,1-0.4,1-1C127.4,250.8,127,250.5,126.4,250.5z"/>
	<path id="XMLID_476_" class="st2" d="M136.6,257l-0.6-2h-2.4l-0.6,2H131l2.9-8h1.7l2.9,8H136.6z M134.9,251.5
		c-0.1-0.3-0.2-0.6-0.2-0.6s-0.1,0.4-0.2,0.6l-0.6,2h1.5L134.9,251.5z"/>
	<path id="XMLID_479_" class="st2" d="M140.9,258.8l-1-0.6c0.2-0.3,0.3-0.8,0.3-1.3v-1.5h1.6v1.3
		C141.8,257.4,141.4,258.1,140.9,258.8z"/>
	<path id="XMLID_481_" class="st2" d="M148.2,257h-0.9v-1.5h0.6c0.8,0,1.3-0.4,1.3-1.4V249h1.8v5.5C150.8,256,149.6,257,148.2,257z"
		/>
	<path id="XMLID_483_" class="st2" d="M158.3,257l-0.6-2h-2.4l-0.6,2h-1.9l2.9-8h1.7l2.9,8H158.3z M156.6,251.5
		c-0.1-0.3-0.2-0.6-0.2-0.6s-0.1,0.4-0.2,0.6l-0.6,2h1.5L156.6,251.5z"/>
	<path id="XMLID_486_" class="st2" d="M164.9,253.8H164v3.2h-1.8v-8h2.7c1.8,0,2.9,0.9,2.9,2.4C167.8,252.9,166.7,253.8,164.9,253.8
		z M164.9,250.5H164v1.9h0.9c0.8,0,1.2-0.3,1.2-1C166,250.7,165.7,250.5,164.9,250.5z"/>
	<path id="XMLID_489_" class="st2" d="M174.8,257l-0.6-2h-2.4l-0.6,2h-1.9l2.9-8h1.7l2.9,8H174.8z M173.1,251.5
		c-0.1-0.3-0.2-0.6-0.2-0.6s-0.1,0.4-0.2,0.6l-0.6,2h1.5L173.1,251.5z"/>
</g>
<g id="XMLID_459_">
	<path id="XMLID_460_" class="st2" d="M184.3,257l-3.5-4.7c-0.1-0.2-0.2-0.3-0.2-0.3s0,0.2,0,0.4v4.6h-1.8v-8h1.5l3.5,4.6
		c0.1,0.2,0.2,0.3,0.2,0.3s0-0.2,0-0.4V249h1.8v8H184.3z"/>
</g>
<g id="XMLID_456_">
	<path id="XMLID_457_" class="st2" d="M68.4,210c0,0.6-0.2,1.1-0.6,1.5s-0.9,0.6-1.5,0.6c-0.6,0-1.1-0.2-1.5-0.6s-0.6-0.9-0.6-1.5
		v-0.8h0.7v0.8c0,0.8,0.6,1.4,1.4,1.4c0.8,0,1.4-0.6,1.4-1.4v-2.2c0-0.8-0.6-1.4-1.4-1.4h-0.8v-0.7l2.1-4.2h-3.4v-0.7h4.2v0.7
		l-2.1,4.2c0.6,0,1.1,0.2,1.5,0.6s0.6,0.9,0.6,1.5V210z"/>
</g>
<g id="XMLID_421_">
	<path id="XMLID_422_" class="st2" d="M96.6,211v-4.6c0-0.3,0-0.6,0-0.6s-0.1,0.2-0.1,0.3l-1.8,3.3H94l-1.8-3.3
		c-0.1-0.1-0.1-0.3-0.1-0.3s0,0.3,0,0.6v4.6h-1.8v-8h1.7l2.2,3.9c0.1,0.2,0.2,0.4,0.2,0.4s0.1-0.2,0.1-0.4l2-3.9h1.8v8H96.6z"/>
	<path id="XMLID_424_" class="st2" d="M104.7,211.1c-2.5,0-4.1-1.9-4.1-4.2c0-2.3,1.7-4.1,4.1-4.1c2.5,0,4.1,1.7,4.1,4.1
		C108.9,209.3,107.2,211.1,104.7,211.1z M104.8,204.4c-1.4,0-2.3,1.2-2.3,2.6c0,1.5,1.1,2.6,2.3,2.6c1.5,0,2.3-1.3,2.3-2.6
		C107.1,205.5,106.2,204.4,104.8,204.4z"/>
	<path id="XMLID_427_" class="st2" d="M114.1,204.5v6.5h-1.8v-6.5h-1.6V203h4.9v1.5H114.1z"/>
	<path id="XMLID_429_" class="st2" d="M121.5,211.1c-2.5,0-4.1-1.9-4.1-4.2c0-2.3,1.7-4.1,4.1-4.1c2.5,0,4.1,1.7,4.1,4.1
		C125.7,209.3,124,211.1,121.5,211.1z M121.6,204.4c-1.4,0-2.3,1.2-2.3,2.6c0,1.5,1.1,2.6,2.3,2.6c1.5,0,2.3-1.3,2.3-2.6
		C123.9,205.5,123,204.4,121.6,204.4z"/>
	<path id="XMLID_432_" class="st2" d="M134.2,211v-4.6c0-0.3,0-0.6,0-0.6s-0.1,0.2-0.1,0.3l-1.8,3.3h-0.7l-1.8-3.3
		c-0.1-0.1-0.1-0.3-0.1-0.3s0,0.3,0,0.6v4.6h-1.8v-8h1.7l2.2,3.9c0.1,0.2,0.2,0.4,0.2,0.4s0.1-0.2,0.1-0.4l2-3.9h1.8v8H134.2z"/>
	<path id="XMLID_434_" class="st2" d="M143.5,211l-0.6-2h-2.4l-0.6,2H138l2.9-8h1.7l2.9,8H143.5z M141.8,205.5
		c-0.1-0.3-0.2-0.6-0.2-0.6s-0.1,0.4-0.2,0.6l-0.6,2h1.5L141.8,205.5z"/>
	<path id="XMLID_437_" class="st2" d="M151.1,211.1c-2.4,0-4.1-1.6-4.1-4.2c0-2.4,1.8-4.1,4.1-4.1c1.2,0,2.1,0.3,2.9,1.2l-1,1.2
		c-0.5-0.5-1.2-0.8-1.9-0.8c-1.4,0-2.3,1.1-2.3,2.6c0,1.7,0.8,2.7,2.3,2.7c1,0,1.5-0.4,2-0.9l1,1.2
		C153.4,210.6,152.5,211.1,151.1,211.1z"/>
	<path id="XMLID_439_" class="st2" d="M160.9,211v-3.2h-2.8v3.2h-1.8v-8h1.8v3.3h2.8V203h1.8v8H160.9z"/>
	<path id="XMLID_441_" class="st2" d="M165.3,211v-8h1.8v8H165.3z"/>
	<path id="XMLID_443_" class="st2" d="M170.1,212.8l-1-0.6c0.2-0.3,0.3-0.8,0.3-1.3v-1.5h1.6v1.3C171,211.4,170.6,212.1,170.1,212.8
		z"/>
	<path id="XMLID_445_" class="st2" d="M177.4,211h-0.9v-1.5h0.6c0.8,0,1.3-0.4,1.3-1.4V203h1.8v5.5C180,210,178.8,211,177.4,211z"/>
	<path id="XMLID_447_" class="st2" d="M187.5,211l-0.6-2h-2.4l-0.6,2H182l2.9-8h1.7l2.9,8H187.5z M185.8,205.5
		c-0.1-0.3-0.2-0.6-0.2-0.6s-0.1,0.4-0.2,0.6l-0.6,2h1.5L185.8,205.5z"/>
	<path id="XMLID_450_" class="st2" d="M194.1,207.8h-0.9v3.2h-1.8v-8h2.7c1.8,0,2.9,0.9,2.9,2.4C197,206.9,195.9,207.8,194.1,207.8z
		 M194.1,204.5h-0.9v1.9h0.9c0.8,0,1.2-0.3,1.2-1C195.3,204.7,194.9,204.5,194.1,204.5z"/>
	<path id="XMLID_453_" class="st2" d="M204,211l-0.6-2h-2.4l-0.6,2h-1.9l2.9-8h1.7l2.9,8H204z M202.3,205.5
		c-0.1-0.3-0.2-0.6-0.2-0.6s-0.1,0.4-0.2,0.6l-0.6,2h1.5L202.3,205.5z"/>
</g>
<g id="XMLID_418_">
	<path id="XMLID_419_" class="st2" d="M213.5,211l-3.5-4.7c-0.1-0.2-0.2-0.3-0.2-0.3s0,0.2,0,0.4v4.6h-1.8v-8h1.5l3.5,4.6
		c0.1,0.2,0.2,0.3,0.2,0.3s0-0.2,0-0.4V203h1.8v8H213.5z"/>
</g>
<g id="XMLID_415_">
	<path id="XMLID_416_" class="st2" d="M68.4,163h-4.2v-2.8c0-0.8,0.3-1.5,0.9-2.2l1.7-1.6c0.6-0.6,0.9-1.2,0.9-1.9v-0.8
		c0-0.8-0.6-1.4-1.4-1.4c-0.8,0-1.4,0.6-1.4,1.4v0.8h-0.7v-0.8c0-0.6,0.2-1.1,0.6-1.5s0.9-0.6,1.5-0.6c0.6,0,1.1,0.2,1.5,0.6
		s0.6,0.9,0.6,1.5v0.8c0,0.8-0.3,1.5-0.9,2.2l-1.7,1.6c-0.6,0.6-0.9,1.2-0.9,1.9v2.1h3.5V163z"/>
</g>
<g id="XMLID_374_">
	<path id="XMLID_375_" class="st2" d="M94,163.1c-2.4,0-4.1-1.6-4.1-4.2c0-2.4,1.8-4.1,4.1-4.1c1.2,0,2.1,0.3,2.9,1.2l-1,1.2
		c-0.5-0.5-1.2-0.8-1.9-0.8c-1.4,0-2.3,1.1-2.3,2.6c0,1.7,0.8,2.7,2.3,2.7c1,0,1.5-0.4,2-0.9l1,1.2C96.3,162.6,95.4,163.1,94,163.1z
		"/>
	<path id="XMLID_377_" class="st2" d="M104.1,163l-0.6-2h-2.4l-0.6,2h-1.9l2.9-8h1.7l2.9,8H104.1z M102.5,157.5
		c-0.1-0.3-0.2-0.6-0.2-0.6s-0.1,0.4-0.2,0.6l-0.6,2h1.5L102.5,157.5z"/>
	<path id="XMLID_380_" class="st2" d="M114.3,163v-4.6c0-0.3,0-0.6,0-0.6s-0.1,0.2-0.1,0.3l-1.8,3.3h-0.7l-1.8-3.3
		c-0.1-0.1-0.1-0.3-0.1-0.3s0,0.3,0,0.6v4.6H108v-8h1.7l2.2,3.9c0.1,0.2,0.2,0.4,0.2,0.4s0.1-0.2,0.1-0.4l2-3.9h1.8v8H114.3z"/>
	<path id="XMLID_382_" class="st2" d="M121.8,163h-3v-8h2.8c1.7,0,2.8,0.8,2.8,2.2c0,0.8-0.5,1.5-1.2,1.7c0.9,0.1,1.6,1,1.6,1.9
		C124.7,162.2,123.6,163,121.8,163z M121.3,156.5h-0.9v1.9h0.9c0.8,0,1.2-0.3,1.2-1C122.6,156.7,122.1,156.5,121.3,156.5z
		 M121.8,159.8h-1.3v1.7h1.3c0.8,0,1.1-0.3,1.1-0.9C122.9,160.1,122.5,159.8,121.8,159.8z"/>
	<path id="XMLID_386_" class="st2" d="M130.9,163l-2.2-3.8v3.8H127v-8h2.9c1.7,0,2.8,1,2.8,2.4c0,1.2-0.7,2-1.8,2.3l2.1,3.4H130.9z
		 M129.8,156.5h-1.1v1.9h1.1c0.6,0,1-0.4,1-1C130.8,156.8,130.4,156.5,129.8,156.5z"/>
	<path id="XMLID_389_" class="st2" d="M135.1,163v-8h1.8v8H135.1z"/>
	<path id="XMLID_391_" class="st2" d="M141.9,163h-2.4v-8h2.4c2.3,0,4.2,1.4,4.2,4C146.1,161.6,144,163,141.9,163z M141.9,156.5
		h-0.7v5.1h0.7c1.5,0,2.4-1.2,2.4-2.5C144.3,157.6,143.3,156.5,141.9,156.5z"/>
	<path id="XMLID_394_" class="st2" d="M152.1,163.1c-2.4,0-4.1-1.7-4.1-4.2c0-2.5,1.8-4.1,4.1-4.1c1.4,0,2.4,0.5,3.1,1.3l-1.1,1.1
		c-0.5-0.5-1.2-0.8-2-0.8c-1.3,0-2.3,1.2-2.3,2.6c0,1.4,1,2.6,2.4,2.6c1,0,1.7-0.4,2-1.2h-2V159h4
		C156,161.6,154.3,163.1,152.1,163.1z"/>
	<path id="XMLID_396_" class="st2" d="M158.2,163v-8h4.7v1.5H160v1.9h2.7v1.5H160v1.7h3.1v1.5H158.2z"/>
	<path id="XMLID_398_" class="st2" d="M165.9,164.8l-1-0.6c0.2-0.3,0.3-0.8,0.3-1.3v-1.5h1.6v1.3
		C166.8,163.4,166.4,164.1,165.9,164.8z"/>
	<path id="XMLID_400_" class="st2" d="M176.4,163.1c-2.5,0-4.1-1.9-4.1-4.2c0-2.3,1.7-4.1,4.1-4.1c2.5,0,4.1,1.7,4.1,4.1
		C180.6,161.3,178.9,163.1,176.4,163.1z M176.4,156.4c-1.4,0-2.3,1.2-2.3,2.6c0,1.5,1.1,2.6,2.3,2.6c1.5,0,2.3-1.3,2.3-2.6
		C178.8,157.5,177.8,156.4,176.4,156.4z"/>
	<path id="XMLID_403_" class="st2" d="M188.3,163l-3.5-4.7c-0.1-0.2-0.2-0.3-0.2-0.3s0,0.2,0,0.4v4.6h-1.8v-8h1.5l3.5,4.6
		c0.1,0.2,0.2,0.3,0.2,0.3s0-0.2,0-0.4V155h1.8v8H188.3z"/>
	<path id="XMLID_405_" class="st2" d="M195.4,156.5v6.5h-1.8v-6.5H192V155h4.9v1.5H195.4z"/>
	<path id="XMLID_407_" class="st2" d="M204,163l-0.6-2H201l-0.6,2h-1.9l2.9-8h1.7l2.9,8H204z M202.4,157.5c-0.1-0.3-0.2-0.6-0.2-0.6
		s-0.1,0.4-0.2,0.6l-0.6,2h1.5L202.4,157.5z"/>
	<path id="XMLID_410_" class="st2" d="M211.9,163l-2.2-3.8v3.8h-1.8v-8h2.9c1.7,0,2.8,1,2.8,2.4c0,1.2-0.7,2-1.8,2.3l2.1,3.4H211.9z
		 M210.8,156.5h-1.1v1.9h1.1c0.6,0,1-0.4,1-1C211.8,156.8,211.4,156.5,210.8,156.5z"/>
	<path id="XMLID_413_" class="st2" d="M216.1,163v-8h1.8v8H216.1z"/>
</g>
<g id="XMLID_370_">
	<path id="XMLID_371_" class="st2" d="M224.4,163.1c-2.5,0-4.1-1.9-4.1-4.2c0-2.3,1.7-4.1,4.1-4.1c2.5,0,4.1,1.7,4.1,4.1
		C228.5,161.3,226.9,163.1,224.4,163.1z M224.4,156.4c-1.4,0-2.3,1.2-2.3,2.6c0,1.5,1.1,2.6,2.3,2.6c1.5,0,2.3-1.3,2.3-2.6
		C226.7,157.5,225.8,156.4,224.4,156.4z"/>
</g>
<g id="XMLID_367_">
	<path id="XMLID_368_" class="st2" d="M68.4,116h-3.3v-0.7h1.3v-9.1h-1.3v-0.7h2v9.8h1.3V116z"/>
</g>
<g id="XMLID_331_">
	<path id="XMLID_332_" class="st2" d="M90.3,116v-8h1.8v6.5h2.9v1.5H90.3z"/>
	<path id="XMLID_334_" class="st2" d="M97.1,116v-8h4.7v1.5h-2.9v1.9h2.7v1.5h-2.7v1.7h3.1v1.5H97.1z"/>
	<path id="XMLID_336_" class="st2" d="M109.1,116l-1.6-2.8l-1.6,2.8h-2l2.6-4.4l-2.2-3.7h1.9l1.2,2.1l1.2-2.1h2l-2.2,3.7l2.6,4.4
		H109.1z"/>
	<path id="XMLID_338_" class="st2" d="M113.1,116v-8h1.8v8H113.1z"/>
	<path id="XMLID_340_" class="st2" d="M123,116l-3.5-4.7c-0.1-0.2-0.2-0.3-0.2-0.3s0,0.2,0,0.4v4.6h-1.8v-8h1.5l3.5,4.6
		c0.1,0.2,0.2,0.3,0.2,0.3s0-0.2,0-0.4V108h1.8v8H123z"/>
	<path id="XMLID_342_" class="st2" d="M130.9,116.1c-2.4,0-4.1-1.7-4.1-4.2c0-2.5,1.8-4.1,4.1-4.1c1.4,0,2.4,0.5,3.1,1.3l-1.1,1.1
		c-0.5-0.5-1.2-0.8-2-0.8c-1.3,0-2.3,1.2-2.3,2.6c0,1.4,1,2.6,2.4,2.6c1,0,1.7-0.4,2-1.2h-2V112h4
		C134.8,114.6,133.1,116.1,130.9,116.1z"/>
	<path id="XMLID_344_" class="st2" d="M139.9,109.5v6.5h-1.8v-6.5h-1.6V108h4.9v1.5H139.9z"/>
	<path id="XMLID_346_" class="st2" d="M147.4,116.1c-2.5,0-4.1-1.9-4.1-4.2c0-2.3,1.7-4.1,4.1-4.1c2.5,0,4.1,1.7,4.1,4.1
		C151.5,114.3,149.9,116.1,147.4,116.1z M147.4,109.4c-1.4,0-2.3,1.2-2.3,2.6c0,1.5,1.1,2.6,2.3,2.6c1.5,0,2.3-1.3,2.3-2.6
		C149.7,110.5,148.8,109.4,147.4,109.4z"/>
	<path id="XMLID_349_" class="st2" d="M159.3,116l-3.5-4.7c-0.1-0.2-0.2-0.3-0.2-0.3s0,0.2,0,0.4v4.6h-1.8v-8h1.5l3.5,4.6
		c0.1,0.2,0.2,0.3,0.2,0.3s0-0.2,0-0.4V108h1.8v8H159.3z"/>
	<path id="XMLID_351_" class="st2" d="M163.9,117.8l-1-0.6c0.2-0.3,0.3-0.8,0.3-1.3v-1.5h1.6v1.3
		C164.7,116.4,164.3,117.1,163.9,117.8z"/>
	<path id="XMLID_353_" class="st2" d="M175.2,116l-2.3-3.3l-0.5,0.5v2.8h-1.8v-8h1.8v2.9l2.6-2.9h2.2l-3.1,3.4l3.3,4.6H175.2z"/>
	<path id="XMLID_355_" class="st2" d="M179.5,116v-8h4.7v1.5h-2.9v1.9h2.7v1.5h-2.7v1.7h3.1v1.5H179.5z"/>
	<path id="XMLID_357_" class="st2" d="M192.2,116l-3.5-4.7c-0.1-0.2-0.2-0.3-0.2-0.3s0,0.2,0,0.4v4.6h-1.8v-8h1.5l3.5,4.6
		c0.1,0.2,0.2,0.3,0.2,0.3s0-0.2,0-0.4V108h1.8v8H192.2z"/>
	<path id="XMLID_359_" class="st2" d="M199.3,109.5v6.5h-1.8v-6.5h-1.6V108h4.9v1.5H199.3z"/>
	<path id="XMLID_361_" class="st2" d="M206.4,116.1c-1.8,0-3.4-1.2-3.4-3.4V108h1.8v4.8c0,1.1,0.7,1.9,1.7,1.9c1,0,1.8-0.8,1.8-1.9
		V108h1.7v4.8C209.9,114.9,208.3,116.1,206.4,116.1z"/>
	<path id="XMLID_363_" class="st2" d="M216.2,116.1c-2.4,0-4.1-1.6-4.1-4.2c0-2.4,1.8-4.1,4.1-4.1c1.2,0,2.1,0.3,2.9,1.2l-1,1.2
		c-0.5-0.5-1.2-0.8-1.9-0.8c-1.4,0-2.3,1.1-2.3,2.6c0,1.7,0.8,2.7,2.3,2.7c1,0,1.5-0.4,2-0.9l1,1.2
		C218.5,115.6,217.6,116.1,216.2,116.1z"/>
	<path id="XMLID_365_" class="st2" d="M226,116l-2.3-3.3l-0.5,0.5v2.8h-1.8v-8h1.8v2.9l2.6-2.9h2.2l-3.1,3.4l3.3,4.6H226z"/>
</g>
<g id="XMLID_328_">
	<path id="XMLID_329_" class="st2" d="M234.3,112.7v3.3h-1.8v-3.3l-2.7-4.8h2l1.5,2.8c0.1,0.2,0.2,0.4,0.2,0.4s0.1-0.3,0.2-0.4
		l1.5-2.8h2L234.3,112.7z"/>
</g>
<g id="XMLID_303_">
	<path id="XMLID_304_" class="st2" d="M89.1,73V61.7h1.1V72H95v1H89.1z"/>
	<path id="XMLID_306_" class="st2" d="M99.2,73V61.7h6v1h-4.9v4.1h4.6v1h-4.6V72h5.2v1H99.2z"/>
	<path id="XMLID_308_" class="st2" d="M117.6,73l-3.5-5.1l-3.6,5.1h-1.3l4.2-6.1l-3.6-5.2h1.3l2.9,4.3l2.9-4.3h1.2l-3.6,5.2l4.2,6.1
		H117.6z"/>
	<path id="XMLID_310_" class="st2" d="M127.3,73.2c-2.4,0-4.2-1.7-4.2-4.4v-7.1h1.1v7.1c0,2.1,1.4,3.4,3.1,3.4
		c1.7,0,3.1-1.2,3.1-3.4v-7.1h1.1v7.1C131.5,71.4,129.7,73.2,127.3,73.2z"/>
	<path id="XMLID_312_" class="st2" d="M139.1,73.2c-1.1,0-2.2-0.4-3.1-1.2l0.7-0.8c0.7,0.6,1.6,0.9,2.4,0.9c1.2,0,2.2-0.7,2.2-1.9
		c0-1.3-1.1-1.9-2.3-2.5c-1.5-0.7-2.9-1.5-2.9-3.4c0-1.7,1.3-2.8,3-2.8c1.2,0,2.1,0.3,3,1.1l-0.7,0.8c-0.7-0.7-1.3-0.9-2.3-0.9
		c-1,0-1.9,0.6-1.9,1.7c0,1.3,1,1.8,2.5,2.5c1.4,0.7,2.7,1.4,2.7,3.4C142.4,72,140.8,73.2,139.1,73.2z"/>
	<path id="XMLID_314_" class="st2" d="M155.1,68.3h-2V73h-1.1V61.7h2.9c2.4,0,3.7,1.4,3.7,3.3C158.7,66.8,157.3,68.3,155.1,68.3z
		 M154.8,62.7h-1.6v4.6h1.8c1.7,0,2.6-1,2.6-2.4C157.6,63.5,156.7,62.7,154.8,62.7z"/>
	<path id="XMLID_317_" class="st2" d="M163,73V61.7h1.1V72h4.8v1H163z"/>
	<path id="XMLID_319_" class="st2" d="M180.3,73l-1.5-4h-3.9l-1.5,4h-1.1l4.3-11.4h0.7l4.3,11.4H180.3z M176.9,63.5l-1.6,4.5h3.2
		L176.9,63.5z"/>
	<path id="XMLID_322_" class="st2" d="M193.9,73l-6.8-9.5V73H186V61.7h1.1l6.7,9.4v-9.4h1.1V73H193.9z"/>
	<path id="XMLID_324_" class="st2" d="M202.9,62.7V73h-1.1V62.7h-2.6v-1h6.4v1H202.9z"/>
	<path id="XMLID_326_" class="st2" d="M212.5,73.2c-1.1,0-2.2-0.4-3.1-1.2l0.7-0.8c0.7,0.6,1.6,0.9,2.4,0.9c1.2,0,2.2-0.7,2.2-1.9
		c0-1.3-1.1-1.9-2.3-2.5c-1.5-0.7-2.9-1.5-2.9-3.4c0-1.7,1.3-2.8,3-2.8c1.2,0,2.1,0.3,3,1.1l-0.7,0.8c-0.7-0.7-1.3-0.9-2.3-0.9
		c-1,0-1.9,0.6-1.9,1.7c0,1.3,1,1.8,2.5,2.5c1.4,0.7,2.7,1.4,2.7,3.4C215.8,72,214.2,73.2,212.5,73.2z"/>
</g>
<g id="XMLID_234_">
	<path id="XMLID_235_" class="st2" d="M309.3,304v-8h4.7v1.5h-2.9v1.9h2.7v1.5h-2.7v1.7h3.1v1.5H309.3z"/>
	<path id="XMLID_237_" class="st2" d="M318.9,304.1c-1.1,0-1.9-0.4-2.7-1l0.9-1.2c0.5,0.4,1.2,0.7,1.8,0.7c0.8,0,1-0.3,1-0.8
		c0-0.8-1.5-1.1-2.1-1.5c-0.8-0.4-1.4-0.9-1.4-2.2c0-1.7,1.4-2.3,2.9-2.3c0.8,0,1.7,0.2,2.3,0.7l-0.8,1.3c-0.4-0.3-0.9-0.5-1.5-0.5
		c-0.8,0-1.1,0.5-1.1,0.8c0,0.7,1,0.9,2,1.4c0.8,0.3,1.6,0.9,1.6,2.2C321.7,303.2,320.6,304.1,318.9,304.1z"/>
	<path id="XMLID_239_" class="st2" d="M324.5,305.8l-1-0.6c0.2-0.3,0.3-0.8,0.3-1.3v-1.5h1.6v1.3C325.4,304.4,325,305.1,324.5,305.8
		z"/>
	<path id="XMLID_241_" class="st2" d="M331.3,304v-8h1.8v8H331.3z"/>
	<path id="XMLID_243_" class="st2" d="M338,304.1c-1.1,0-1.9-0.4-2.7-1l0.9-1.2c0.5,0.4,1.2,0.7,1.8,0.7c0.8,0,1-0.3,1-0.8
		c0-0.8-1.5-1.1-2.1-1.5c-0.8-0.4-1.4-0.9-1.4-2.2c0-1.7,1.4-2.3,2.9-2.3c0.8,0,1.7,0.2,2.3,0.7l-0.8,1.3c-0.4-0.3-0.9-0.5-1.5-0.5
		c-0.8,0-1.1,0.5-1.1,0.8c0,0.7,1,0.9,2,1.4c0.8,0.3,1.6,0.9,1.6,2.2C340.8,303.2,339.8,304.1,338,304.1z"/>
	<path id="XMLID_245_" class="st2" d="M343.7,305.8l-1-0.6c0.2-0.3,0.3-0.8,0.3-1.3v-1.5h1.6v1.3
		C344.5,304.4,344.2,305.1,343.7,305.8z"/>
	<path id="XMLID_247_" class="st2" d="M350.4,304v-8h1.8v8H350.4z"/>
	<path id="XMLID_249_" class="st2" d="M357.1,304.1c-1.1,0-1.9-0.4-2.7-1l0.9-1.2c0.5,0.4,1.2,0.7,1.8,0.7c0.8,0,1-0.3,1-0.8
		c0-0.8-1.5-1.1-2.1-1.5c-0.8-0.4-1.4-0.9-1.4-2.2c0-1.7,1.4-2.3,2.9-2.3c0.8,0,1.7,0.2,2.3,0.7l-0.8,1.3c-0.4-0.3-0.9-0.5-1.5-0.5
		c-0.8,0-1.1,0.5-1.1,0.8c0,0.7,1,0.9,2,1.4c0.8,0.3,1.6,0.9,1.6,2.2C360,303.2,358.9,304.1,357.1,304.1z"/>
	<path id="XMLID_251_" class="st2" d="M367.6,297.5v1.9h2.4v1.5h-2.4v3.1h-1.8v-8h4.3v1.5H367.6z"/>
	<path id="XMLID_253_" class="st2" d="M373,305.8l-1-0.6c0.2-0.3,0.3-0.8,0.3-1.3v-1.5h1.6v1.3C373.9,304.4,373.5,305.1,373,305.8z"
		/>
	<path id="XMLID_255_" class="st2" d="M379.7,304v-8h1.8v8H379.7z"/>
	<path id="XMLID_257_" class="st2" d="M386.4,304.1c-1.1,0-1.9-0.4-2.7-1l0.9-1.2c0.5,0.4,1.2,0.7,1.8,0.7c0.8,0,1-0.3,1-0.8
		c0-0.8-1.5-1.1-2.1-1.5c-0.8-0.4-1.4-0.9-1.4-2.2c0-1.7,1.4-2.3,2.9-2.3c0.8,0,1.7,0.2,2.3,0.7l-0.8,1.3c-0.4-0.3-0.9-0.5-1.5-0.5
		c-0.8,0-1.1,0.5-1.1,0.8c0,0.7,1,0.9,2,1.4c0.8,0.3,1.6,0.9,1.6,2.2C389.3,303.2,388.2,304.1,386.4,304.1z"/>
	<path id="XMLID_259_" class="st2" d="M398.8,304.1c-2.4,0-4.1-1.6-4.1-4.2c0-2.4,1.8-4.1,4.1-4.1c1.2,0,2.1,0.3,2.9,1.2l-1,1.2
		c-0.5-0.5-1.2-0.8-1.9-0.8c-1.4,0-2.3,1.1-2.3,2.6c0,1.7,0.8,2.7,2.3,2.7c1,0,1.5-0.4,2-0.9l1,1.2
		C401.1,303.6,400.2,304.1,398.8,304.1z"/>
	<path id="XMLID_261_" class="st2" d="M404.5,305.8l-1-0.6c0.2-0.3,0.3-0.8,0.3-1.3v-1.5h1.6v1.3
		C405.3,304.4,404.9,305.1,404.5,305.8z"/>
	<path id="XMLID_263_" class="st2" d="M415.2,304l-2.2-3.8v3.8h-1.8v-8h2.9c1.7,0,2.8,1,2.8,2.4c0,1.2-0.7,2-1.8,2.3l2.1,3.4H415.2z
		 M414.1,297.5H413v1.9h1.1c0.6,0,1-0.4,1-1C415.1,297.8,414.7,297.5,414.1,297.5z"/>
	<path id="XMLID_266_" class="st2" d="M424,304l-1.6-2.8l-1.6,2.8h-2l2.6-4.4l-2.2-3.7h1.9l1.2,2.1l1.2-2.1h2l-2.2,3.7l2.6,4.4H424z
		"/>
	<path id="XMLID_268_" class="st2" d="M436.1,304v-3.2h-2.8v3.2h-1.8v-8h1.8v3.3h2.8V296h1.8v8H436.1z"/>
	<path id="XMLID_270_" class="st2" d="M444.3,300.7v3.3h-1.8v-3.3l-2.7-4.8h2l1.5,2.8c0.1,0.2,0.2,0.4,0.2,0.4s0.1-0.3,0.2-0.4
		l1.5-2.8h2L444.3,300.7z"/>
	<path id="XMLID_272_" class="st2" d="M452.1,304h-3v-8h2.8c1.7,0,2.8,0.8,2.8,2.2c0,0.8-0.5,1.5-1.2,1.7c0.9,0.1,1.6,1,1.6,1.9
		C455,303.2,453.9,304,452.1,304z M451.7,297.5h-0.9v1.9h0.9c0.8,0,1.2-0.3,1.2-1C452.9,297.7,452.4,297.5,451.7,297.5z
		 M452.1,300.8h-1.3v1.7h1.3c0.8,0,1.1-0.3,1.1-0.9C453.2,301.1,452.8,300.8,452.1,300.8z"/>
	<path id="XMLID_276_" class="st2" d="M461.3,304l-2.2-3.8v3.8h-1.8v-8h2.9c1.7,0,2.8,1,2.8,2.4c0,1.2-0.7,2-1.8,2.3l2.1,3.4H461.3z
		 M460.2,297.5h-1.1v1.9h1.1c0.6,0,1-0.4,1-1C461.2,297.8,460.7,297.5,460.2,297.5z"/>
	<path id="XMLID_279_" class="st2" d="M465.4,304v-8h1.8v8H465.4z"/>
	<path id="XMLID_281_" class="st2" d="M472.3,304h-2.4v-8h2.4c2.3,0,4.2,1.4,4.2,4C476.4,302.6,474.4,304,472.3,304z M472.3,297.5
		h-0.7v5.1h0.7c1.5,0,2.4-1.2,2.4-2.5C474.6,298.6,473.7,297.5,472.3,297.5z"/>
	<path id="XMLID_284_" class="st2" d="M479.1,305.8l-1-0.6c0.2-0.3,0.3-0.8,0.3-1.3v-1.5h1.6v1.3C480,304.4,479.6,305.1,479.1,305.8
		z"/>
	<path id="XMLID_286_" class="st2" d="M489.6,304.1c-2.4,0-4.1-1.6-4.1-4.2c0-2.4,1.8-4.1,4.1-4.1c1.2,0,2.1,0.3,2.9,1.2l-1,1.2
		c-0.5-0.5-1.2-0.8-1.9-0.8c-1.4,0-2.3,1.1-2.3,2.6c0,1.7,0.8,2.7,2.3,2.7c1,0,1.5-0.4,2-0.9l1,1.2
		C491.9,303.6,491,304.1,489.6,304.1z"/>
	<path id="XMLID_288_" class="st2" d="M497.7,297.5v6.5H496v-6.5h-1.6V296h4.9v1.5H497.7z"/>
	<path id="XMLID_290_" class="st2" d="M509.5,304v-3.2h-2.8v3.2h-1.8v-8h1.8v3.3h2.8V296h1.8v8H509.5z"/>
	<path id="XMLID_292_" class="st2" d="M517.7,300.7v3.3H516v-3.3l-2.7-4.8h2l1.5,2.8c0.1,0.2,0.2,0.4,0.2,0.4s0.1-0.3,0.2-0.4
		l1.5-2.8h2L517.7,300.7z"/>
	<path id="XMLID_294_" class="st2" d="M525.5,304h-3v-8h2.8c1.7,0,2.8,0.8,2.8,2.2c0,0.8-0.5,1.5-1.2,1.7c0.9,0.1,1.6,1,1.6,1.9
		C528.5,303.2,527.3,304,525.5,304z M525.1,297.5h-0.9v1.9h0.9c0.8,0,1.2-0.3,1.2-1C526.3,297.7,525.9,297.5,525.1,297.5z
		 M525.5,300.8h-1.3v1.7h1.3c0.8,0,1.1-0.3,1.1-0.9C526.7,301.1,526.2,300.8,525.5,300.8z"/>
	<path id="XMLID_298_" class="st2" d="M534.7,304l-2.2-3.8v3.8h-1.8v-8h2.9c1.7,0,2.8,1,2.8,2.4c0,1.2-0.7,2-1.8,2.3l2.1,3.4H534.7z
		 M533.6,297.5h-1.1v1.9h1.1c0.6,0,1-0.4,1-1C534.6,297.8,534.2,297.5,533.6,297.5z"/>
	<path id="XMLID_301_" class="st2" d="M538.8,304v-8h1.8v8H538.8z"/>
</g>
<g id="XMLID_230_">
	<path id="XMLID_231_" class="st2" d="M546.1,304h-2.4v-8h2.4c2.3,0,4.2,1.4,4.2,4C550.3,302.6,548.2,304,546.1,304z M546.1,297.5
		h-0.7v5.1h0.7c1.5,0,2.4-1.2,2.4-2.5C548.4,298.6,547.5,297.5,546.1,297.5z"/>
</g>
<g>
	<g id="XMLID_157_" class="st3">
		<path id="XMLID_158_" class="st2" d="M309.3,257v-8h1.8v6.5h2.9v1.5H309.3z"/>
		<path id="XMLID_160_" class="st2" d="M318.4,257.1c-1.1,0-1.9-0.4-2.7-1l0.9-1.2c0.5,0.4,1.2,0.7,1.8,0.7c0.8,0,1-0.3,1-0.8
			c0-0.8-1.5-1.1-2.1-1.5c-0.8-0.4-1.4-0.9-1.4-2.2c0-1.7,1.4-2.3,2.9-2.3c0.8,0,1.7,0.2,2.3,0.7l-0.8,1.3c-0.4-0.3-0.9-0.5-1.5-0.5
			c-0.8,0-1.1,0.5-1.1,0.8c0,0.7,1,0.9,2,1.4c0.8,0.3,1.6,0.9,1.6,2.2C321.3,256.2,320.2,257.1,318.4,257.1z"/>
		<path id="XMLID_162_" class="st2" d="M324.1,258.8l-1-0.6c0.2-0.3,0.3-0.8,0.3-1.3v-1.5h1.6v1.3
			C325,257.4,324.6,258.1,324.1,258.8z"/>
		<path id="XMLID_164_" class="st2" d="M330.9,257v-8h1.8v6.5h2.9v1.5H330.9z"/>
		<path id="XMLID_166_" class="st2" d="M340,257.1c-1.1,0-1.9-0.4-2.7-1l0.9-1.2c0.5,0.4,1.2,0.7,1.8,0.7c0.8,0,1-0.3,1-0.8
			c0-0.8-1.5-1.1-2.1-1.5c-0.8-0.4-1.4-0.9-1.4-2.2c0-1.7,1.4-2.3,2.9-2.3c0.8,0,1.7,0.2,2.3,0.7l-0.8,1.3c-0.4-0.3-0.9-0.5-1.5-0.5
			c-0.8,0-1.1,0.5-1.1,0.8c0,0.7,1,0.9,2,1.4c0.8,0.3,1.6,0.9,1.6,2.2C342.8,256.2,341.7,257.1,340,257.1z"/>
		<path id="XMLID_168_" class="st2" d="M353.2,257v-3.2h-2.8v3.2h-1.8v-8h1.8v3.3h2.8V249h1.8v8H353.2z"/>
		<path id="XMLID_170_" class="st2" d="M361.4,253.7v3.3h-1.8v-3.3L357,249h2l1.5,2.8c0.1,0.2,0.2,0.4,0.2,0.4s0.1-0.3,0.2-0.4
			l1.5-2.8h2L361.4,253.7z"/>
		<path id="XMLID_172_" class="st2" d="M369.2,257h-3v-8h2.8c1.7,0,2.8,0.8,2.8,2.2c0,0.8-0.5,1.5-1.2,1.7c0.9,0.1,1.6,1,1.6,1.9
			C372.2,256.2,371,257,369.2,257z M368.8,250.5H368v1.9h0.9c0.8,0,1.2-0.3,1.2-1C370,250.7,369.6,250.5,368.8,250.5z M369.2,253.8
			H368v1.7h1.3c0.8,0,1.1-0.3,1.1-0.9C370.4,254.1,370,253.8,369.2,253.8z"/>
		<path id="XMLID_176_" class="st2" d="M378.4,257l-2.2-3.8v3.8h-1.8v-8h2.9c1.7,0,2.8,1,2.8,2.4c0,1.2-0.7,2-1.8,2.3l2.1,3.4H378.4
			z M377.3,250.5h-1.1v1.9h1.1c0.6,0,1-0.4,1-1C378.3,250.8,377.9,250.5,377.3,250.5z"/>
		<path id="XMLID_179_" class="st2" d="M382.6,257v-8h1.8v8H382.6z"/>
		<path id="XMLID_181_" class="st2" d="M389.4,257H387v-8h2.4c2.3,0,4.2,1.4,4.2,4C393.6,255.6,391.5,257,389.4,257z M389.4,250.5
			h-0.7v5.1h0.7c1.5,0,2.4-1.2,2.4-2.5C391.8,251.6,390.8,250.5,389.4,250.5z"/>
		<path id="XMLID_184_" class="st2" d="M396.3,258.8l-1-0.6c0.2-0.3,0.3-0.8,0.3-1.3v-1.5h1.6v1.3
			C397.1,257.4,396.8,258.1,396.3,258.8z"/>
		<path id="XMLID_186_" class="st2" d="M403,257v-8h1.8v8H403z"/>
		<path id="XMLID_188_" class="st2" d="M409.7,257.1c-1.1,0-1.9-0.4-2.7-1l0.9-1.2c0.5,0.4,1.2,0.7,1.8,0.7c0.8,0,1-0.3,1-0.8
			c0-0.8-1.5-1.1-2.1-1.5c-0.8-0.4-1.4-0.9-1.4-2.2c0-1.7,1.4-2.3,2.9-2.3c0.8,0,1.7,0.2,2.3,0.7l-0.8,1.3c-0.4-0.3-0.9-0.5-1.5-0.5
			c-0.8,0-1.1,0.5-1.1,0.8c0,0.7,1,0.9,2,1.4c0.8,0.3,1.6,0.9,1.6,2.2C412.6,256.2,411.5,257.1,409.7,257.1z"/>
		<path id="XMLID_190_" class="st2" d="M418.4,257v-8h1.8v8H418.4z"/>
		<path id="XMLID_192_" class="st2" d="M425.1,257.1c-1.1,0-1.9-0.4-2.7-1l0.9-1.2c0.5,0.4,1.2,0.7,1.8,0.7c0.8,0,1-0.3,1-0.8
			c0-0.8-1.5-1.1-2.1-1.5c-0.8-0.4-1.4-0.9-1.4-2.2c0-1.7,1.4-2.3,2.9-2.3c0.8,0,1.7,0.2,2.3,0.7l-0.8,1.3c-0.4-0.3-0.9-0.5-1.5-0.5
			c-0.8,0-1.1,0.5-1.1,0.8c0,0.7,1,0.9,2,1.4c0.8,0.3,1.6,0.9,1.6,2.2C427.9,256.2,426.9,257.1,425.1,257.1z"/>
		<path id="XMLID_194_" class="st2" d="M435.6,250.5v1.9h2.4v1.5h-2.4v3.1h-1.8v-8h4.3v1.5H435.6z"/>
		<path id="XMLID_196_" class="st2" d="M440.9,258.8l-1-0.6c0.2-0.3,0.3-0.8,0.3-1.3v-1.5h1.6v1.3
			C441.8,257.4,441.4,258.1,440.9,258.8z"/>
		<path id="XMLID_198_" class="st2" d="M451.5,257.1c-2.4,0-4.1-1.7-4.1-4.2c0-2.5,1.8-4.1,4.1-4.1c1.4,0,2.4,0.5,3.1,1.3l-1.1,1.1
			c-0.5-0.5-1.2-0.8-2-0.8c-1.3,0-2.3,1.2-2.3,2.6c0,1.4,1,2.6,2.4,2.6c1,0,1.7-0.4,2-1.2h-2V253h4
			C455.4,255.6,453.6,257.1,451.5,257.1z"/>
		<path id="XMLID_200_" class="st2" d="M462.2,257l-1.6-2.8L459,257h-2l2.6-4.4l-2.2-3.7h1.9l1.2,2.1l1.2-2.1h2l-2.2,3.7l2.6,4.4
			H462.2z"/>
		<path id="XMLID_202_" class="st2" d="M466.7,258.8l-1-0.6c0.2-0.3,0.3-0.8,0.3-1.3v-1.5h1.6v1.3
			C467.6,257.4,467.2,258.1,466.7,258.8z"/>
		<path id="XMLID_204_" class="st2" d="M477.2,257.1c-2.4,0-4.1-1.7-4.1-4.2c0-2.5,1.8-4.1,4.1-4.1c1.4,0,2.4,0.5,3.1,1.3l-1.1,1.1
			c-0.5-0.5-1.2-0.8-2-0.8c-1.3,0-2.3,1.2-2.3,2.6c0,1.4,1,2.6,2.4,2.6c1,0,1.7-0.4,2-1.2h-2V253h4
			C481.1,255.6,479.4,257.1,477.2,257.1z"/>
		<path id="XMLID_206_" class="st2" d="M485.6,257.1c-1.1,0-1.9-0.4-2.7-1l0.9-1.2c0.5,0.4,1.2,0.7,1.8,0.7c0.8,0,1-0.3,1-0.8
			c0-0.8-1.5-1.1-2.1-1.5c-0.8-0.4-1.4-0.9-1.4-2.2c0-1.7,1.4-2.3,2.9-2.3c0.8,0,1.7,0.2,2.3,0.7l-0.8,1.3c-0.4-0.3-0.9-0.5-1.5-0.5
			c-0.8,0-1.1,0.5-1.1,0.8c0,0.7,1,0.9,2,1.4c0.8,0.3,1.6,0.9,1.6,2.2C488.4,256.2,487.3,257.1,485.6,257.1z"/>
		<path id="XMLID_208_" class="st2" d="M491.2,258.8l-1-0.6c0.2-0.3,0.3-0.8,0.3-1.3v-1.5h1.6v1.3
			C492.1,257.4,491.7,258.1,491.2,258.8z"/>
		<path id="XMLID_210_" class="st2" d="M501.7,257.1c-2.4,0-4.1-1.7-4.1-4.2c0-2.5,1.8-4.1,4.1-4.1c1.4,0,2.4,0.5,3.1,1.3l-1.1,1.1
			c-0.5-0.5-1.2-0.8-2-0.8c-1.3,0-2.3,1.2-2.3,2.6c0,1.4,1,2.6,2.4,2.6c1,0,1.7-0.4,2-1.2h-2V253h4
			C505.7,255.6,503.9,257.1,501.7,257.1z"/>
		<path id="XMLID_212_" class="st2" d="M510.2,257.1c-1.1,0-1.9-0.4-2.7-1l0.9-1.2c0.5,0.4,1.2,0.7,1.8,0.7c0.8,0,1-0.3,1-0.8
			c0-0.8-1.5-1.1-2.1-1.5c-0.8-0.4-1.4-0.9-1.4-2.2c0-1.7,1.4-2.3,2.9-2.3c0.8,0,1.7,0.2,2.3,0.7l-0.8,1.3c-0.4-0.3-0.9-0.5-1.5-0.5
			c-0.8,0-1.1,0.5-1.1,0.8c0,0.7,1,0.9,2,1.4c0.8,0.3,1.6,0.9,1.6,2.2C513,256.2,511.9,257.1,510.2,257.1z"/>
		<path id="XMLID_214_" class="st2" d="M523.4,257v-3.2h-2.8v3.2h-1.8v-8h1.8v3.3h2.8V249h1.8v8H523.4z"/>
		<path id="XMLID_216_" class="st2" d="M531.6,253.7v3.3h-1.8v-3.3l-2.7-4.8h2l1.5,2.8c0.1,0.2,0.2,0.4,0.2,0.4s0.1-0.3,0.2-0.4
			l1.5-2.8h2L531.6,253.7z"/>
		<path id="XMLID_218_" class="st2" d="M539.4,257h-3v-8h2.8c1.7,0,2.8,0.8,2.8,2.2c0,0.8-0.5,1.5-1.2,1.7c0.9,0.1,1.6,1,1.6,1.9
			C542.4,256.2,541.2,257,539.4,257z M539,250.5h-0.9v1.9h0.9c0.8,0,1.2-0.3,1.2-1C540.2,250.7,539.8,250.5,539,250.5z M539.4,253.8
			h-1.3v1.7h1.3c0.8,0,1.1-0.3,1.1-0.9C540.6,254.1,540.1,253.8,539.4,253.8z"/>
		<path id="XMLID_222_" class="st2" d="M548.6,257l-2.2-3.8v3.8h-1.8v-8h2.9c1.7,0,2.8,1,2.8,2.4c0,1.2-0.7,2-1.8,2.3l2.1,3.4H548.6
			z M547.5,250.5h-1.1v1.9h1.1c0.6,0,1-0.4,1-1C548.5,250.8,548.1,250.5,547.5,250.5z"/>
		<path id="XMLID_225_" class="st2" d="M552.8,257v-8h1.8v8H552.8z"/>
		<path id="XMLID_227_" class="st2" d="M559.6,257h-2.4v-8h2.4c2.3,0,4.2,1.4,4.2,4C563.8,255.6,561.7,257,559.6,257z M559.6,250.5
			h-0.7v5.1h0.7c1.5,0,2.4-1.2,2.4-2.5C561.9,251.6,561,250.5,559.6,250.5z"/>
	</g>
</g>
<g id="XMLID_152_">
	<path id="XMLID_153_" class="st2" d="M309.3,210v-8h1.8v6.5h2.9v1.5H309.3z"/>
	<path id="XMLID_155_" class="st2" d="M317.9,203.5v1.9h2.4v1.5h-2.4v3.1h-1.8v-8h4.3v1.5H317.9z"/>
</g>
<g id="XMLID_148_">
	<path id="XMLID_149_" class="st2" d="M327.8,210l-0.6-2h-2.4l-0.6,2h-1.9l2.9-8h1.7l2.9,8H327.8z M326.1,204.5
		c-0.1-0.3-0.2-0.6-0.2-0.6s-0.1,0.4-0.2,0.6l-0.6,2h1.5L326.1,204.5z"/>
</g>
<g id="XMLID_144_">
	<path id="XMLID_145_" class="st2" d="M313.3,163l-2.2-3.8v3.8h-1.8v-8h2.9c1.7,0,2.8,1,2.8,2.4c0,1.2-0.7,2-1.8,2.3l2.1,3.4H313.3z
		 M312.2,156.5h-1.1v1.9h1.1c0.6,0,1-0.4,1-1C313.2,156.8,312.8,156.5,312.2,156.5z"/>
</g>
<g id="XMLID_141_">
	<path id="XMLID_142_" class="st2" d="M322.1,163l-1.6-2.8l-1.6,2.8h-2l2.6-4.4l-2.2-3.7h1.9l1.2,2.1l1.2-2.1h2l-2.2,3.7l2.6,4.4
		H322.1z"/>
</g>
<g id="XMLID_138_">
	<path id="XMLID_139_" class="st2" d="M309.3,116v-8h4.7v1.5h-2.9v1.9h2.7v1.5h-2.7v1.7h3.1v1.5H309.3z"/>
</g>
<g id="XMLID_135_">
	<path id="XMLID_136_" class="st2" d="M318.9,116.1c-1.1,0-1.9-0.4-2.7-1l0.9-1.2c0.5,0.4,1.2,0.7,1.8,0.7c0.8,0,1-0.3,1-0.8
		c0-0.8-1.5-1.1-2.1-1.5c-0.8-0.4-1.4-0.9-1.4-2.2c0-1.7,1.4-2.3,2.9-2.3c0.8,0,1.7,0.2,2.3,0.7l-0.8,1.3c-0.4-0.3-0.9-0.5-1.5-0.5
		c-0.8,0-1.1,0.5-1.1,0.8c0,0.7,1,0.9,2,1.4c0.8,0.3,1.6,0.9,1.6,2.2C321.7,115.2,320.7,116.1,318.9,116.1z"/>
</g>
<g id="XMLID_92_">
	<path id="XMLID_93_" class="st2" d="M333.6,73v-9.5l-3.8,5.5h-0.5l-3.8-5.5V73h-1.1V61.7h1.1l4.1,5.9l4-5.9h1.1V73H333.6z"/>
	<path id="XMLID_95_" class="st2" d="M344.8,73.2c-3.2,0-5.7-2.5-5.7-5.9c0-3.3,2.5-5.8,5.7-5.8c3.3,0,5.7,2.5,5.7,5.8
		C350.5,70.6,348,73.2,344.8,73.2z M344.8,62.5c-2.6,0-4.5,2.1-4.5,4.8c0,2.8,2,4.8,4.6,4.8c2.5,0,4.5-2,4.5-4.8
		C349.4,64.6,347.5,62.5,344.8,62.5z"/>
	<path id="XMLID_98_" class="st2" d="M357.5,73H355V61.7h2.6c3.5,0,6,2.2,6,5.6C363.5,70.7,361.1,73,357.5,73z M357.7,62.6h-1.6V72
		h1.5c3.1,0,4.9-2.1,4.9-4.8C362.4,64.5,360.4,62.6,357.7,62.6z"/>
	<path id="XMLID_101_" class="st2" d="M368,73V61.7h6v1h-4.9v4.1h4.6v1h-4.6V72h5.2v1H368z"/>
	<path id="XMLID_103_" class="st2" d="M378.9,73V61.7h1.1V72h4.8v1H378.9z"/>
	<path id="XMLID_105_" class="st2" d="M391.5,73.2c-1.1,0-2.2-0.4-3.1-1.2l0.7-0.8c0.7,0.6,1.5,0.9,2.5,0.9c1.2,0,2.2-0.7,2.2-1.9
		c0-1.3-1.1-1.9-2.3-2.5c-1.5-0.7-2.9-1.5-2.9-3.4c0-1.7,1.3-2.8,3-2.8c1.2,0,2.1,0.3,3,1.1l-0.7,0.8c-0.7-0.7-1.3-0.9-2.3-0.9
		c-1,0-1.9,0.6-1.9,1.7c0,1.3,1,1.8,2.5,2.5c1.4,0.7,2.7,1.4,2.7,3.4C394.8,72,393.3,73.2,391.5,73.2z"/>
	<path id="XMLID_107_" class="st2" d="M413.8,73v-9.5L410,69h-0.5l-3.8-5.5V73h-1.1V61.7h1.1l4.1,5.9l4-5.9h1.1V73H413.8z"/>
	<path id="XMLID_109_" class="st2" d="M427,73l-1.5-4h-3.9l-1.5,4H419l4.3-11.4h0.7l4.3,11.4H427z M423.6,63.5L422,68h3.2
		L423.6,63.5z"/>
	<path id="XMLID_112_" class="st2" d="M440.6,73l-6.8-9.5V73h-1.1V61.7h1.1l6.7,9.4v-9.4h1.1V73H440.6z"/>
	<path id="XMLID_114_" class="st2" d="M450.7,73.2c-2.4,0-4.2-1.7-4.2-4.4v-7.1h1.1v7.1c0,2.1,1.4,3.4,3.1,3.4
		c1.7,0,3.1-1.2,3.1-3.4v-7.1h1.1v7.1C454.9,71.4,453.1,73.2,450.7,73.2z"/>
	<path id="XMLID_116_" class="st2" d="M460.9,62.7v4.1h3.9v1h-3.9V73h-1.1V61.7h5.3v1H460.9z"/>
	<path id="XMLID_118_" class="st2" d="M476.8,73l-1.5-4h-3.9l-1.5,4h-1.1l4.3-11.4h0.7L478,73H476.8z M473.4,63.5l-1.6,4.5h3.2
		L473.4,63.5z"/>
	<path id="XMLID_121_" class="st2" d="M487.5,73.2c-2.9,0-5.5-2.4-5.5-5.8c0-3.2,2.4-5.8,5.5-5.8c1.8,0,3.2,0.7,4.1,1.8l-0.8,0.7
		c-0.8-0.9-1.9-1.4-3.3-1.4c-2.5,0-4.4,2.1-4.4,4.8c0,2.9,2.1,4.9,4.4,4.9c1.4,0,2.6-0.6,3.6-1.7l0.8,0.7
		C491,72.2,489.6,73.2,487.5,73.2z"/>
	<path id="XMLID_123_" class="st2" d="M499.3,62.7V73h-1.1V62.7h-2.6v-1h6.4v1H499.3z"/>
	<path id="XMLID_125_" class="st2" d="M510.4,73.2c-2.4,0-4.2-1.7-4.2-4.4v-7.1h1.1v7.1c0,2.1,1.4,3.4,3.1,3.4
		c1.7,0,3.1-1.2,3.1-3.4v-7.1h1.1v7.1C514.6,71.4,512.7,73.2,510.4,73.2z"/>
	<path id="XMLID_127_" class="st2" d="M525.3,73l-4.7-5.4V73h-1.1V61.7h3.2c2,0,3.5,1.3,3.5,3.2c0,2-1.6,3.2-3.5,3.2h-0.3l4.3,4.9
		H525.3z M522.5,62.7h-2v4.6h1.9c1.5,0,2.7-0.8,2.7-2.4C525.1,63.6,524,62.7,522.5,62.7z"/>
	<path id="XMLID_130_" class="st2" d="M531,73V61.7h6v1H532v4.1h4.6v1H532V72h5.2v1H531z"/>
	<path id="XMLID_132_" class="st2" d="M544.3,73h-2.5V61.7h2.6c3.5,0,6,2.2,6,5.6C550.3,70.7,547.9,73,544.3,73z M544.5,62.6h-1.6
		V72h1.5c3.1,0,4.9-2.1,4.9-4.8C549.2,64.5,547.2,62.6,544.5,62.6z"/>
</g>
<g>
	<defs>
		<rect id="XMLID_2_" x="1" y="1" width="580" height="44"/>
	</defs>
	<clipPath id="XMLID_5_">
		<use xlink:href="#XMLID_2_"  style="overflow:visible;"/>
	</clipPath>
	<rect id="XMLID_3_" x="1" y="1" class="st4" width="580" height="44"/>
</g>
<g id="XMLID_52_">
	<path id="XMLID_53_" class="st2" d="M172.6,30V18.7h2.5v9.2h4V30H172.6z"/>
	<path id="XMLID_55_" class="st2" d="M183.4,30V18.7h6.6v2.1h-4.1v2.7h3.8v2.1h-3.8v2.4h4.3V30H183.4z"/>
	<path id="XMLID_57_" class="st2" d="M201.3,30l-2.3-4l-2.3,4H194l3.6-6.2l-3.1-5.1h2.7l1.7,3l1.6-3h2.8l-3,5.1l3.7,6.2H201.3z"/>
	<path id="XMLID_59_" class="st2" d="M213,30.2c-2.6,0-4.8-1.7-4.8-4.8v-6.7h2.5v6.7c0,1.5,1,2.6,2.3,2.6c1.4,0,2.5-1.1,2.5-2.6
		v-6.7h2.5v6.7C217.9,28.5,215.6,30.2,213,30.2z"/>
	<path id="XMLID_61_" class="st2" d="M226,30.2c-1.6,0-2.7-0.6-3.8-1.4l1.3-1.7c0.7,0.5,1.6,1,2.6,1c1.1,0,1.4-0.4,1.4-1.1
		c0-1.1-2.1-1.5-3-2c-1.1-0.6-2-1.3-2-3.1c0-2.3,2-3.3,4-3.3c1.1,0,2.4,0.3,3.3,1l-1.1,1.8c-0.5-0.4-1.3-0.7-2.2-0.7
		c-1.1,0-1.6,0.7-1.6,1.1c0,1,1.4,1.3,2.8,1.9c1.1,0.5,2.3,1.3,2.3,3.1C230,28.9,228.4,30.2,226,30.2z"/>
	<path id="XMLID_63_" class="st2" d="M249.4,30v-6.5c0-0.4,0-0.8,0-0.8s-0.1,0.3-0.2,0.4l-2.5,4.6h-0.9l-2.6-4.6
		c-0.1-0.2-0.2-0.4-0.2-0.4s0,0.4,0,0.8V30h-2.5V18.7h2.4l3.1,5.5c0.1,0.2,0.2,0.5,0.2,0.5s0.1-0.3,0.2-0.5l2.9-5.5h2.5V30H249.4z"
		/>
	<path id="XMLID_65_" class="st2" d="M263.7,30l-0.9-2.9h-3.4l-0.9,2.9h-2.6l4-11.3h2.4l4.1,11.3H263.7z M261.3,22.3
		c-0.1-0.4-0.2-0.9-0.2-0.9s-0.1,0.5-0.2,0.9l-0.9,2.8h2.2L261.3,22.3z"/>
	<path id="XMLID_68_" class="st2" d="M278.1,30l-5-6.6c-0.2-0.2-0.3-0.5-0.3-0.5s0,0.3,0,0.6V30h-2.5V18.7h2.1l5,6.5
		c0.2,0.2,0.3,0.5,0.3,0.5s0-0.3,0-0.6v-6.4h2.5V30H278.1z"/>
	<path id="XMLID_70_" class="st2" d="M289.9,30.2c-2.6,0-4.8-1.7-4.8-4.8v-6.7h2.5v6.7c0,1.5,1,2.6,2.3,2.6c1.4,0,2.5-1.1,2.5-2.6
		v-6.7h2.5v6.7C294.8,28.5,292.5,30.2,289.9,30.2z"/>
	<path id="XMLID_72_" class="st2" d="M302.1,20.8v2.7h3.3v2.1h-3.3V30h-2.5V18.7h6.1v2.1H302.1z"/>
	<path id="XMLID_74_" class="st2" d="M317.2,30l-0.9-2.9h-3.4L312,30h-2.6l4-11.3h2.4l4.1,11.3H317.2z M314.9,22.3
		c-0.1-0.4-0.2-0.9-0.2-0.9s-0.1,0.5-0.2,0.9l-0.9,2.8h2.2L314.9,22.3z"/>
	<path id="XMLID_77_" class="st2" d="M329.1,30.2c-3.4,0-5.8-2.3-5.8-5.9c0-3.4,2.6-5.8,5.7-5.8c1.7,0,2.9,0.5,4.1,1.7l-1.4,1.6
		c-0.8-0.8-1.6-1.1-2.7-1.1c-1.9,0-3.2,1.5-3.2,3.6c0,2.3,1.1,3.7,3.2,3.7c1.4,0,2.1-0.6,2.9-1.3l1.4,1.6
		C332.4,29.5,331.1,30.2,329.1,30.2z"/>
	<path id="XMLID_79_" class="st2" d="M341.7,20.8V30h-2.5v-9.2H337v-2.1h6.9v2.1H341.7z"/>
	<path id="XMLID_81_" class="st2" d="M353,30.2c-2.6,0-4.8-1.7-4.8-4.8v-6.7h2.5v6.7c0,1.5,1,2.6,2.3,2.6c1.4,0,2.5-1.1,2.5-2.6
		v-6.7h2.5v6.7C357.9,28.5,355.6,30.2,353,30.2z"/>
	<path id="XMLID_83_" class="st2" d="M368.4,30l-3.1-5.3V30h-2.5V18.7h4.1c2.4,0,3.9,1.4,3.9,3.4c0,1.7-1,2.8-2.5,3.2l3,4.7H368.4z
		 M366.8,20.8h-1.6v2.7h1.6c0.9,0,1.4-0.6,1.4-1.4C368.2,21.3,367.6,20.8,366.8,20.8z"/>
	<path id="XMLID_86_" class="st2" d="M375.4,30V18.7h2.5V30H375.4z"/>
	<path id="XMLID_88_" class="st2" d="M390.5,30l-5-6.6c-0.2-0.2-0.3-0.5-0.3-0.5s0,0.3,0,0.6V30h-2.5V18.7h2.1l5,6.5
		c0.2,0.2,0.3,0.5,0.3,0.5s0-0.3,0-0.6v-6.4h2.5V30H390.5z"/>
	<path id="XMLID_90_" class="st2" d="M402.8,30.2c-3.4,0-5.8-2.4-5.8-5.9c0-3.5,2.6-5.8,5.8-5.8c2,0,3.4,0.8,4.4,1.8l-1.5,1.5
		c-0.7-0.8-1.7-1.2-2.8-1.2c-1.9,0-3.3,1.7-3.3,3.6c0,2,1.4,3.7,3.3,3.7c1.4,0,2.4-0.5,2.8-1.6h-2.9v-2.1h5.6
		C408.3,28,405.8,30.2,402.8,30.2z"/>
</g>
</svg>
