<?xml version="1.0" encoding="utf-8"?>
<!-- Generator: Adobe Illustrator 16.0.4, SVG Export Plug-In . SVG Version: 6.00 Build 0)  -->
<!DOCTYPE svg PUBLIC "-//W3C//DTD SVG 1.1//EN" "http://www.w3.org/Graphics/SVG/1.1/DTD/svg11.dtd">
<svg version="1.1" id="Layer_1" xmlns="http://www.w3.org/2000/svg" xmlns:xlink="http://www.w3.org/1999/xlink" x="0px" y="0px"
	 width="32px" height="16px" viewBox="0 0 32 16" enable-background="new 0 0 32 16" xml:space="preserve">
<g>
	<defs>
		<rect id="SVGID_1_" x="-692.292" y="-1229" width="1400" height="2475"/>
	</defs>
	<clipPath id="SVGID_2_">
		<use xlink:href="#SVGID_1_"  overflow="visible"/>
	</clipPath>
	<g clip-path="url(#SVGID_2_)">
		<defs>
			<path id="SVGID_3_" d="M-62.77-588.653c0,0,1.529-0.558,1.927-0.688c0.397-0.131,0.79-0.132,1.008,0.019
				c0.33,0.229,3.078,2.286,3.309,2.468c0.23,0.181,0.291,0.633-0.115,1.024c-0.404,0.393-2.228,1.919-2.898,1.827
				c-0.672-0.093-3.469-0.452-8.12-5.64c-4.65-5.185-4.375-7.636-4.316-8.227c0.06-0.589,2.202-1.762,2.736-2.009
				c0.535-0.246,1.024-0.078,1.17,0.152c0.166,0.263,1.772,3.072,1.947,3.394c0.12,0.219,0.019,0.552-0.224,0.856
				c-0.241,0.305-1.232,1.462-1.232,1.462s0.458,0.921,2.176,2.836C-63.685-589.264-62.77-588.653-62.77-588.653z"/>
		</defs>
		<clipPath id="SVGID_4_">
			<use xlink:href="#SVGID_3_"  overflow="visible"/>
		</clipPath>
		<rect x="-77" y="-605" clip-path="url(#SVGID_4_)" fill="#FFFFFF" width="25.655" height="26"/>
	</g>
</g>
<path fill="#FFFFFF" d="M9.401,11.346c0,0,1.529-0.557,1.928-0.688c0.397-0.131,0.79-0.133,1.008,0.018
	c0.33,0.229,3.078,2.287,3.309,2.469c0.23,0.18,0.291,0.633-0.115,1.023c-0.403,0.393-2.227,1.92-2.898,1.828
	c-0.672-0.094-3.469-0.453-8.119-5.641c-4.65-5.184-4.376-7.635-4.316-8.226c0.061-0.589,2.201-1.762,2.736-2.009
	c0.535-0.246,1.023-0.078,1.17,0.152C4.269,0.536,5.874,3.346,6.05,3.667c0.119,0.219,0.019,0.552-0.225,0.856
	c-0.24,0.305-1.232,1.462-1.232,1.462S5.052,6.906,6.77,8.821C8.487,10.735,9.401,11.346,9.401,11.346z"/>
<path d="M25.402,11.346c0,0,1.529-0.557,1.928-0.688c0.397-0.131,0.79-0.133,1.008,0.018c0.33,0.229,3.078,2.287,3.309,2.469
	c0.23,0.18,0.291,0.633-0.115,1.023c-0.403,0.393-2.227,1.92-2.898,1.828c-0.672-0.094-3.469-0.453-8.12-5.641
	c-4.65-5.184-4.375-7.635-4.315-8.226c0.06-0.589,2.202-1.762,2.736-2.009c0.535-0.246,1.024-0.078,1.17,0.152
	c0.166,0.263,1.772,3.072,1.947,3.394c0.12,0.219,0.019,0.552-0.224,0.856s-1.232,1.462-1.232,1.462s0.458,0.921,2.176,2.836
	C24.488,10.735,25.402,11.346,25.402,11.346z"/>
</svg>
