<?xml version="1.0" encoding="utf-8"?>
<!-- Generator: Adobe Illustrator 16.0.4, SVG Export Plug-In . SVG Version: 6.00 Build 0)  -->
<!DOCTYPE svg PUBLIC "-//W3C//DTD SVG 1.1//EN" "http://www.w3.org/Graphics/SVG/1.1/DTD/svg11.dtd">
<svg version="1.1" id="Layer_1" xmlns="http://www.w3.org/2000/svg" xmlns:xlink="http://www.w3.org/1999/xlink" x="0px" y="0px"
	 width="46px" height="16px" viewBox="0 0 46 16" enable-background="new 0 0 46 16" xml:space="preserve">
<path fill-rule="evenodd" clip-rule="evenodd" fill="#FFFFFF" d="M12.129,13.499C18.188,13.309,23,10.401,23,6.839
	c0-3.684-5.149-6.669-11.5-6.669S0,3.155,0,6.839c0,2.435,2.247,4.564,5.604,5.728l1.522,3.264L12.129,13.499z"/>
<path fill-rule="evenodd" clip-rule="evenodd" d="M35.129,13.499C41.188,13.309,46,10.401,46,6.839c0-3.684-5.149-6.669-11.5-6.669
	S23,3.155,23,6.839c0,2.435,2.247,4.564,5.604,5.728l1.522,3.264L35.129,13.499z"/>
</svg>
