<?xml version="1.0" encoding="utf-8"?>
<!-- Generator: Adobe Illustrator 16.0.4, SVG Export Plug-In . SVG Version: 6.00 Build 0)  -->
<!DOCTYPE svg PUBLIC "-//W3C//DTD SVG 1.1//EN" "http://www.w3.org/Graphics/SVG/1.1/DTD/svg11.dtd">
<svg version="1.1" id="Layer_1" xmlns="http://www.w3.org/2000/svg" xmlns:xlink="http://www.w3.org/1999/xlink" x="0px" y="0px"
	 width="42px" height="13px" viewBox="-21 0 42 13" enable-background="new -21 0 42 13" xml:space="preserve">
<g>
	<path d="M10.528,7.73l8.929-7.674C19.312,0.022,19.161,0,19.005,0H1.994C1.796,0,1.607,0.039,1.426,0.094L10.528,7.73z"/>
	<path d="M20.354,0.535L10.528,8.98L0.562,0.618C0.216,0.979,0,1.465,0,2.003v8.994C0,12.105,0.893,13,1.994,13h17.011
		C20.098,13,21,12.104,21,10.997V2.003C21,1.42,20.749,0.9,20.354,0.535z"/>
</g>
<g>
	<path fill="#FFFFFF" d="M-10.473,7.73l8.93-7.674C-1.688,0.022-1.839,0-1.995,0h-17.011c-0.198,0-0.387,0.039-0.568,0.094
		L-10.473,7.73z"/>
	<path fill="#FFFFFF" d="M-0.646,0.535l-9.826,8.445l-9.965-8.362C-20.784,0.979-21,1.465-21,2.003v8.994
		C-21,12.105-20.107,13-19.006,13h17.011C-0.902,13,0,12.104,0,10.997V2.003C0,1.42-0.251,0.9-0.646,0.535z"/>
</g>
</svg>
